BitBit-Regular.ufo
<glyph name="exclam" format="2">
  <advance width="308"/>
  <unicode hex="0021"/>
  <outline>
    <contour>
      <point x="218" y="733" type="line"/>
      <point x="250" y="733" type="line"/>
      <point x="250" y="284" type="line"/>
      <point x="218" y="284" type="line"/>
      <point x="218" y="252" type="line"/>
      <point x="102" y="252" type="line"/>
      <point x="102" y="284" type="line"/>
      <point x="70" y="284" type="line"/>
      <point x="70" y="733" type="line"/>
      <point x="102" y="733" type="line"/>
      <point x="102" y="765" type="line"/>
      <point x="218" y="765" type="line"/>
    </contour>
    <contour>
      <point x="218" y="161" type="line"/>
      <point x="250" y="161" type="line"/>
      <point x="250" y="42" type="line"/>
      <point x="218" y="42" type="line"/>
      <point x="218" y="10" type="line"/>
      <point x="102" y="10" type="line"/>
      <point x="102" y="42" type="line"/>
      <point x="70" y="42" type="line"/>
      <point x="70" y="161" type="line"/>
      <point x="102" y="161" type="line"/>
      <point x="102" y="193" type="line"/>
      <point x="218" y="193" type="line"/>
    </contour>
  </outline>
</glyph>
<glyph name="quotedbl" format="2">
  <advance width="380"/>
  <unicode hex="0022"/>
  <outline>
    <contour>
      <point x="64" y="776" type="line"/>
      <point x="148" y="776" type="line"/>
      <point x="148" y="744" type="line"/>
      <point x="175" y="744" type="line"/>
      <point x="175" y="594" type="line"/>
      <point x="148" y="594" type="line"/>
      <point x="148" y="562" type="line"/>
      <point x="64" y="562" type="line"/>
      <point x="64" y="594" type="line"/>
      <point x="37" y="594" type="line"/>
      <point x="37" y="744" type="line"/>
      <point x="64" y="744" type="line"/>
    </contour>
    <contour>
      <point x="234" y="776" type="line"/>
      <point x="318" y="776" type="line"/>
      <point x="318" y="744" type="line"/>
      <point x="345" y="744" type="line"/>
      <point x="345" y="594" type="line"/>
      <point x="318" y="594" type="line"/>
      <point x="318" y="562" type="line"/>
      <point x="234" y="562" type="line"/>
      <point x="234" y="594" type="line"/>
      <point x="207" y="594" type="line"/>
      <point x="207" y="744" type="line"/>
      <point x="234" y="744" type="line"/>
    </contour>
  </outline>
</glyph>
<glyph name="numbersign" format="2">
  <advance width="730"/>
  <unicode hex="0023"/>
  <outline>
    <contour>
      <point x="402" y="424" type="line"/>
      <point x="318" y="424" type="line"/>
      <point x="318" y="324" type="line"/>
      <point x="402" y="324" type="line"/>
    </contour>
    <contour>
      <point x="578" y="324" type="line"/>
      <point x="657" y="324" type="line"/>
      <point x="657" y="291" type="line"/>
      <point x="690" y="291" type="line"/>
      <point x="690" y="181" type="line"/>
      <point x="657" y="181" type="line"/>
      <point x="657" y="148" type="line"/>
      <point x="578" y="148" type="line"/>
      <point x="578" y="33" type="line"/>
      <point x="545" y="33" type="line"/>
      <point x="545" y="0" type="line"/>
      <point x="435" y="0" type="line"/>
      <point x="435" y="33" type="line"/>
      <point x="402" y="33" type="line"/>
      <point x="402" y="148" type="line"/>
      <point x="318" y="148" type="line"/>
      <point x="318" y="33" type="line"/>
      <point x="285" y="33" type="line"/>
      <point x="285" y="0" type="line"/>
      <point x="175" y="0" type="line"/>
      <point x="175" y="33" type="line"/>
      <point x="142" y="33" type="line"/>
      <point x="142" y="148" type="line"/>
      <point x="53" y="148" type="line"/>
      <point x="53" y="181" type="line"/>
      <point x="20" y="181" type="line"/>
      <point x="20" y="291" type="line"/>
      <point x="53" y="291" type="line"/>
      <point x="53" y="324" type="line"/>
      <point x="142" y="324" type="line"/>
      <point x="142" y="424" type="line"/>
      <point x="53" y="424" type="line"/>
      <point x="53" y="457" type="line"/>
      <point x="20" y="457" type="line"/>
      <point x="20" y="567" type="line"/>
      <point x="53" y="567" type="line"/>
      <point x="53" y="600" type="line"/>
      <point x="142" y="600" type="line"/>
      <point x="142" y="717" type="line"/>
      <point x="175" y="717" type="line"/>
      <point x="175" y="750" type="line"/>
      <point x="285" y="750" type="line"/>
      <point x="285" y="717" type="line"/>
      <point x="318" y="717" type="line"/>
      <point x="318" y="600" type="line"/>
      <point x="402" y="600" type="line"/>
      <point x="402" y="717" type="line"/>
      <point x="435" y="717" type="line"/>
      <point x="435" y="750" type="line"/>
      <point x="545" y="750" type="line"/>
      <point x="545" y="717" type="line"/>
      <point x="578" y="717" type="line"/>
      <point x="578" y="600" type="line"/>
      <point x="657" y="600" type="line"/>
      <point x="657" y="567" type="line"/>
      <point x="690" y="567" type="line"/>
      <point x="690" y="457" type="line"/>
      <point x="657" y="457" type="line"/>
      <point x="657" y="424" type="line"/>
      <point x="578" y="424" type="line"/>
    </contour>
  </outline>
</glyph>
<glyph name="dollar" format="2">
  <advance width="640"/>
  <unicode hex="0024"/>
  <outline>
    <contour>
      <point x="227" y="763" type="line"/>
      <point x="260" y="763" type="line"/>
      <point x="260" y="793" type="line"/>
      <point x="360" y="793" type="line"/>
      <point x="360" y="763" type="line"/>
      <point x="393" y="763" type="line"/>
      <point x="393" y="695" type="line"/>
      <point x="538" y="695" type="line"/>
      <point x="538" y="661" type="line"/>
      <point x="576" y="661" type="line"/>
      <point x="576" y="577" type="line"/>
      <point x="538" y="577" type="line"/>
      <point x="538" y="540" type="line"/>
      <point x="255" y="540" type="line"/>
      <point x="255" y="514" type="line"/>
      <point x="224" y="514" type="line"/>
      <point x="224" y="478" type="line"/>
      <point x="255" y="478" type="line"/>
      <point x="255" y="452" type="line"/>
      <point x="507" y="452" type="line"/>
      <point x="507" y="414" type="line"/>
      <point x="547" y="414" type="line"/>
      <point x="547" y="369" type="line"/>
      <point x="586" y="369" type="line"/>
      <point x="586" y="318" type="line"/>
      <point x="621" y="318" type="line"/>
      <point x="621" y="174" type="line"/>
      <point x="586" y="174" type="line"/>
      <point x="586" y="133" type="line"/>
      <point x="547" y="133" type="line"/>
      <point x="547" y="98" type="line"/>
      <point x="507" y="98" type="line"/>
      <point x="507" y="59" type="line"/>
      <point x="393" y="59" type="line"/>
      <point x="393" y="-9" type="line"/>
      <point x="360" y="-9" type="line"/>
      <point x="360" y="-40" type="line"/>
      <point x="260" y="-40" type="line"/>
      <point x="260" y="-9" type="line"/>
      <point x="227" y="-9" type="line"/>
      <point x="227" y="59" type="line"/>
      <point x="85" y="59" type="line"/>
      <point x="85" y="93" type="line"/>
      <point x="47" y="93" type="line"/>
      <point x="47" y="182" type="line"/>
      <point x="85" y="182" type="line"/>
      <point x="85" y="218" type="line"/>
      <point x="385" y="218" type="line"/>
      <point x="385" y="244" type="line"/>
      <point x="417" y="244" type="line"/>
      <point x="417" y="276" type="line"/>
      <point x="385" y="276" type="line"/>
      <point x="385" y="302" type="line"/>
      <point x="134" y="302" type="line"/>
      <point x="134" y="340" type="line"/>
      <point x="94" y="340" type="line"/>
      <point x="94" y="385" type="line"/>
      <point x="55" y="385" type="line"/>
      <point x="55" y="436" type="line"/>
      <point x="20" y="436" type="line"/>
      <point x="20" y="579" type="line"/>
      <point x="55" y="579" type="line"/>
      <point x="55" y="621" type="line"/>
      <point x="94" y="621" type="line"/>
      <point x="94" y="655" type="line"/>
      <point x="134" y="655" type="line"/>
      <point x="134" y="695" type="line"/>
      <point x="227" y="695" type="line"/>
    </contour>
  </outline>
</glyph>
<glyph name="percent" format="2">
  <advance width="900"/>
  <unicode hex="0025"/>
  <outline>
    <contour>
      <point x="692" y="242" type="line"/>
      <point x="692" y="210" type="line"/>
      <point x="667" y="210" type="line"/>
      <point x="667" y="167" type="line"/>
      <point x="692" y="167" type="line"/>
      <point x="692" y="135" type="line"/>
      <point x="735" y="135" type="line"/>
      <point x="735" y="167" type="line"/>
      <point x="761" y="167" type="line"/>
      <point x="761" y="210" type="line"/>
      <point x="735" y="210" type="line"/>
      <point x="735" y="242" type="line"/>
    </contour>
    <contour>
      <point x="182" y="577" type="line"/>
      <point x="182" y="545" type="line"/>
      <point x="157" y="545" type="line"/>
      <point x="157" y="502" type="line"/>
      <point x="182" y="502" type="line"/>
      <point x="182" y="470" type="line"/>
      <point x="225" y="470" type="line"/>
      <point x="225" y="502" type="line"/>
      <point x="251" y="502" type="line"/>
      <point x="251" y="545" type="line"/>
      <point x="225" y="545" type="line"/>
      <point x="225" y="577" type="line"/>
    </contour>
    <contour>
      <point x="533" y="712" type="line"/>
      <point x="678" y="711" type="line"/>
      <point x="678" y="646" type="line"/>
      <point x="652" y="646" type="line"/>
      <point x="652" y="571" type="line"/>
      <point x="621" y="571" type="line"/>
      <point x="621" y="496" type="line"/>
      <point x="591" y="496" type="line"/>
      <point x="591" y="424" type="line"/>
      <point x="563" y="424" type="line"/>
      <point x="563" y="355" type="line"/>
      <point x="533" y="355" type="line"/>
      <point x="533" y="285" type="line"/>
      <point x="501" y="285" type="line"/>
      <point x="501" y="214" type="line"/>
      <point x="467" y="214" type="line"/>
      <point x="467" y="140" type="line"/>
      <point x="435" y="140" type="line"/>
      <point x="435" y="65" type="line"/>
      <point x="405" y="65" type="line"/>
      <point x="405" y="0" type="line"/>
      <point x="382" y="0" type="line"/>
      <point x="237" y="1" type="line"/>
      <point x="237" y="65" type="line"/>
      <point x="263" y="65" type="line"/>
      <point x="263" y="140" type="line"/>
      <point x="294" y="140" type="line"/>
      <point x="294" y="215" type="line"/>
      <point x="324" y="215" type="line"/>
      <point x="324" y="287" type="line"/>
      <point x="352" y="287" type="line"/>
      <point x="352" y="357" type="line"/>
      <point x="382" y="357" type="line"/>
      <point x="382" y="427" type="line"/>
      <point x="414" y="427" type="line"/>
      <point x="414" y="497" type="line"/>
      <point x="448" y="497" type="line"/>
      <point x="448" y="571" type="line"/>
      <point x="480" y="571" type="line"/>
      <point x="480" y="646" type="line"/>
      <point x="510" y="646" type="line"/>
      <point x="510" y="712" type="line"/>
    </contour>
    <contour>
      <point x="299" y="646" type="line"/>
      <point x="333" y="646" type="line"/>
      <point x="333" y="599" type="line"/>
      <point x="367" y="599" type="line"/>
      <point x="367" y="446" type="line"/>
      <point x="333" y="446" type="line"/>
      <point x="333" y="398" type="line"/>
      <point x="299" y="398" type="line"/>
      <point x="299" y="354" type="line"/>
      <point x="108" y="354" type="line"/>
      <point x="108" y="398" type="line"/>
      <point x="74" y="398" type="line"/>
      <point x="74" y="446" type="line"/>
      <point x="41" y="446" type="line"/>
      <point x="41" y="599" type="line"/>
      <point x="74" y="599" type="line"/>
      <point x="74" y="646" type="line"/>
      <point x="108" y="646" type="line"/>
      <point x="108" y="692" type="line"/>
      <point x="299" y="692" type="line"/>
    </contour>
    <contour>
      <point x="809" y="311" type="line"/>
      <point x="843" y="311" type="line"/>
      <point x="843" y="264" type="line"/>
      <point x="877" y="264" type="line"/>
      <point x="877" y="111" type="line"/>
      <point x="843" y="111" type="line"/>
      <point x="843" y="63" type="line"/>
      <point x="809" y="63" type="line"/>
      <point x="809" y="19" type="line"/>
      <point x="618" y="19" type="line"/>
      <point x="618" y="63" type="line"/>
      <point x="584" y="63" type="line"/>
      <point x="584" y="111" type="line"/>
      <point x="551" y="111" type="line"/>
      <point x="551" y="264" type="line"/>
      <point x="584" y="264" type="line"/>
      <point x="584" y="311" type="line"/>
      <point x="618" y="311" type="line"/>
      <point x="618" y="357" type="line"/>
      <point x="809" y="357" type="line"/>
    </contour>
  </outline>
</glyph>
<glyph name="ampersand" format="2">
  <advance width="800"/>
  <unicode hex="0026"/>
  <outline>
    <contour>
      <point x="261" y="287" type="line"/>
      <point x="261" y="250" type="line"/>
      <point x="228" y="250" type="line"/>
      <point x="228" y="201" type="line"/>
      <point x="261" y="201" type="line"/>
      <point x="261" y="164" type="line"/>
      <point x="396" y="164" type="line"/>
      <point x="396" y="201" type="line"/>
      <point x="430" y="201" type="line"/>
      <point x="430" y="250" type="line"/>
      <point x="396" y="250" type="line"/>
      <point x="396" y="287" type="line"/>
    </contour>
    <contour>
      <point x="276" y="568" type="line"/>
      <point x="276" y="531" type="line"/>
      <point x="243" y="531" type="line"/>
      <point x="243" y="482" type="line"/>
      <point x="276" y="482" type="line"/>
      <point x="276" y="445" type="line"/>
      <point x="381" y="445" type="line"/>
      <point x="381" y="482" type="line"/>
      <point x="415" y="482" type="line"/>
      <point x="415" y="531" type="line"/>
      <point x="381" y="531" type="line"/>
      <point x="381" y="568" type="line"/>
    </contour>
    <contour>
      <point x="589" y="379" type="line"/>
      <point x="623" y="379" type="line"/>
      <point x="623" y="415" type="line"/>
      <point x="719" y="415" type="line"/>
      <point x="719" y="379" type="line"/>
      <point x="751" y="379" type="line"/>
      <point x="751" y="271" type="line"/>
      <point x="719" y="271" type="line"/>
      <point x="719" y="233" type="line"/>
      <point x="680" y="233" type="line"/>
      <point x="680" y="196" type="line"/>
      <point x="640" y="196" type="line"/>
      <point x="640" y="137" type="line"/>
      <point x="680" y="137" type="line"/>
      <point x="680" y="103" type="line"/>
      <point x="719" y="103" type="line"/>
      <point x="719" y="2" type="line"/>
      <point x="680" y="2" type="line"/>
      <point x="680" y="-30" type="line"/>
      <point x="555" y="-30" type="line"/>
      <point x="555" y="2" type="line"/>
      <point x="517" y="2" type="line"/>
      <point x="517" y="42" type="line"/>
      <point x="470" y="42" type="line"/>
      <point x="470" y="2" type="line"/>
      <point x="168" y="2" type="line"/>
      <point x="168" y="42" type="line"/>
      <point x="126" y="42" type="line"/>
      <point x="126" y="88" type="line"/>
      <point x="86" y="88" type="line"/>
      <point x="86" y="135" type="line"/>
      <point x="50" y="135" type="line"/>
      <point x="50" y="306" type="line"/>
      <point x="86" y="306" type="line"/>
      <point x="86" y="346" type="line"/>
      <point x="126" y="346" type="line"/>
      <point x="126" y="384" type="line"/>
      <point x="101" y="384" type="line"/>
      <point x="101" y="426" type="line"/>
      <point x="65" y="426" type="line"/>
      <point x="65" y="582" type="line"/>
      <point x="101" y="582" type="line"/>
      <point x="101" y="633" type="line"/>
      <point x="141" y="633" type="line"/>
      <point x="141" y="684" type="line"/>
      <point x="183" y="684" type="line"/>
      <point x="183" y="722" type="line"/>
      <point x="475" y="722" type="line"/>
      <point x="475" y="684" type="line"/>
      <point x="516" y="684" type="line"/>
      <point x="516" y="633" type="line"/>
      <point x="557" y="633" type="line"/>
      <point x="557" y="582" type="line"/>
      <point x="593" y="582" type="line"/>
      <point x="593" y="426" type="line"/>
      <point x="557" y="426" type="line"/>
      <point x="557" y="384" type="line"/>
      <point x="531" y="384" type="line"/>
      <point x="531" y="336" type="line"/>
      <point x="589" y="336" type="line"/>
    </contour>
  </outline>
</glyph>
<glyph name="quotesingle" format="2">
  <advance width="230"/>
  <unicode hex="0027"/>
  <outline>
    <contour>
      <point x="170" y="570" type="line"/>
      <point x="47" y="570" type="line"/>
      <point x="47" y="601" type="line"/>
      <point x="22" y="601" type="line"/>
      <point x="22" y="661" type="line"/>
      <point x="47" y="661" type="line"/>
      <point x="47" y="700" type="line"/>
      <point x="75" y="700" type="line"/>
      <point x="75" y="740" type="line"/>
      <point x="105" y="740" type="line"/>
      <point x="105" y="771" type="line"/>
      <point x="197" y="771" type="line"/>
      <point x="197" y="740" type="line"/>
      <point x="223" y="740" type="line"/>
      <point x="223" y="651" type="line"/>
      <point x="197" y="651" type="line"/>
      <point x="197" y="601" type="line"/>
      <point x="170" y="601" type="line"/>
    </contour>
  </outline>
</glyph>
<glyph name="parenleft" format="2">
  <advance width="330"/>
  <unicode hex="0028"/>
  <outline>
    <contour>
      <point x="308" y="748" type="line"/>
      <point x="308" y="656" type="line"/>
      <point x="273" y="656" type="line"/>
      <point x="273" y="621" type="line"/>
      <point x="237" y="621" type="line"/>
      <point x="237" y="584" type="line"/>
      <point x="198" y="584" type="line"/>
      <point x="198" y="164" type="line"/>
      <point x="237" y="164" type="line"/>
      <point x="237" y="126" type="line"/>
      <point x="273" y="126" type="line"/>
      <point x="273" y="89" type="line"/>
      <point x="308" y="89" type="line"/>
      <point x="308" y="0" type="line"/>
      <point x="273" y="0" type="line"/>
      <point x="273" y="-31" type="line"/>
      <point x="125" y="-31" type="line"/>
      <point x="125" y="0" type="line"/>
      <point x="88" y="0" type="line"/>
      <point x="88" y="41" type="line"/>
      <point x="52" y="41" type="line"/>
      <point x="52" y="89" type="line"/>
      <point x="20" y="89" type="line"/>
      <point x="20" y="656" type="line"/>
      <point x="52" y="656" type="line"/>
      <point x="52" y="706" type="line"/>
      <point x="88" y="706" type="line"/>
      <point x="88" y="748" type="line"/>
      <point x="125" y="748" type="line"/>
      <point x="125" y="780" type="line"/>
      <point x="273" y="780" type="line"/>
      <point x="273" y="748" type="line"/>
    </contour>
  </outline>
</glyph>
<glyph name="parenright" format="2">
  <advance width="330"/>
  <unicode hex="0029"/>
  <outline>
    <contour>
      <point x="55" y="780" type="line"/>
      <point x="202" y="780" type="line"/>
      <point x="202" y="748" type="line"/>
      <point x="239" y="748" type="line"/>
      <point x="239" y="706" type="line"/>
      <point x="275" y="706" type="line"/>
      <point x="275" y="656" type="line"/>
      <point x="307" y="656" type="line"/>
      <point x="307" y="89" type="line"/>
      <point x="275" y="89" type="line"/>
      <point x="275" y="41" type="line"/>
      <point x="239" y="41" type="line"/>
      <point x="239" y="0" type="line"/>
      <point x="202" y="0" type="line"/>
      <point x="202" y="-31" type="line"/>
      <point x="55" y="-31" type="line"/>
      <point x="55" y="0" type="line"/>
      <point x="20" y="0" type="line"/>
      <point x="20" y="89" type="line"/>
      <point x="55" y="89" type="line"/>
      <point x="55" y="126" type="line"/>
      <point x="91" y="126" type="line"/>
      <point x="91" y="164" type="line"/>
      <point x="129" y="164" type="line"/>
      <point x="129" y="584" type="line"/>
      <point x="91" y="584" type="line"/>
      <point x="91" y="621" type="line"/>
      <point x="55" y="621" type="line"/>
      <point x="55" y="656" type="line"/>
      <point x="20" y="656" type="line"/>
      <point x="20" y="748" type="line"/>
      <point x="55" y="748" type="line"/>
    </contour>
  </outline>
</glyph>
<glyph name="plus" format="2">
  <advance width="530"/>
  <unicode hex="002B"/>
  <outline>
    <contour>
      <point x="181" y="564" type="line"/>
      <point x="214" y="564" type="line"/>
      <point x="214" y="597" type="line"/>
      <point x="316" y="597" type="line"/>
      <point x="316" y="564" type="line"/>
      <point x="349" y="564" type="line"/>
      <point x="349" y="446" type="line"/>
      <point x="467" y="446" type="line"/>
      <point x="467" y="413" type="line"/>
      <point x="500" y="413" type="line"/>
      <point x="500" y="311" type="line"/>
      <point x="467" y="311" type="line"/>
      <point x="467" y="278" type="line"/>
      <point x="349" y="278" type="line"/>
      <point x="349" y="160" type="line"/>
      <point x="316" y="160" type="line"/>
      <point x="316" y="127" type="line"/>
      <point x="214" y="127" type="line"/>
      <point x="214" y="160" type="line"/>
      <point x="181" y="160" type="line"/>
      <point x="181" y="278" type="line"/>
      <point x="63" y="278" type="line"/>
      <point x="63" y="311" type="line"/>
      <point x="30" y="311" type="line"/>
      <point x="30" y="413" type="line"/>
      <point x="63" y="413" type="line"/>
      <point x="63" y="446" type="line"/>
      <point x="181" y="446" type="line"/>
    </contour>
  </outline>
</glyph>
<glyph name="comma" format="2">
  <advance width="270"/>
  <unicode hex="002C"/>
  <outline>
    <contour>
      <point x="220" y="161" type="line"/>
      <point x="220" y="42" type="line"/>
      <point x="188" y="42" type="line"/>
      <point x="188" y="5" type="line"/>
      <point x="152" y="5" type="line"/>
      <point x="152" y="-42" type="line"/>
      <point x="40" y="-42" type="line"/>
      <point x="40" y="5" type="line"/>
      <point x="72" y="5" type="line"/>
      <point x="72" y="42" type="line"/>
      <point x="40" y="42" type="line"/>
      <point x="40" y="161" type="line"/>
      <point x="72" y="161" type="line"/>
      <point x="72" y="193" type="line"/>
      <point x="188" y="193" type="line"/>
      <point x="188" y="161" type="line"/>
    </contour>
  </outline>
</glyph>
<glyph name="hyphenminus" format="2">
  <advance width="550"/>
  <unicode hex="002D"/>
  <outline>
    <contour>
      <point x="40" y="418" type="line"/>
      <point x="73" y="418" type="line"/>
      <point x="73" y="451" type="line"/>
      <point x="477" y="451" type="line"/>
      <point x="477" y="418" type="line"/>
      <point x="510" y="418" type="line"/>
      <point x="510" y="306" type="line"/>
      <point x="477" y="306" type="line"/>
      <point x="477" y="273" type="line"/>
      <point x="73" y="273" type="line"/>
      <point x="73" y="306" type="line"/>
      <point x="40" y="306" type="line"/>
    </contour>
  </outline>
</glyph>
<glyph name="period" format="2">
  <advance width="270"/>
  <unicode hex="002E"/>
  <outline>
    <contour>
      <point x="188" y="161" type="line"/>
      <point x="220" y="161" type="line"/>
      <point x="220" y="42" type="line"/>
      <point x="188" y="42" type="line"/>
      <point x="188" y="10" type="line"/>
      <point x="72" y="10" type="line"/>
      <point x="72" y="42" type="line"/>
      <point x="40" y="42" type="line"/>
      <point x="40" y="161" type="line"/>
      <point x="72" y="161" type="line"/>
      <point x="72" y="193" type="line"/>
      <point x="188" y="193" type="line"/>
    </contour>
  </outline>
</glyph>
<glyph name="slash" format="2">
  <advance width="530"/>
  <unicode hex="002F"/>
  <outline>
    <contour>
      <point x="518" y="750" type="line"/>
      <point x="518" y="692" type="line"/>
      <point x="493" y="692" type="line"/>
      <point x="493" y="636" type="line"/>
      <point x="462" y="636" type="line"/>
      <point x="462" y="576" type="line"/>
      <point x="436" y="576" type="line"/>
      <point x="436" y="518" type="line"/>
      <point x="409" y="518" type="line"/>
      <point x="409" y="460" type="line"/>
      <point x="384" y="460" type="line"/>
      <point x="384" y="404" type="line"/>
      <point x="353" y="404" type="line"/>
      <point x="353" y="344" type="line"/>
      <point x="327" y="344" type="line"/>
      <point x="327" y="286" type="line"/>
      <point x="299" y="286" type="line"/>
      <point x="299" y="230" type="line"/>
      <point x="275" y="230" type="line"/>
      <point x="275" y="170" type="line"/>
      <point x="250" y="170" type="line"/>
      <point x="250" y="111" type="line"/>
      <point x="224" y="111" type="line"/>
      <point x="224" y="56" type="line"/>
      <point x="196" y="56" type="line"/>
      <point x="196" y="0" type="line"/>
      <point x="0" y="0" type="line"/>
      <point x="0" y="56" type="line"/>
      <point x="30" y="56" type="line"/>
      <point x="30" y="111" type="line"/>
      <point x="57" y="111" type="line"/>
      <point x="57" y="170" type="line"/>
      <point x="85" y="170" type="line"/>
      <point x="85" y="230" type="line"/>
      <point x="109" y="230" type="line"/>
      <point x="109" y="286" type="line"/>
      <point x="134" y="286" type="line"/>
      <point x="134" y="344" type="line"/>
      <point x="161" y="344" type="line"/>
      <point x="161" y="404" type="line"/>
      <point x="186" y="404" type="line"/>
      <point x="186" y="460" type="line"/>
      <point x="215" y="460" type="line"/>
      <point x="215" y="518" type="line"/>
      <point x="243" y="518" type="line"/>
      <point x="243" y="576" type="line"/>
      <point x="270" y="576" type="line"/>
      <point x="270" y="636" type="line"/>
      <point x="297" y="636" type="line"/>
      <point x="297" y="692" type="line"/>
      <point x="326" y="692" type="line"/>
      <point x="326" y="750" type="line"/>
    </contour>
  </outline>
</glyph>
<glyph name="zero" format="2">
  <advance width="620"/>
  <unicode hex="0030"/>
  <outline>
    <contour>
      <point x="275" y="552" type="line"/>
      <point x="275" y="509" type="line"/>
      <point x="226" y="509" type="line"/>
      <point x="226" y="241" type="line"/>
      <point x="275" y="241" type="line"/>
      <point x="275" y="198" type="line"/>
      <point x="350" y="198" type="line"/>
      <point x="350" y="241" type="line"/>
      <point x="400" y="241" type="line"/>
      <point x="400" y="509" type="line"/>
      <point x="350" y="509" type="line"/>
      <point x="350" y="552" type="line"/>
    </contour>
    <contour>
      <point x="461" y="690" type="line"/>
      <point x="508" y="690" type="line"/>
      <point x="508" y="637" type="line"/>
      <point x="554" y="637" type="line"/>
      <point x="554" y="578" type="line"/>
      <point x="596" y="578" type="line"/>
      <point x="596" y="169" type="line"/>
      <point x="554" y="169" type="line"/>
      <point x="554" y="109" type="line"/>
      <point x="508" y="109" type="line"/>
      <point x="508" y="56" type="line"/>
      <point x="461" y="56" type="line"/>
      <point x="461" y="10" type="line"/>
      <point x="165" y="10" type="line"/>
      <point x="165" y="56" type="line"/>
      <point x="117" y="56" type="line"/>
      <point x="117" y="109" type="line"/>
      <point x="71" y="109" type="line"/>
      <point x="71" y="169" type="line"/>
      <point x="30" y="169" type="line"/>
      <point x="30" y="578" type="line"/>
      <point x="71" y="578" type="line"/>
      <point x="71" y="637" type="line"/>
      <point x="117" y="637" type="line"/>
      <point x="117" y="690" type="line"/>
      <point x="165" y="690" type="line"/>
      <point x="165" y="740" type="line"/>
      <point x="461" y="740" type="line"/>
    </contour>
  </outline>
</glyph>
<glyph name="one" format="2">
  <advance width="480"/>
  <unicode hex="0031"/>
  <outline>
    <contour>
      <point x="183" y="522" type="line"/>
      <point x="183" y="484" type="line"/>
      <point x="142" y="484" type="line"/>
      <point x="142" y="451" type="line"/>
      <point x="64" y="451" type="line"/>
      <point x="64" y="484" type="line"/>
      <point x="25" y="484" type="line"/>
      <point x="25" y="612" type="line"/>
      <point x="66" y="612" type="line"/>
      <point x="66" y="662" type="line"/>
      <point x="105" y="662" type="line"/>
      <point x="105" y="700" type="line"/>
      <point x="146" y="700" type="line"/>
      <point x="146" y="740" type="line"/>
      <point x="374" y="740" type="line"/>
      <point x="374" y="702" type="line"/>
      <point x="411" y="702" type="line"/>
      <point x="411" y="46" type="line"/>
      <point x="374" y="46" type="line"/>
      <point x="374" y="10" type="line"/>
      <point x="253" y="10" type="line"/>
      <point x="253" y="46" type="line"/>
      <point x="215" y="46" type="line"/>
      <point x="215" y="522" type="line"/>
    </contour>
  </outline>
</glyph>
<glyph name="two" format="2">
  <advance width="560"/>
  <unicode hex="0032"/>
  <outline>
    <contour>
      <point x="118" y="304" type="line"/>
      <point x="164" y="304" type="line"/>
      <point x="164" y="341" type="line"/>
      <point x="210" y="341" type="line"/>
      <point x="210" y="384" type="line"/>
      <point x="255" y="384" type="line"/>
      <point x="255" y="422" type="line"/>
      <point x="292" y="422" type="line"/>
      <point x="292" y="464" type="line"/>
      <point x="327" y="464" type="line"/>
      <point x="327" y="533" type="line"/>
      <point x="287" y="533" type="line"/>
      <point x="287" y="568" type="line"/>
      <point x="68" y="568" type="line"/>
      <point x="68" y="603" type="line"/>
      <point x="30" y="603" type="line"/>
      <point x="30" y="705" type="line"/>
      <point x="68" y="705" type="line"/>
      <point x="68" y="740" type="line"/>
      <point x="415" y="740" type="line"/>
      <point x="415" y="707" type="line"/>
      <point x="454" y="707" type="line"/>
      <point x="454" y="667" type="line"/>
      <point x="492" y="667" type="line"/>
      <point x="492" y="625" type="line"/>
      <point x="526" y="625" type="line"/>
      <point x="526" y="384" type="line"/>
      <point x="491" y="384" type="line"/>
      <point x="491" y="341" type="line"/>
      <point x="451" y="341" type="line"/>
      <point x="451" y="304" type="line"/>
      <point x="408" y="304" type="line"/>
      <point x="408" y="260" type="line"/>
      <point x="363" y="260" type="line"/>
      <point x="363" y="219" type="line"/>
      <point x="320" y="219" type="line"/>
      <point x="320" y="181" type="line"/>
      <point x="508" y="181" type="line"/>
      <point x="508" y="147" type="line"/>
      <point x="544" y="147" type="line"/>
      <point x="544" y="46" type="line"/>
      <point x="508" y="46" type="line"/>
      <point x="508" y="10" type="line"/>
      <point x="68" y="10" type="line"/>
      <point x="68" y="46" type="line"/>
      <point x="30" y="46" type="line"/>
      <point x="30" y="219" type="line"/>
      <point x="75" y="219" type="line"/>
      <point x="75" y="260" type="line"/>
      <point x="118" y="260" type="line"/>
    </contour>
  </outline>
</glyph>
<glyph name="three" format="2">
  <advance width="600"/>
  <unicode hex="0033"/>
  <outline>
    <contour>
      <point x="482" y="700" type="line"/>
      <point x="482" y="658" type="line"/>
      <point x="524" y="658" type="line"/>
      <point x="524" y="618" type="line"/>
      <point x="560" y="618" type="line"/>
      <point x="560" y="442" type="line"/>
      <point x="524" y="442" type="line"/>
      <point x="524" y="400" type="line"/>
      <point x="491" y="400" type="line"/>
      <point x="491" y="350" type="line"/>
      <point x="524" y="350" type="line"/>
      <point x="524" y="307" type="line"/>
      <point x="560" y="307" type="line"/>
      <point x="560" y="132" type="line"/>
      <point x="524" y="132" type="line"/>
      <point x="524" y="92" type="line"/>
      <point x="482" y="92" type="line"/>
      <point x="482" y="49" type="line"/>
      <point x="440" y="49" type="line"/>
      <point x="440" y="10" type="line"/>
      <point x="67" y="10" type="line"/>
      <point x="67" y="45" type="line"/>
      <point x="30" y="45" type="line"/>
      <point x="30" y="147" type="line"/>
      <point x="67" y="147" type="line"/>
      <point x="67" y="181" type="line"/>
      <point x="328" y="181" type="line"/>
      <point x="328" y="214" type="line"/>
      <point x="358" y="214" type="line"/>
      <point x="358" y="255" type="line"/>
      <point x="328" y="255" type="line"/>
      <point x="328" y="287" type="line"/>
      <point x="127" y="287" type="line"/>
      <point x="127" y="320" type="line"/>
      <point x="90" y="320" type="line"/>
      <point x="90" y="429" type="line"/>
      <point x="127" y="429" type="line"/>
      <point x="127" y="462" type="line"/>
      <point x="328" y="462" type="line"/>
      <point x="328" y="495" type="line"/>
      <point x="358" y="495" type="line"/>
      <point x="358" y="536" type="line"/>
      <point x="328" y="536" type="line"/>
      <point x="328" y="568" type="line"/>
      <point x="67" y="568" type="line"/>
      <point x="67" y="603" type="line"/>
      <point x="30" y="603" type="line"/>
      <point x="30" y="704" type="line"/>
      <point x="67" y="704" type="line"/>
      <point x="67" y="740" type="line"/>
      <point x="440" y="740" type="line"/>
      <point x="440" y="700" type="line"/>
    </contour>
  </outline>
</glyph>
<glyph name="four" format="2">
  <advance width="640"/>
  <unicode hex="0034"/>
  <outline>
    <contour>
      <point x="293" y="506" type="line"/>
      <point x="293" y="458" type="line"/>
      <point x="251" y="458" type="line"/>
      <point x="251" y="411" type="line"/>
      <point x="210" y="411" type="line"/>
      <point x="210" y="349" type="line"/>
      <point x="331" y="349" type="line"/>
      <point x="331" y="506" type="line"/>
    </contour>
    <contour>
      <point x="71" y="481" type="line"/>
      <point x="71" y="523" type="line"/>
      <point x="114" y="523" type="line"/>
      <point x="114" y="572" type="line"/>
      <point x="158" y="572" type="line"/>
      <point x="158" y="614" type="line"/>
      <point x="202" y="614" type="line"/>
      <point x="202" y="657" type="line"/>
      <point x="250" y="657" type="line"/>
      <point x="250" y="700" type="line"/>
      <point x="292" y="700" type="line"/>
      <point x="292" y="740" type="line"/>
      <point x="480" y="740" type="line"/>
      <point x="480" y="699" type="line"/>
      <point x="516" y="699" type="line"/>
      <point x="516" y="349" type="line"/>
      <point x="587" y="349" type="line"/>
      <point x="587" y="312" type="line"/>
      <point x="624" y="312" type="line"/>
      <point x="624" y="217" type="line"/>
      <point x="587" y="217" type="line"/>
      <point x="587" y="181" type="line"/>
      <point x="516" y="181" type="line"/>
      <point x="516" y="48" type="line"/>
      <point x="480" y="48" type="line"/>
      <point x="480" y="10" type="line"/>
      <point x="370" y="10" type="line"/>
      <point x="370" y="48" type="line"/>
      <point x="333" y="48" type="line"/>
      <point x="333" y="181" type="line"/>
      <point x="70" y="181" type="line"/>
      <point x="70" y="217" type="line"/>
      <point x="30" y="217" type="line"/>
      <point x="30" y="481" type="line"/>
    </contour>
  </outline>
</glyph>
<glyph name="five" format="2">
  <advance width="580"/>
  <unicode hex="0035"/>
  <outline>
    <contour>
      <point x="74" y="706" type="line"/>
      <point x="74" y="740" type="line"/>
      <point x="500" y="740" type="line"/>
      <point x="500" y="706" type="line"/>
      <point x="534" y="706" type="line"/>
      <point x="534" y="603" type="line"/>
      <point x="500" y="603" type="line"/>
      <point x="500" y="569" type="line"/>
      <point x="241" y="569" type="line"/>
      <point x="241" y="481" type="line"/>
      <point x="434" y="481" type="line"/>
      <point x="434" y="441" type="line"/>
      <point x="473" y="441" type="line"/>
      <point x="473" y="398" type="line"/>
      <point x="511" y="398" type="line"/>
      <point x="511" y="357" type="line"/>
      <point x="545" y="357" type="line"/>
      <point x="545" y="146" type="line"/>
      <point x="511" y="146" type="line"/>
      <point x="511" y="83" type="line"/>
      <point x="473" y="83" type="line"/>
      <point x="473" y="43" type="line"/>
      <point x="434" y="43" type="line"/>
      <point x="434" y="10" type="line"/>
      <point x="77" y="10" type="line"/>
      <point x="77" y="43" type="line"/>
      <point x="40" y="43" type="line"/>
      <point x="40" y="146" type="line"/>
      <point x="77" y="146" type="line"/>
      <point x="77" y="182" type="line"/>
      <point x="301" y="182" type="line"/>
      <point x="301" y="217" type="line"/>
      <point x="342" y="217" type="line"/>
      <point x="342" y="275" type="line"/>
      <point x="301" y="275" type="line"/>
      <point x="301" y="310" type="line"/>
      <point x="77" y="310" type="line"/>
      <point x="77" y="345" type="line"/>
      <point x="40" y="345" type="line"/>
      <point x="40" y="706" type="line"/>
    </contour>
  </outline>
</glyph>
<glyph name="six" format="2">
  <advance width="620"/>
  <unicode hex="0036"/>
  <outline>
    <contour>
      <point x="418" y="273" type="line"/>
      <point x="387" y="273" type="line"/>
      <point x="387" y="309" type="line"/>
      <point x="250" y="309" type="line"/>
      <point x="250" y="273" type="line"/>
      <point x="219" y="273" type="line"/>
      <point x="219" y="221" type="line"/>
      <point x="250" y="221" type="line"/>
      <point x="250" y="185" type="line"/>
      <point x="387" y="185" type="line"/>
      <point x="387" y="221" type="line"/>
      <point x="418" y="221" type="line"/>
    </contour>
    <contour>
      <point x="80" y="614" type="line"/>
      <point x="80" y="657" type="line"/>
      <point x="118" y="657" type="line"/>
      <point x="118" y="700" type="line"/>
      <point x="156" y="700" type="line"/>
      <point x="156" y="740" type="line"/>
      <point x="528" y="740" type="line"/>
      <point x="528" y="700" type="line"/>
      <point x="565" y="700" type="line"/>
      <point x="565" y="609" type="line"/>
      <point x="528" y="609" type="line"/>
      <point x="528" y="567" type="line"/>
      <point x="253" y="567" type="line"/>
      <point x="253" y="531" type="line"/>
      <point x="217" y="531" type="line"/>
      <point x="217" y="479" type="line"/>
      <point x="473" y="479" type="line"/>
      <point x="473" y="445" type="line"/>
      <point x="510" y="445" type="line"/>
      <point x="510" y="406" type="line"/>
      <point x="548" y="406" type="line"/>
      <point x="548" y="368" type="line"/>
      <point x="586" y="368" type="line"/>
      <point x="586" y="122" type="line"/>
      <point x="548" y="122" type="line"/>
      <point x="548" y="83" type="line"/>
      <point x="510" y="83" type="line"/>
      <point x="510" y="45" type="line"/>
      <point x="473" y="45" type="line"/>
      <point x="473" y="10" type="line"/>
      <point x="157" y="10" type="line"/>
      <point x="157" y="45" type="line"/>
      <point x="119" y="45" type="line"/>
      <point x="119" y="83" type="line"/>
      <point x="80" y="83" type="line"/>
      <point x="80" y="122" type="line"/>
      <point x="42" y="122" type="line"/>
      <point x="42" y="614" type="line"/>
    </contour>
  </outline>
</glyph>
<glyph name="seven" format="2">
  <advance width="560"/>
  <unicode hex="0037"/>
  <outline>
    <contour>
      <point x="501" y="482" type="line"/>
      <point x="501" y="420" type="line"/>
      <point x="463" y="420" type="line"/>
      <point x="463" y="356" type="line"/>
      <point x="424" y="356" type="line"/>
      <point x="424" y="295" type="line"/>
      <point x="385" y="295" type="line"/>
      <point x="385" y="236" type="line"/>
      <point x="346" y="236" type="line"/>
      <point x="346" y="173" type="line"/>
      <point x="310" y="173" type="line"/>
      <point x="310" y="110" type="line"/>
      <point x="272" y="110" type="line"/>
      <point x="272" y="50" type="line"/>
      <point x="239" y="50" type="line"/>
      <point x="239" y="10" type="line"/>
      <point x="118" y="10" type="line"/>
      <point x="118" y="50" type="line"/>
      <point x="81" y="50" type="line"/>
      <point x="81" y="236" type="line"/>
      <point x="124" y="236" type="line"/>
      <point x="124" y="295" type="line"/>
      <point x="169" y="295" type="line"/>
      <point x="169" y="356" type="line"/>
      <point x="213" y="356" type="line"/>
      <point x="213" y="420" type="line"/>
      <point x="252" y="420" type="line"/>
      <point x="252" y="482" type="line"/>
      <point x="295" y="482" type="line"/>
      <point x="295" y="561" type="line"/>
      <point x="43" y="561" type="line"/>
      <point x="43" y="595" type="line"/>
      <point x="10" y="595" type="line"/>
      <point x="10" y="709" type="line"/>
      <point x="43" y="709" type="line"/>
      <point x="43" y="742" type="line"/>
      <point x="507" y="742" type="line"/>
      <point x="507" y="709" type="line"/>
      <point x="540" y="709" type="line"/>
      <point x="540" y="482" type="line"/>
    </contour>
  </outline>
</glyph>
<glyph name="eight" format="2">
  <advance width="620"/>
  <unicode hex="0038"/>
  <outline>
    <contour>
      <point x="250" y="250" type="line"/>
      <point x="220" y="250" type="line"/>
      <point x="220" y="206" type="line"/>
      <point x="250" y="206" type="line"/>
      <point x="250" y="174" type="line"/>
      <point x="367" y="174" type="line"/>
      <point x="367" y="206" type="line"/>
      <point x="397" y="206" type="line"/>
      <point x="397" y="250" type="line"/>
      <point x="367" y="250" type="line"/>
      <point x="367" y="282" type="line"/>
      <point x="250" y="282" type="line"/>
    </contour>
    <contour>
      <point x="260" y="541" type="line"/>
      <point x="230" y="541" type="line"/>
      <point x="230" y="497" type="line"/>
      <point x="260" y="497" type="line"/>
      <point x="260" y="465" type="line"/>
      <point x="357" y="465" type="line"/>
      <point x="357" y="497" type="line"/>
      <point x="387" y="497" type="line"/>
      <point x="387" y="541" type="line"/>
      <point x="357" y="541" type="line"/>
      <point x="357" y="573" type="line"/>
      <point x="260" y="573" type="line"/>
    </contour>
    <contour>
      <point x="143" y="49" type="line"/>
      <point x="101" y="49" type="line"/>
      <point x="101" y="92" type="line"/>
      <point x="59" y="92" type="line"/>
      <point x="59" y="142" type="line"/>
      <point x="28" y="142" type="line"/>
      <point x="28" y="305" type="line"/>
      <point x="59" y="305" type="line"/>
      <point x="59" y="350" type="line"/>
      <point x="102" y="350" type="line"/>
      <point x="102" y="400" type="line"/>
      <point x="69" y="400" type="line"/>
      <point x="69" y="442" type="line"/>
      <point x="38" y="442" type="line"/>
      <point x="38" y="608" type="line"/>
      <point x="69" y="608" type="line"/>
      <point x="69" y="658" type="line"/>
      <point x="111" y="658" type="line"/>
      <point x="111" y="699" type="line"/>
      <point x="153" y="699" type="line"/>
      <point x="153" y="740" type="line"/>
      <point x="464" y="740" type="line"/>
      <point x="464" y="699" type="line"/>
      <point x="506" y="699" type="line"/>
      <point x="506" y="658" type="line"/>
      <point x="548" y="658" type="line"/>
      <point x="548" y="608" type="line"/>
      <point x="579" y="608" type="line"/>
      <point x="579" y="442" type="line"/>
      <point x="548" y="442" type="line"/>
      <point x="548" y="400" type="line"/>
      <point x="515" y="400" type="line"/>
      <point x="515" y="350" type="line"/>
      <point x="558" y="350" type="line"/>
      <point x="558" y="305" type="line"/>
      <point x="589" y="305" type="line"/>
      <point x="589" y="142" type="line"/>
      <point x="558" y="142" type="line"/>
      <point x="558" y="92" type="line"/>
      <point x="516" y="92" type="line"/>
      <point x="516" y="49" type="line"/>
      <point x="474" y="49" type="line"/>
      <point x="474" y="10" type="line"/>
      <point x="143" y="10" type="line"/>
    </contour>
  </outline>
</glyph>
<glyph name="nine" format="2">
  <advance width="620"/>
  <unicode hex="0039"/>
  <outline>
    <contour>
      <point x="210" y="477" type="line"/>
      <point x="241" y="477" type="line"/>
      <point x="241" y="441" type="line"/>
      <point x="378" y="441" type="line"/>
      <point x="378" y="477" type="line"/>
      <point x="409" y="477" type="line"/>
      <point x="409" y="529" type="line"/>
      <point x="378" y="529" type="line"/>
      <point x="378" y="565" type="line"/>
      <point x="241" y="565" type="line"/>
      <point x="241" y="529" type="line"/>
      <point x="210" y="529" type="line"/>
    </contour>
    <contour>
      <point x="548" y="136" type="line"/>
      <point x="548" y="93" type="line"/>
      <point x="510" y="93" type="line"/>
      <point x="510" y="50" type="line"/>
      <point x="472" y="50" type="line"/>
      <point x="472" y="10" type="line"/>
      <point x="100" y="10" type="line"/>
      <point x="100" y="50" type="line"/>
      <point x="63" y="50" type="line"/>
      <point x="63" y="141" type="line"/>
      <point x="100" y="141" type="line"/>
      <point x="100" y="183" type="line"/>
      <point x="375" y="183" type="line"/>
      <point x="375" y="219" type="line"/>
      <point x="411" y="219" type="line"/>
      <point x="411" y="271" type="line"/>
      <point x="155" y="271" type="line"/>
      <point x="155" y="305" type="line"/>
      <point x="118" y="305" type="line"/>
      <point x="118" y="344" type="line"/>
      <point x="80" y="344" type="line"/>
      <point x="80" y="382" type="line"/>
      <point x="42" y="382" type="line"/>
      <point x="42" y="628" type="line"/>
      <point x="80" y="628" type="line"/>
      <point x="80" y="667" type="line"/>
      <point x="118" y="667" type="line"/>
      <point x="118" y="705" type="line"/>
      <point x="155" y="705" type="line"/>
      <point x="155" y="740" type="line"/>
      <point x="471" y="740" type="line"/>
      <point x="471" y="705" type="line"/>
      <point x="509" y="705" type="line"/>
      <point x="509" y="667" type="line"/>
      <point x="548" y="667" type="line"/>
      <point x="548" y="628" type="line"/>
      <point x="586" y="628" type="line"/>
      <point x="586" y="136" type="line"/>
    </contour>
  </outline>
</glyph>
<glyph name="colon" format="2">
  <advance width="310"/>
  <unicode hex="003A"/>
  <outline>
    <contour>
      <point x="213" y="271" type="line"/>
      <point x="245" y="271" type="line"/>
      <point x="245" y="152" type="line"/>
      <point x="213" y="152" type="line"/>
      <point x="213" y="120" type="line"/>
      <point x="97" y="120" type="line"/>
      <point x="97" y="152" type="line"/>
      <point x="65" y="152" type="line"/>
      <point x="65" y="271" type="line"/>
      <point x="97" y="271" type="line"/>
      <point x="97" y="303" type="line"/>
      <point x="213" y="303" type="line"/>
    </contour>
    <contour>
      <point x="213" y="631" type="line"/>
      <point x="245" y="631" type="line"/>
      <point x="245" y="512" type="line"/>
      <point x="213" y="512" type="line"/>
      <point x="213" y="480" type="line"/>
      <point x="97" y="480" type="line"/>
      <point x="97" y="512" type="line"/>
      <point x="65" y="512" type="line"/>
      <point x="65" y="631" type="line"/>
      <point x="97" y="631" type="line"/>
      <point x="97" y="663" type="line"/>
      <point x="213" y="663" type="line"/>
    </contour>
  </outline>
</glyph>
<glyph name="semicolon" format="2">
  <advance width="310"/>
  <unicode hex="003B"/>
  <outline>
    <contour>
      <point x="213" y="631" type="line"/>
      <point x="245" y="631" type="line"/>
      <point x="245" y="512" type="line"/>
      <point x="213" y="512" type="line"/>
      <point x="213" y="480" type="line"/>
      <point x="97" y="480" type="line"/>
      <point x="97" y="512" type="line"/>
      <point x="65" y="512" type="line"/>
      <point x="65" y="631" type="line"/>
      <point x="97" y="631" type="line"/>
      <point x="97" y="663" type="line"/>
      <point x="213" y="663" type="line"/>
    </contour>
    <contour>
      <point x="246" y="271" type="line"/>
      <point x="246" y="157" type="line"/>
      <point x="214" y="157" type="line"/>
      <point x="214" y="120" type="line"/>
      <point x="178" y="120" type="line"/>
      <point x="178" y="80" type="line"/>
      <point x="66" y="80" type="line"/>
      <point x="66" y="120" type="line"/>
      <point x="98" y="120" type="line"/>
      <point x="98" y="157" type="line"/>
      <point x="66" y="157" type="line"/>
      <point x="66" y="271" type="line"/>
      <point x="98" y="271" type="line"/>
      <point x="98" y="303" type="line"/>
      <point x="214" y="303" type="line"/>
      <point x="214" y="271" type="line"/>
    </contour>
  </outline>
</glyph>
<glyph name="less" format="2">
  <advance width="444"/>
  <unicode hex="003C"/>
  <outline>
    <contour>
      <point x="66" y="286" type="line"/>
      <point x="66" y="338" type="line"/>
      <point x="30" y="338" type="line"/>
      <point x="30" y="413" type="line"/>
      <point x="66" y="413" type="line"/>
      <point x="66" y="464" type="line"/>
      <point x="98" y="464" type="line"/>
      <point x="98" y="514" type="line"/>
      <point x="132" y="514" type="line"/>
      <point x="132" y="563" type="line"/>
      <point x="166" y="563" type="line"/>
      <point x="166" y="612" type="line"/>
      <point x="201" y="612" type="line"/>
      <point x="201" y="661" type="line"/>
      <point x="235" y="661" type="line"/>
      <point x="235" y="710" type="line"/>
      <point x="274" y="710" type="line"/>
      <point x="274" y="750" type="line"/>
      <point x="387" y="750" type="line"/>
      <point x="387" y="710" type="line"/>
      <point x="419" y="710" type="line"/>
      <point x="419" y="612" type="line"/>
      <point x="387" y="612" type="line"/>
      <point x="387" y="563" type="line"/>
      <point x="353" y="563" type="line"/>
      <point x="353" y="514" type="line"/>
      <point x="320" y="514" type="line"/>
      <point x="320" y="464" type="line"/>
      <point x="285" y="464" type="line"/>
      <point x="285" y="413" type="line"/>
      <point x="249" y="413" type="line"/>
      <point x="249" y="338" type="line"/>
      <point x="285" y="338" type="line"/>
      <point x="285" y="286" type="line"/>
      <point x="320" y="286" type="line"/>
      <point x="320" y="236" type="line"/>
      <point x="353" y="236" type="line"/>
      <point x="353" y="187" type="line"/>
      <point x="387" y="187" type="line"/>
      <point x="387" y="139" type="line"/>
      <point x="419" y="139" type="line"/>
      <point x="419" y="39" type="line"/>
      <point x="387" y="39" type="line"/>
      <point x="387" y="0" type="line"/>
      <point x="274" y="0" type="line"/>
      <point x="274" y="39" type="line"/>
      <point x="235" y="39" type="line"/>
      <point x="235" y="88" type="line"/>
      <point x="201" y="88" type="line"/>
      <point x="201" y="139" type="line"/>
      <point x="166" y="139" type="line"/>
      <point x="166" y="187" type="line"/>
      <point x="132" y="187" type="line"/>
      <point x="132" y="236" type="line"/>
      <point x="98" y="236" type="line"/>
      <point x="98" y="286" type="line"/>
    </contour>
  </outline>
</glyph>
<glyph name="equal" format="2">
  <advance width="500"/>
  <unicode hex="003D"/>
  <outline>
    <contour>
      <point x="40" y="548" type="line"/>
      <point x="73" y="548" type="line"/>
      <point x="73" y="581" type="line"/>
      <point x="417" y="581" type="line"/>
      <point x="417" y="548" type="line"/>
      <point x="450" y="548" type="line"/>
      <point x="450" y="436" type="line"/>
      <point x="417" y="436" type="line"/>
      <point x="417" y="403" type="line"/>
      <point x="73" y="403" type="line"/>
      <point x="73" y="436" type="line"/>
      <point x="40" y="436" type="line"/>
    </contour>
    <contour>
      <point x="40" y="299" type="line"/>
      <point x="73" y="299" type="line"/>
      <point x="73" y="332" type="line"/>
      <point x="417" y="332" type="line"/>
      <point x="417" y="299" type="line"/>
      <point x="450" y="299" type="line"/>
      <point x="450" y="187" type="line"/>
      <point x="417" y="187" type="line"/>
      <point x="417" y="154" type="line"/>
      <point x="73" y="154" type="line"/>
      <point x="73" y="187" type="line"/>
      <point x="40" y="187" type="line"/>
    </contour>
  </outline>
</glyph>
<glyph name="greater" format="2">
  <advance width="444"/>
  <unicode hex="003E"/>
  <outline>
    <contour>
      <point x="351" y="236" type="line"/>
      <point x="317" y="236" type="line"/>
      <point x="317" y="187" type="line"/>
      <point x="283" y="187" type="line"/>
      <point x="283" y="139" type="line"/>
      <point x="248" y="139" type="line"/>
      <point x="248" y="88" type="line"/>
      <point x="214" y="88" type="line"/>
      <point x="214" y="39" type="line"/>
      <point x="175" y="39" type="line"/>
      <point x="175" y="0" type="line"/>
      <point x="62" y="0" type="line"/>
      <point x="62" y="39" type="line"/>
      <point x="30" y="39" type="line"/>
      <point x="30" y="139" type="line"/>
      <point x="62" y="139" type="line"/>
      <point x="62" y="187" type="line"/>
      <point x="96" y="187" type="line"/>
      <point x="96" y="236" type="line"/>
      <point x="129" y="236" type="line"/>
      <point x="129" y="286" type="line"/>
      <point x="164" y="286" type="line"/>
      <point x="164" y="338" type="line"/>
      <point x="200" y="338" type="line"/>
      <point x="200" y="413" type="line"/>
      <point x="164" y="413" type="line"/>
      <point x="164" y="464" type="line"/>
      <point x="129" y="464" type="line"/>
      <point x="129" y="514" type="line"/>
      <point x="96" y="514" type="line"/>
      <point x="96" y="563" type="line"/>
      <point x="62" y="563" type="line"/>
      <point x="62" y="612" type="line"/>
      <point x="30" y="612" type="line"/>
      <point x="30" y="710" type="line"/>
      <point x="62" y="710" type="line"/>
      <point x="62" y="750" type="line"/>
      <point x="175" y="750" type="line"/>
      <point x="175" y="710" type="line"/>
      <point x="214" y="710" type="line"/>
      <point x="214" y="661" type="line"/>
      <point x="248" y="661" type="line"/>
      <point x="248" y="612" type="line"/>
      <point x="283" y="612" type="line"/>
      <point x="283" y="563" type="line"/>
      <point x="317" y="563" type="line"/>
      <point x="317" y="514" type="line"/>
      <point x="351" y="514" type="line"/>
      <point x="351" y="464" type="line"/>
      <point x="383" y="464" type="line"/>
      <point x="383" y="413" type="line"/>
      <point x="419" y="413" type="line"/>
      <point x="419" y="338" type="line"/>
      <point x="383" y="338" type="line"/>
      <point x="383" y="286" type="line"/>
      <point x="351" y="286" type="line"/>
    </contour>
  </outline>
</glyph>
<glyph name="question" format="2">
  <advance width="480"/>
  <unicode hex="003F"/>
  <outline>
    <contour>
      <point x="472" y="423" type="line"/>
      <point x="443" y="423" type="line"/>
      <point x="443" y="394" type="line"/>
      <point x="415" y="394" type="line"/>
      <point x="415" y="365" type="line"/>
      <point x="386" y="365" type="line"/>
      <point x="386" y="336" type="line"/>
      <point x="313" y="336" type="line"/>
      <point x="313" y="269" type="line"/>
      <point x="284" y="269" type="line"/>
      <point x="284" y="239" type="line"/>
      <point x="166" y="239" type="line"/>
      <point x="166" y="269" type="line"/>
      <point x="137" y="269" type="line"/>
      <point x="137" y="442" type="line"/>
      <point x="166" y="442" type="line"/>
      <point x="166" y="472" type="line"/>
      <point x="282" y="472" type="line"/>
      <point x="282" y="495" type="line"/>
      <point x="306" y="495" type="line"/>
      <point x="306" y="583" type="line"/>
      <point x="282" y="583" type="line"/>
      <point x="282" y="607" type="line"/>
      <point x="200" y="607" type="line"/>
      <point x="200" y="583" type="line"/>
      <point x="176" y="583" type="line"/>
      <point x="176" y="536" type="line"/>
      <point x="147" y="536" type="line"/>
      <point x="147" y="507" type="line"/>
      <point x="39" y="507" type="line"/>
      <point x="39" y="536" type="line"/>
      <point x="10" y="536" type="line"/>
      <point x="10" y="675" type="line"/>
      <point x="39" y="675" type="line"/>
      <point x="39" y="704" type="line"/>
      <point x="67" y="704" type="line"/>
      <point x="67" y="733" type="line"/>
      <point x="96" y="733" type="line"/>
      <point x="96" y="762" type="line"/>
      <point x="386" y="762" type="line"/>
      <point x="386" y="733" type="line"/>
      <point x="415" y="733" type="line"/>
      <point x="415" y="704" type="line"/>
      <point x="443" y="704" type="line"/>
      <point x="443" y="675" type="line"/>
      <point x="472" y="675" type="line"/>
    </contour>
    <contour>
      <point x="282" y="161" type="line"/>
      <point x="314" y="161" type="line"/>
      <point x="314" y="42" type="line"/>
      <point x="282" y="42" type="line"/>
      <point x="282" y="10" type="line"/>
      <point x="166" y="10" type="line"/>
      <point x="166" y="42" type="line"/>
      <point x="134" y="42" type="line"/>
      <point x="134" y="161" type="line"/>
      <point x="166" y="161" type="line"/>
      <point x="166" y="193" type="line"/>
      <point x="282" y="193" type="line"/>
    </contour>
  </outline>
</glyph>
<glyph name="A" format="2">
  <advance width="680"/>
  <unicode hex="0041"/>
  <outline>
    <contour>
      <point x="441" y="458" type="line"/>
      <point x="400" y="458" type="line"/>
      <point x="400" y="518" type="line"/>
      <point x="360" y="518" type="line"/>
      <point x="360" y="566" type="line"/>
      <point x="305" y="566" type="line"/>
      <point x="305" y="518" type="line"/>
      <point x="265" y="518" type="line"/>
      <point x="265" y="458" type="line"/>
      <point x="224" y="458" type="line"/>
      <point x="224" y="395" type="line"/>
      <point x="441" y="395" type="line"/>
    </contour>
    <contour>
      <point x="224" y="219" type="line"/>
      <point x="224" y="41" type="line"/>
      <point x="183" y="41" type="line"/>
      <point x="183" y="0" type="line"/>
      <point x="73" y="0" type="line"/>
      <point x="73" y="41" type="line"/>
      <point x="30" y="41" type="line"/>
      <point x="30" y="528" type="line"/>
      <point x="73" y="528" type="line"/>
      <point x="73" y="590" type="line"/>
      <point x="114" y="590" type="line"/>
      <point x="114" y="649" type="line"/>
      <point x="154" y="649" type="line"/>
      <point x="154" y="708" type="line"/>
      <point x="195" y="708" type="line"/>
      <point x="195" y="750" type="line"/>
      <point x="470" y="750" type="line"/>
      <point x="470" y="708" type="line"/>
      <point x="511" y="708" type="line"/>
      <point x="511" y="649" type="line"/>
      <point x="551" y="649" type="line"/>
      <point x="551" y="590" type="line"/>
      <point x="592" y="590" type="line"/>
      <point x="592" y="528" type="line"/>
      <point x="636" y="528" type="line"/>
      <point x="636" y="41" type="line"/>
      <point x="594" y="41" type="line"/>
      <point x="594" y="0" type="line"/>
      <point x="485" y="0" type="line"/>
      <point x="485" y="41" type="line"/>
      <point x="441" y="41" type="line"/>
      <point x="441" y="219" type="line"/>
    </contour>
  </outline>
</glyph>
<glyph name="B" format="2">
  <advance width="650"/>
  <unicode hex="0042"/>
  <outline>
    <contour>
      <point x="226" y="286" type="line"/>
      <point x="226" y="167" type="line"/>
      <point x="380" y="167" type="line"/>
      <point x="380" y="197" type="line"/>
      <point x="415" y="197" type="line"/>
      <point x="415" y="256" type="line"/>
      <point x="380" y="256" type="line"/>
      <point x="380" y="286" type="line"/>
    </contour>
    <contour>
      <point x="226" y="584" type="line"/>
      <point x="226" y="465" type="line"/>
      <point x="380" y="465" type="line"/>
      <point x="380" y="495" type="line"/>
      <point x="415" y="495" type="line"/>
      <point x="415" y="554" type="line"/>
      <point x="380" y="554" type="line"/>
      <point x="380" y="584" type="line"/>
    </contour>
    <contour>
      <point x="569" y="353" type="line"/>
      <point x="569" y="307" type="line"/>
      <point x="611" y="307" type="line"/>
      <point x="611" y="131" type="line"/>
      <point x="569" y="131" type="line"/>
      <point x="569" y="86" type="line"/>
      <point x="523" y="86" type="line"/>
      <point x="523" y="40" type="line"/>
      <point x="476" y="40" type="line"/>
      <point x="476" y="0" type="line"/>
      <point x="73" y="0" type="line"/>
      <point x="73" y="43" type="line"/>
      <point x="30" y="43" type="line"/>
      <point x="30" y="707" type="line"/>
      <point x="73" y="707" type="line"/>
      <point x="73" y="750" type="line"/>
      <point x="476" y="750" type="line"/>
      <point x="476" y="710" type="line"/>
      <point x="523" y="710" type="line"/>
      <point x="523" y="664" type="line"/>
      <point x="569" y="664" type="line"/>
      <point x="569" y="619" type="line"/>
      <point x="611" y="619" type="line"/>
      <point x="611" y="443" type="line"/>
      <point x="569" y="443" type="line"/>
      <point x="569" y="397" type="line"/>
      <point x="523" y="397" type="line"/>
      <point x="523" y="353" type="line"/>
    </contour>
  </outline>
</glyph>
<glyph name="C" format="2">
  <advance width="620"/>
  <unicode hex="0043"/>
  <outline>
    <contour>
      <point x="287" y="237" type="line"/>
      <point x="287" y="194" type="line"/>
      <point x="540" y="194" type="line"/>
      <point x="540" y="154" type="line"/>
      <point x="585" y="154" type="line"/>
      <point x="585" y="41" type="line"/>
      <point x="540" y="41" type="line"/>
      <point x="540" y="0" type="line"/>
      <point x="165" y="0" type="line"/>
      <point x="165" y="41" type="line"/>
      <point x="118" y="41" type="line"/>
      <point x="118" y="92" type="line"/>
      <point x="71" y="92" type="line"/>
      <point x="71" y="142" type="line"/>
      <point x="30" y="142" type="line"/>
      <point x="30" y="608" type="line"/>
      <point x="71" y="608" type="line"/>
      <point x="71" y="658" type="line"/>
      <point x="118" y="658" type="line"/>
      <point x="118" y="709" type="line"/>
      <point x="165" y="709" type="line"/>
      <point x="165" y="750" type="line"/>
      <point x="540" y="750" type="line"/>
      <point x="540" y="709" type="line"/>
      <point x="585" y="709" type="line"/>
      <point x="585" y="596" type="line"/>
      <point x="540" y="596" type="line"/>
      <point x="540" y="556" type="line"/>
      <point x="287" y="556" type="line"/>
      <point x="287" y="513" type="line"/>
      <point x="237" y="513" type="line"/>
      <point x="237" y="237" type="line"/>
    </contour>
  </outline>
</glyph>
<glyph name="D" format="2">
  <advance width="650"/>
  <unicode hex="0044"/>
  <outline>
    <contour>
      <point x="231" y="552" type="line"/>
      <point x="231" y="198" type="line"/>
      <point x="365" y="198" type="line"/>
      <point x="365" y="240" type="line"/>
      <point x="405" y="240" type="line"/>
      <point x="405" y="509" type="line"/>
      <point x="365" y="509" type="line"/>
      <point x="365" y="552" type="line"/>
    </contour>
    <contour>
      <point x="523" y="40" type="line"/>
      <point x="476" y="40" type="line"/>
      <point x="476" y="0" type="line"/>
      <point x="73" y="0" type="line"/>
      <point x="73" y="43" type="line"/>
      <point x="30" y="43" type="line"/>
      <point x="30" y="707" type="line"/>
      <point x="73" y="707" type="line"/>
      <point x="73" y="750" type="line"/>
      <point x="476" y="750" type="line"/>
      <point x="476" y="710" type="line"/>
      <point x="523" y="710" type="line"/>
      <point x="523" y="664" type="line"/>
      <point x="569" y="664" type="line"/>
      <point x="569" y="619" type="line"/>
      <point x="611" y="619" type="line"/>
      <point x="611" y="131" type="line"/>
      <point x="569" y="131" type="line"/>
      <point x="569" y="86" type="line"/>
      <point x="523" y="86" type="line"/>
    </contour>
  </outline>
</glyph>
<glyph name="E" format="2">
  <advance width="600"/>
  <unicode hex="0045"/>
  <outline>
    <contour>
      <point x="518" y="468" type="line"/>
      <point x="518" y="425" type="line"/>
      <point x="561" y="425" type="line"/>
      <point x="561" y="325" type="line"/>
      <point x="518" y="325" type="line"/>
      <point x="518" y="282" type="line"/>
      <point x="226" y="282" type="line"/>
      <point x="226" y="186" type="line"/>
      <point x="518" y="186" type="line"/>
      <point x="518" y="143" type="line"/>
      <point x="561" y="143" type="line"/>
      <point x="561" y="43" type="line"/>
      <point x="518" y="43" type="line"/>
      <point x="518" y="0" type="line"/>
      <point x="73" y="0" type="line"/>
      <point x="73" y="43" type="line"/>
      <point x="30" y="43" type="line"/>
      <point x="30" y="707" type="line"/>
      <point x="73" y="707" type="line"/>
      <point x="73" y="750" type="line"/>
      <point x="518" y="750" type="line"/>
      <point x="518" y="707" type="line"/>
      <point x="561" y="707" type="line"/>
      <point x="561" y="608" type="line"/>
      <point x="518" y="608" type="line"/>
      <point x="518" y="565" type="line"/>
      <point x="226" y="565" type="line"/>
      <point x="226" y="468" type="line"/>
    </contour>
  </outline>
</glyph>
<glyph name="F" format="2">
  <advance width="580"/>
  <unicode hex="0046"/>
  <outline>
    <contour>
      <point x="498" y="458" type="line"/>
      <point x="498" y="415" type="line"/>
      <point x="541" y="415" type="line"/>
      <point x="541" y="305" type="line"/>
      <point x="498" y="305" type="line"/>
      <point x="498" y="262" type="line"/>
      <point x="226" y="262" type="line"/>
      <point x="226" y="43" type="line"/>
      <point x="183" y="43" type="line"/>
      <point x="183" y="0" type="line"/>
      <point x="73" y="0" type="line"/>
      <point x="73" y="43" type="line"/>
      <point x="30" y="43" type="line"/>
      <point x="30" y="707" type="line"/>
      <point x="73" y="707" type="line"/>
      <point x="73" y="750" type="line"/>
      <point x="518" y="750" type="line"/>
      <point x="518" y="707" type="line"/>
      <point x="561" y="707" type="line"/>
      <point x="561" y="598" type="line"/>
      <point x="518" y="598" type="line"/>
      <point x="518" y="555" type="line"/>
      <point x="226" y="555" type="line"/>
      <point x="226" y="458" type="line"/>
    </contour>
  </outline>
</glyph>
<glyph name="G" format="2">
  <advance width="650"/>
  <unicode hex="0047"/>
  <outline>
    <contour>
      <point x="364" y="280" type="line"/>
      <point x="364" y="315" type="line"/>
      <point x="329" y="315" type="line"/>
      <point x="329" y="436" type="line"/>
      <point x="364" y="436" type="line"/>
      <point x="364" y="471" type="line"/>
      <point x="580" y="471" type="line"/>
      <point x="580" y="436" type="line"/>
      <point x="615" y="436" type="line"/>
      <point x="615" y="40" type="line"/>
      <point x="570" y="40" type="line"/>
      <point x="570" y="0" type="line"/>
      <point x="165" y="0" type="line"/>
      <point x="165" y="36" type="line"/>
      <point x="118" y="36" type="line"/>
      <point x="118" y="79" type="line"/>
      <point x="71" y="79" type="line"/>
      <point x="71" y="129" type="line"/>
      <point x="30" y="129" type="line"/>
      <point x="30" y="589" type="line"/>
      <point x="71" y="589" type="line"/>
      <point x="71" y="647" type="line"/>
      <point x="118" y="647" type="line"/>
      <point x="118" y="700" type="line"/>
      <point x="165" y="700" type="line"/>
      <point x="165" y="750" type="line"/>
      <point x="550" y="750" type="line"/>
      <point x="550" y="709" type="line"/>
      <point x="595" y="709" type="line"/>
      <point x="595" y="589" type="line"/>
      <point x="550" y="589" type="line"/>
      <point x="550" y="551" type="line"/>
      <point x="287" y="551" type="line"/>
      <point x="287" y="508" type="line"/>
      <point x="237" y="508" type="line"/>
      <point x="237" y="244" type="line"/>
      <point x="287" y="244" type="line"/>
      <point x="287" y="202" type="line"/>
      <point x="434" y="202" type="line"/>
      <point x="434" y="280" type="line"/>
    </contour>
  </outline>
</glyph>
<glyph name="H" format="2">
  <advance width="650"/>
  <unicode hex="0048"/>
  <outline>
    <contour>
      <point x="410" y="712" type="line"/>
      <point x="448" y="712" type="line"/>
      <point x="448" y="750" type="line"/>
      <point x="568" y="750" type="line"/>
      <point x="568" y="712" type="line"/>
      <point x="606" y="712" type="line"/>
      <point x="606" y="38" type="line"/>
      <point x="568" y="38" type="line"/>
      <point x="568" y="0" type="line"/>
      <point x="448" y="0" type="line"/>
      <point x="448" y="38" type="line"/>
      <point x="410" y="38" type="line"/>
      <point x="410" y="272" type="line"/>
      <point x="226" y="272" type="line"/>
      <point x="226" y="38" type="line"/>
      <point x="183" y="38" type="line"/>
      <point x="183" y="0" type="line"/>
      <point x="68" y="0" type="line"/>
      <point x="68" y="38" type="line"/>
      <point x="30" y="38" type="line"/>
      <point x="30" y="712" type="line"/>
      <point x="68" y="712" type="line"/>
      <point x="68" y="750" type="line"/>
      <point x="183" y="750" type="line"/>
      <point x="183" y="712" type="line"/>
      <point x="226" y="712" type="line"/>
      <point x="226" y="478" type="line"/>
      <point x="410" y="478" type="line"/>
    </contour>
  </outline>
</glyph>
<glyph name="I" format="2">
  <advance width="500"/>
  <unicode hex="0049"/>
  <outline>
    <contour>
      <point x="422" y="186" type="line"/>
      <point x="422" y="148" type="line"/>
      <point x="460" y="148" type="line"/>
      <point x="460" y="38" type="line"/>
      <point x="422" y="38" type="line"/>
      <point x="422" y="0" type="line"/>
      <point x="68" y="0" type="line"/>
      <point x="68" y="38" type="line"/>
      <point x="30" y="38" type="line"/>
      <point x="30" y="148" type="line"/>
      <point x="68" y="148" type="line"/>
      <point x="68" y="186" type="line"/>
      <point x="147" y="186" type="line"/>
      <point x="147" y="565" type="line"/>
      <point x="68" y="565" type="line"/>
      <point x="68" y="603" type="line"/>
      <point x="30" y="603" type="line"/>
      <point x="30" y="713" type="line"/>
      <point x="68" y="713" type="line"/>
      <point x="68" y="751" type="line"/>
      <point x="422" y="751" type="line"/>
      <point x="422" y="713" type="line"/>
      <point x="460" y="713" type="line"/>
      <point x="460" y="603" type="line"/>
      <point x="422" y="603" type="line"/>
      <point x="422" y="565" type="line"/>
      <point x="343" y="565" type="line"/>
      <point x="343" y="186" type="line"/>
    </contour>
  </outline>
</glyph>
<glyph name="J" format="2">
  <advance width="560"/>
  <unicode hex="004A"/>
  <outline>
    <contour>
      <point x="401" y="0" type="line"/>
      <point x="135" y="0" type="line"/>
      <point x="135" y="40" type="line"/>
      <point x="91" y="40" type="line"/>
      <point x="91" y="87" type="line"/>
      <point x="50" y="87" type="line"/>
      <point x="50" y="128" type="line"/>
      <point x="10" y="128" type="line"/>
      <point x="10" y="293" type="line"/>
      <point x="44" y="293" type="line"/>
      <point x="44" y="329" type="line"/>
      <point x="174" y="329" type="line"/>
      <point x="174" y="293" type="line"/>
      <point x="205" y="293" type="line"/>
      <point x="205" y="221" type="line"/>
      <point x="239" y="221" type="line"/>
      <point x="239" y="189" type="line"/>
      <point x="296" y="189" type="line"/>
      <point x="296" y="221" type="line"/>
      <point x="332" y="221" type="line"/>
      <point x="332" y="710" type="line"/>
      <point x="372" y="710" type="line"/>
      <point x="372" y="750" type="line"/>
      <point x="487" y="750" type="line"/>
      <point x="487" y="710" type="line"/>
      <point x="527" y="710" type="line"/>
      <point x="527" y="128" type="line"/>
      <point x="487" y="128" type="line"/>
      <point x="487" y="87" type="line"/>
      <point x="448" y="87" type="line"/>
      <point x="448" y="40" type="line"/>
      <point x="401" y="40" type="line"/>
    </contour>
  </outline>
</glyph>
<glyph name="K" format="2">
  <advance width="590"/>
  <unicode hex="004B"/>
  <outline>
    <contour>
      <point x="376" y="311" type="line"/>
      <point x="420" y="311" type="line"/>
      <point x="420" y="263" type="line"/>
      <point x="464" y="263" type="line"/>
      <point x="464" y="216" type="line"/>
      <point x="508" y="216" type="line"/>
      <point x="508" y="173" type="line"/>
      <point x="547" y="173" type="line"/>
      <point x="547" y="39" type="line"/>
      <point x="508" y="39" type="line"/>
      <point x="508" y="1" type="line"/>
      <point x="397" y="1" type="line"/>
      <point x="397" y="39" type="line"/>
      <point x="357" y="39" type="line"/>
      <point x="357" y="81" type="line"/>
      <point x="313" y="81" type="line"/>
      <point x="313" y="123" type="line"/>
      <point x="269" y="123" type="line"/>
      <point x="269" y="170" type="line"/>
      <point x="226" y="170" type="line"/>
      <point x="226" y="33" type="line"/>
      <point x="193" y="33" type="line"/>
      <point x="193" y="0" type="line"/>
      <point x="63" y="0" type="line"/>
      <point x="63" y="33" type="line"/>
      <point x="30" y="33" type="line"/>
      <point x="30" y="717" type="line"/>
      <point x="63" y="717" type="line"/>
      <point x="63" y="750" type="line"/>
      <point x="193" y="750" type="line"/>
      <point x="193" y="717" type="line"/>
      <point x="226" y="717" type="line"/>
      <point x="226" y="581" type="line"/>
      <point x="269" y="581" type="line"/>
      <point x="269" y="628" type="line"/>
      <point x="313" y="628" type="line"/>
      <point x="313" y="671" type="line"/>
      <point x="357" y="671" type="line"/>
      <point x="357" y="712" type="line"/>
      <point x="397" y="712" type="line"/>
      <point x="397" y="750" type="line"/>
      <point x="508" y="750" type="line"/>
      <point x="508" y="712" type="line"/>
      <point x="547" y="712" type="line"/>
      <point x="547" y="578" type="line"/>
      <point x="508" y="578" type="line"/>
      <point x="508" y="535" type="line"/>
      <point x="464" y="535" type="line"/>
      <point x="464" y="488" type="line"/>
      <point x="420" y="488" type="line"/>
      <point x="420" y="440" type="line"/>
      <point x="376" y="440" type="line"/>
      <point x="376" y="399" type="line"/>
      <point x="340" y="399" type="line"/>
      <point x="340" y="351" type="line"/>
      <point x="376" y="351" type="line"/>
    </contour>
  </outline>
</glyph>
<glyph name="L" format="2">
  <advance width="530"/>
  <unicode hex="004C"/>
  <outline>
    <contour>
      <point x="473" y="206" type="line"/>
      <point x="473" y="168" type="line"/>
      <point x="511" y="168" type="line"/>
      <point x="511" y="38" type="line"/>
      <point x="473" y="38" type="line"/>
      <point x="473" y="0" type="line"/>
      <point x="68" y="0" type="line"/>
      <point x="68" y="38" type="line"/>
      <point x="30" y="38" type="line"/>
      <point x="30" y="712" type="line"/>
      <point x="68" y="712" type="line"/>
      <point x="68" y="750" type="line"/>
      <point x="188" y="750" type="line"/>
      <point x="188" y="712" type="line"/>
      <point x="226" y="712" type="line"/>
      <point x="226" y="206" type="line"/>
    </contour>
  </outline>
</glyph>
<glyph name="M" format="2">
  <advance width="810"/>
  <unicode hex="004D"/>
  <outline>
    <contour>
      <point x="413" y="490" type="line"/>
      <point x="451" y="490" type="line"/>
      <point x="451" y="542" type="line"/>
      <point x="488" y="542" type="line"/>
      <point x="488" y="604" type="line"/>
      <point x="523" y="604" type="line"/>
      <point x="523" y="661" type="line"/>
      <point x="562" y="661" type="line"/>
      <point x="562" y="711" type="line"/>
      <point x="610" y="711" type="line"/>
      <point x="610" y="750" type="line"/>
      <point x="725" y="750" type="line"/>
      <point x="725" y="710" type="line"/>
      <point x="765" y="710" type="line"/>
      <point x="765" y="40" type="line"/>
      <point x="725" y="40" type="line"/>
      <point x="725" y="0" type="line"/>
      <point x="610" y="0" type="line"/>
      <point x="610" y="40" type="line"/>
      <point x="569" y="40" type="line"/>
      <point x="569" y="267" type="line"/>
      <point x="538" y="267" type="line"/>
      <point x="538" y="205" type="line"/>
      <point x="503" y="205" type="line"/>
      <point x="503" y="134" type="line"/>
      <point x="476" y="134" type="line"/>
      <point x="476" y="67" type="line"/>
      <point x="438" y="67" type="line"/>
      <point x="438" y="20" type="line"/>
      <point x="357" y="20" type="line"/>
      <point x="357" y="67" type="line"/>
      <point x="319" y="67" type="line"/>
      <point x="319" y="134" type="line"/>
      <point x="292" y="134" type="line"/>
      <point x="292" y="205" type="line"/>
      <point x="257" y="205" type="line"/>
      <point x="257" y="267" type="line"/>
      <point x="226" y="267" type="line"/>
      <point x="226" y="40" type="line"/>
      <point x="185" y="40" type="line"/>
      <point x="185" y="0" type="line"/>
      <point x="70" y="0" type="line"/>
      <point x="70" y="40" type="line"/>
      <point x="30" y="40" type="line"/>
      <point x="30" y="710" type="line"/>
      <point x="70" y="710" type="line"/>
      <point x="70" y="750" type="line"/>
      <point x="185" y="750" type="line"/>
      <point x="185" y="711" type="line"/>
      <point x="233" y="711" type="line"/>
      <point x="233" y="661" type="line"/>
      <point x="272" y="661" type="line"/>
      <point x="272" y="604" type="line"/>
      <point x="307" y="604" type="line"/>
      <point x="307" y="542" type="line"/>
      <point x="344" y="542" type="line"/>
      <point x="344" y="490" type="line"/>
      <point x="382" y="490" type="line"/>
      <point x="382" y="436" type="line"/>
      <point x="413" y="436" type="line"/>
    </contour>
  </outline>
</glyph>
<glyph name="N" format="2">
  <advance width="620"/>
  <unicode hex="004E"/>
  <outline>
    <contour>
      <point x="390" y="710" type="line"/>
      <point x="430" y="710" type="line"/>
      <point x="430" y="750" type="line"/>
      <point x="546" y="750" type="line"/>
      <point x="546" y="710" type="line"/>
      <point x="586" y="710" type="line"/>
      <point x="586" y="40" type="line"/>
      <point x="546" y="40" type="line"/>
      <point x="546" y="0" type="line"/>
      <point x="430" y="0" type="line"/>
      <point x="430" y="40" type="line"/>
      <point x="390" y="40" type="line"/>
      <point x="390" y="86" type="line"/>
      <point x="356" y="86" type="line"/>
      <point x="356" y="134" type="line"/>
      <point x="321" y="134" type="line"/>
      <point x="321" y="187" type="line"/>
      <point x="287" y="187" type="line"/>
      <point x="287" y="236" type="line"/>
      <point x="253" y="236" type="line"/>
      <point x="253" y="294" type="line"/>
      <point x="226" y="294" type="line"/>
      <point x="226" y="40" type="line"/>
      <point x="186" y="40" type="line"/>
      <point x="186" y="0" type="line"/>
      <point x="70" y="0" type="line"/>
      <point x="70" y="40" type="line"/>
      <point x="30" y="40" type="line"/>
      <point x="30" y="710" type="line"/>
      <point x="70" y="710" type="line"/>
      <point x="70" y="750" type="line"/>
      <point x="186" y="750" type="line"/>
      <point x="186" y="710" type="line"/>
      <point x="226" y="710" type="line"/>
      <point x="226" y="664" type="line"/>
      <point x="263" y="664" type="line"/>
      <point x="263" y="615" type="line"/>
      <point x="297" y="615" type="line"/>
      <point x="297" y="562" type="line"/>
      <point x="331" y="562" type="line"/>
      <point x="331" y="514" type="line"/>
      <point x="364" y="514" type="line"/>
      <point x="364" y="456" type="line"/>
      <point x="390" y="456" type="line"/>
    </contour>
  </outline>
</glyph>
<glyph name="O" format="2">
  <advance width="630"/>
  <unicode hex="004F"/>
  <outline>
    <contour>
      <point x="260" y="537" type="line"/>
      <point x="260" y="494" type="line"/>
      <point x="221" y="494" type="line"/>
      <point x="221" y="256" type="line"/>
      <point x="260" y="256" type="line"/>
      <point x="260" y="213" type="line"/>
      <point x="365" y="213" type="line"/>
      <point x="365" y="256" type="line"/>
      <point x="405" y="256" type="line"/>
      <point x="405" y="494" type="line"/>
      <point x="365" y="494" type="line"/>
      <point x="365" y="537" type="line"/>
    </contour>
    <contour>
      <point x="564" y="142" type="line"/>
      <point x="564" y="91" type="line"/>
      <point x="518" y="91" type="line"/>
      <point x="518" y="40" type="line"/>
      <point x="471" y="40" type="line"/>
      <point x="471" y="0" type="line"/>
      <point x="155" y="0" type="line"/>
      <point x="155" y="40" type="line"/>
      <point x="107" y="40" type="line"/>
      <point x="107" y="91" type="line"/>
      <point x="61" y="91" type="line"/>
      <point x="61" y="142" type="line"/>
      <point x="20" y="142" type="line"/>
      <point x="20" y="608" type="line"/>
      <point x="61" y="608" type="line"/>
      <point x="61" y="659" type="line"/>
      <point x="107" y="659" type="line"/>
      <point x="107" y="710" type="line"/>
      <point x="155" y="710" type="line"/>
      <point x="155" y="750" type="line"/>
      <point x="471" y="750" type="line"/>
      <point x="471" y="710" type="line"/>
      <point x="518" y="710" type="line"/>
      <point x="518" y="659" type="line"/>
      <point x="564" y="659" type="line"/>
      <point x="564" y="608" type="line"/>
      <point x="606" y="608" type="line"/>
      <point x="606" y="142" type="line"/>
    </contour>
  </outline>
</glyph>
<glyph name="P" format="2">
  <advance width="620"/>
  <unicode hex="0050"/>
  <outline>
    <contour>
      <point x="346" y="397" type="line"/>
      <point x="346" y="436" type="line"/>
      <point x="387" y="436" type="line"/>
      <point x="387" y="525" type="line"/>
      <point x="346" y="525" type="line"/>
      <point x="346" y="564" type="line"/>
      <point x="226" y="564" type="line"/>
      <point x="226" y="397" type="line"/>
    </contour>
    <contour>
      <point x="470" y="710" type="line"/>
      <point x="508" y="710" type="line"/>
      <point x="508" y="669" type="line"/>
      <point x="549" y="669" type="line"/>
      <point x="549" y="618" type="line"/>
      <point x="589" y="618" type="line"/>
      <point x="589" y="345" type="line"/>
      <point x="549" y="345" type="line"/>
      <point x="549" y="295" type="line"/>
      <point x="508" y="295" type="line"/>
      <point x="508" y="253" type="line"/>
      <point x="470" y="253" type="line"/>
      <point x="470" y="213" type="line"/>
      <point x="226" y="213" type="line"/>
      <point x="226" y="40" type="line"/>
      <point x="185" y="40" type="line"/>
      <point x="185" y="0" type="line"/>
      <point x="70" y="0" type="line"/>
      <point x="70" y="40" type="line"/>
      <point x="30" y="40" type="line"/>
      <point x="30" y="710" type="line"/>
      <point x="70" y="710" type="line"/>
      <point x="70" y="750" type="line"/>
      <point x="470" y="751" type="line"/>
    </contour>
  </outline>
</glyph>
<glyph name="Q" format="2">
  <advance width="650"/>
  <unicode hex="0051"/>
  <outline>
    <contour>
      <point x="255" y="547" type="line"/>
      <point x="255" y="504" type="line"/>
      <point x="216" y="504" type="line"/>
      <point x="216" y="296" type="line"/>
      <point x="255" y="296" type="line"/>
      <point x="255" y="253" type="line"/>
      <point x="380" y="253" type="line"/>
      <point x="380" y="296" type="line"/>
      <point x="420" y="296" type="line"/>
      <point x="420" y="504" type="line"/>
      <point x="380" y="504" type="line"/>
      <point x="380" y="547" type="line"/>
    </contour>
    <contour>
      <point x="107" y="66" type="line"/>
      <point x="107" y="109" type="line"/>
      <point x="61" y="109" type="line"/>
      <point x="61" y="159" type="line"/>
      <point x="20" y="159" type="line"/>
      <point x="20" y="608" type="line"/>
      <point x="61" y="608" type="line"/>
      <point x="61" y="662" type="line"/>
      <point x="107" y="662" type="line"/>
      <point x="107" y="710" type="line"/>
      <point x="155" y="710" type="line"/>
      <point x="155" y="750" type="line"/>
      <point x="481" y="750" type="line"/>
      <point x="481" y="710" type="line"/>
      <point x="528" y="710" type="line"/>
      <point x="528" y="662" type="line"/>
      <point x="574" y="662" type="line"/>
      <point x="574" y="608" type="line"/>
      <point x="616" y="608" type="line"/>
      <point x="616" y="159" type="line"/>
      <point x="574" y="159" type="line"/>
      <point x="574" y="109" type="line"/>
      <point x="528" y="109" type="line"/>
      <point x="528" y="66" type="line"/>
      <point x="487" y="66" type="line"/>
      <point x="487" y="19" type="line"/>
      <point x="528" y="19" type="line"/>
      <point x="528" y="-35" type="line"/>
      <point x="334" y="-35" type="line"/>
      <point x="334" y="19" type="line"/>
      <point x="289" y="19" type="line"/>
      <point x="289" y="66" type="line"/>
    </contour>
  </outline>
</glyph>
<glyph name="R" format="2">
  <advance width="630"/>
  <unicode hex="0052"/>
  <outline>
    <contour>
      <point x="226" y="564" type="line"/>
      <point x="226" y="437" type="line"/>
      <point x="356" y="437" type="line"/>
      <point x="356" y="476" type="line"/>
      <point x="387" y="476" type="line"/>
      <point x="387" y="525" type="line"/>
      <point x="356" y="525" type="line"/>
      <point x="356" y="564" type="line"/>
    </contour>
    <contour>
      <point x="559" y="258" type="line"/>
      <point x="559" y="210" type="line"/>
      <point x="593" y="210" type="line"/>
      <point x="593" y="38" type="line"/>
      <point x="559" y="38" type="line"/>
      <point x="559" y="0" type="line"/>
      <point x="448" y="0" type="line"/>
      <point x="448" y="38" type="line"/>
      <point x="413" y="38" type="line"/>
      <point x="413" y="88" type="line"/>
      <point x="374" y="88" type="line"/>
      <point x="374" y="145" type="line"/>
      <point x="335" y="145" type="line"/>
      <point x="335" y="200" type="line"/>
      <point x="291" y="200" type="line"/>
      <point x="291" y="248" type="line"/>
      <point x="226" y="248" type="line"/>
      <point x="226" y="38" type="line"/>
      <point x="188" y="38" type="line"/>
      <point x="188" y="0" type="line"/>
      <point x="68" y="0" type="line"/>
      <point x="68" y="38" type="line"/>
      <point x="30" y="38" type="line"/>
      <point x="30" y="712" type="line"/>
      <point x="68" y="712" type="line"/>
      <point x="68" y="750" type="line"/>
      <point x="477" y="751" type="line"/>
      <point x="477" y="712" type="line"/>
      <point x="515" y="712" type="line"/>
      <point x="515" y="662" type="line"/>
      <point x="551" y="662" type="line"/>
      <point x="551" y="614" type="line"/>
      <point x="584" y="614" type="line"/>
      <point x="584" y="392" type="line"/>
      <point x="551" y="392" type="line"/>
      <point x="551" y="345" type="line"/>
      <point x="515" y="345" type="line"/>
      <point x="515" y="258" type="line"/>
    </contour>
  </outline>
</glyph>
<glyph name="S" format="2">
  <advance width="600"/>
  <unicode hex="0053"/>
  <outline>
    <contour>
      <point x="156" y="324" type="line"/>
      <point x="108" y="324" type="line"/>
      <point x="108" y="369" type="line"/>
      <point x="61" y="369" type="line"/>
      <point x="61" y="415" type="line"/>
      <point x="20" y="415" type="line"/>
      <point x="20" y="611" type="line"/>
      <point x="61" y="611" type="line"/>
      <point x="61" y="658" type="line"/>
      <point x="108" y="658" type="line"/>
      <point x="108" y="706" type="line"/>
      <point x="156" y="706" type="line"/>
      <point x="156" y="750" type="line"/>
      <point x="511" y="750" type="line"/>
      <point x="511" y="712" type="line"/>
      <point x="557" y="712" type="line"/>
      <point x="557" y="596" type="line"/>
      <point x="511" y="596" type="line"/>
      <point x="511" y="555" type="line"/>
      <point x="266" y="555" type="line"/>
      <point x="266" y="527" type="line"/>
      <point x="225" y="527" type="line"/>
      <point x="225" y="498" type="line"/>
      <point x="266" y="498" type="line"/>
      <point x="266" y="469" type="line"/>
      <point x="436" y="469" type="line"/>
      <point x="436" y="426" type="line"/>
      <point x="484" y="426" type="line"/>
      <point x="484" y="381" type="line"/>
      <point x="530" y="381" type="line"/>
      <point x="530" y="335" type="line"/>
      <point x="572" y="335" type="line"/>
      <point x="572" y="140" type="line"/>
      <point x="530" y="140" type="line"/>
      <point x="530" y="92" type="line"/>
      <point x="484" y="92" type="line"/>
      <point x="484" y="44" type="line"/>
      <point x="436" y="44" type="line"/>
      <point x="436" y="0" type="line"/>
      <point x="83" y="0" type="line"/>
      <point x="83" y="38" type="line"/>
      <point x="38" y="38" type="line"/>
      <point x="38" y="154" type="line"/>
      <point x="83" y="154" type="line"/>
      <point x="83" y="195" type="line"/>
      <point x="326" y="195" type="line"/>
      <point x="326" y="223" type="line"/>
      <point x="367" y="223" type="line"/>
      <point x="367" y="253" type="line"/>
      <point x="326" y="253" type="line"/>
      <point x="326" y="281" type="line"/>
      <point x="156" y="281" type="line"/>
    </contour>
  </outline>
</glyph>
<glyph name="T" format="2">
  <advance width="620"/>
  <unicode hex="0054"/>
  <outline>
    <contour>
      <point x="564" y="712" type="line"/>
      <point x="600" y="712" type="line"/>
      <point x="600" y="592" type="line"/>
      <point x="564" y="592" type="line"/>
      <point x="564" y="554" type="line"/>
      <point x="413" y="554" type="line"/>
      <point x="413" y="38" type="line"/>
      <point x="377" y="38" type="line"/>
      <point x="377" y="0" type="line"/>
      <point x="245" y="0" type="line"/>
      <point x="245" y="38" type="line"/>
      <point x="207" y="38" type="line"/>
      <point x="207" y="554" type="line"/>
      <point x="58" y="554" type="line"/>
      <point x="58" y="592" type="line"/>
      <point x="20" y="592" type="line"/>
      <point x="20" y="712" type="line"/>
      <point x="58" y="712" type="line"/>
      <point x="58" y="750" type="line"/>
      <point x="564" y="750" type="line"/>
    </contour>
  </outline>
</glyph>
<glyph name="U" format="2">
  <advance width="660"/>
  <unicode hex="0055"/>
  <outline>
    <contour>
      <point x="373" y="277" type="line"/>
      <point x="416" y="277" type="line"/>
      <point x="416" y="709" type="line"/>
      <point x="458" y="709" type="line"/>
      <point x="458" y="750" type="line"/>
      <point x="577" y="750" type="line"/>
      <point x="577" y="709" type="line"/>
      <point x="620" y="709" type="line"/>
      <point x="620" y="135" type="line"/>
      <point x="577" y="135" type="line"/>
      <point x="577" y="88" type="line"/>
      <point x="527" y="88" type="line"/>
      <point x="527" y="41" type="line"/>
      <point x="473" y="41" type="line"/>
      <point x="473" y="0" type="line"/>
      <point x="177" y="0" type="line"/>
      <point x="177" y="41" type="line"/>
      <point x="123" y="41" type="line"/>
      <point x="123" y="88" type="line"/>
      <point x="73" y="88" type="line"/>
      <point x="73" y="135" type="line"/>
      <point x="30" y="135" type="line"/>
      <point x="30" y="709" type="line"/>
      <point x="73" y="709" type="line"/>
      <point x="73" y="750" type="line"/>
      <point x="192" y="750" type="line"/>
      <point x="192" y="709" type="line"/>
      <point x="234" y="709" type="line"/>
      <point x="234" y="277" type="line"/>
      <point x="277" y="277" type="line"/>
      <point x="277" y="227" type="line"/>
      <point x="373" y="227" type="line"/>
    </contour>
  </outline>
</glyph>
<glyph name="V" format="2">
  <advance width="700"/>
  <unicode hex="0056"/>
  <outline>
    <contour>
      <point x="371" y="303" type="line"/>
      <point x="411" y="303" type="line"/>
      <point x="411" y="352" type="line"/>
      <point x="452" y="352" type="line"/>
      <point x="452" y="709" type="line"/>
      <point x="493" y="709" type="line"/>
      <point x="493" y="750" type="line"/>
      <point x="613" y="750" type="line"/>
      <point x="613" y="709" type="line"/>
      <point x="656" y="709" type="line"/>
      <point x="656" y="236" type="line"/>
      <point x="613" y="236" type="line"/>
      <point x="613" y="183" type="line"/>
      <point x="572" y="183" type="line"/>
      <point x="572" y="136" type="line"/>
      <point x="532" y="136" type="line"/>
      <point x="532" y="92" type="line"/>
      <point x="491" y="92" type="line"/>
      <point x="491" y="48" type="line"/>
      <point x="451" y="48" type="line"/>
      <point x="451" y="0" type="line"/>
      <point x="235" y="0" type="line"/>
      <point x="235" y="48" type="line"/>
      <point x="195" y="48" type="line"/>
      <point x="195" y="92" type="line"/>
      <point x="154" y="92" type="line"/>
      <point x="154" y="136" type="line"/>
      <point x="114" y="136" type="line"/>
      <point x="114" y="183" type="line"/>
      <point x="73" y="183" type="line"/>
      <point x="73" y="236" type="line"/>
      <point x="30" y="236" type="line"/>
      <point x="30" y="709" type="line"/>
      <point x="73" y="709" type="line"/>
      <point x="73" y="750" type="line"/>
      <point x="193" y="750" type="line"/>
      <point x="193" y="709" type="line"/>
      <point x="234" y="709" type="line"/>
      <point x="234" y="352" type="line"/>
      <point x="275" y="352" type="line"/>
      <point x="275" y="303" type="line"/>
      <point x="315" y="303" type="line"/>
      <point x="315" y="254" type="line"/>
      <point x="371" y="254" type="line"/>
    </contour>
  </outline>
</glyph>
<glyph name="W" format="2">
  <advance width="1000"/>
  <unicode hex="0057"/>
  <outline>
    <contour>
      <point x="633" y="293" type="line"/>
      <point x="633" y="244" type="line"/>
      <point x="675" y="244" type="line"/>
      <point x="675" y="293" type="line"/>
      <point x="713" y="293" type="line"/>
      <point x="713" y="342" type="line"/>
      <point x="751" y="342" type="line"/>
      <point x="751" y="709" type="line"/>
      <point x="793" y="709" type="line"/>
      <point x="793" y="750" type="line"/>
      <point x="913" y="750" type="line"/>
      <point x="913" y="709" type="line"/>
      <point x="953" y="709" type="line"/>
      <point x="953" y="239" type="line"/>
      <point x="912" y="239" type="line"/>
      <point x="912" y="187" type="line"/>
      <point x="873" y="187" type="line"/>
      <point x="873" y="138" type="line"/>
      <point x="835" y="138" type="line"/>
      <point x="835" y="89" type="line"/>
      <point x="797" y="89" type="line"/>
      <point x="797" y="40" type="line"/>
      <point x="759" y="40" type="line"/>
      <point x="759" y="0" type="line"/>
      <point x="554" y="0" type="line"/>
      <point x="554" y="40" type="line"/>
      <point x="517" y="40" type="line"/>
      <point x="517" y="89" type="line"/>
      <point x="465" y="89" type="line"/>
      <point x="465" y="40" type="line"/>
      <point x="428" y="40" type="line"/>
      <point x="428" y="0" type="line"/>
      <point x="223" y="0" type="line"/>
      <point x="223" y="40" type="line"/>
      <point x="185" y="40" type="line"/>
      <point x="185" y="89" type="line"/>
      <point x="147" y="89" type="line"/>
      <point x="147" y="138" type="line"/>
      <point x="109" y="138" type="line"/>
      <point x="109" y="187" type="line"/>
      <point x="70" y="187" type="line"/>
      <point x="70" y="239" type="line"/>
      <point x="30" y="239" type="line"/>
      <point x="30" y="709" type="line"/>
      <point x="70" y="709" type="line"/>
      <point x="70" y="750" type="line"/>
      <point x="192" y="750" type="line"/>
      <point x="192" y="709" type="line"/>
      <point x="231" y="709" type="line"/>
      <point x="231" y="342" type="line"/>
      <point x="269" y="342" type="line"/>
      <point x="269" y="293" type="line"/>
      <point x="307" y="293" type="line"/>
      <point x="307" y="244" type="line"/>
      <point x="349" y="244" type="line"/>
      <point x="349" y="293" type="line"/>
      <point x="386" y="293" type="line"/>
      <point x="386" y="709" type="line"/>
      <point x="427" y="709" type="line"/>
      <point x="427" y="750" type="line"/>
      <point x="557" y="750" type="line"/>
      <point x="557" y="709" type="line"/>
      <point x="596" y="709" type="line"/>
      <point x="596" y="293" type="line"/>
    </contour>
  </outline>
</glyph>
<glyph name="X" format="2">
  <advance width="670"/>
  <unicode hex="0058"/>
  <outline>
    <contour>
      <point x="361" y="618" type="line"/>
      <point x="402" y="618" type="line"/>
      <point x="402" y="666" type="line"/>
      <point x="442" y="666" type="line"/>
      <point x="442" y="712" type="line"/>
      <point x="483" y="712" type="line"/>
      <point x="483" y="750" type="line"/>
      <point x="601" y="750" type="line"/>
      <point x="601" y="712" type="line"/>
      <point x="641" y="712" type="line"/>
      <point x="641" y="548" type="line"/>
      <point x="601" y="548" type="line"/>
      <point x="601" y="500" type="line"/>
      <point x="555" y="500" type="line"/>
      <point x="555" y="452" type="line"/>
      <point x="514" y="452" type="line"/>
      <point x="514" y="399" type="line"/>
      <point x="473" y="399" type="line"/>
      <point x="473" y="350" type="line"/>
      <point x="514" y="350" type="line"/>
      <point x="514" y="297" type="line"/>
      <point x="555" y="297" type="line"/>
      <point x="555" y="250" type="line"/>
      <point x="601" y="250" type="line"/>
      <point x="601" y="202" type="line"/>
      <point x="641" y="202" type="line"/>
      <point x="641" y="38" type="line"/>
      <point x="601" y="38" type="line"/>
      <point x="601" y="0" type="line"/>
      <point x="483" y="0" type="line"/>
      <point x="483" y="38" type="line"/>
      <point x="442" y="38" type="line"/>
      <point x="442" y="85" type="line"/>
      <point x="402" y="85" type="line"/>
      <point x="402" y="132" type="line"/>
      <point x="361" y="132" type="line"/>
      <point x="361" y="179" type="line"/>
      <point x="315" y="179" type="line"/>
      <point x="315" y="132" type="line"/>
      <point x="275" y="132" type="line"/>
      <point x="275" y="85" type="line"/>
      <point x="234" y="85" type="line"/>
      <point x="234" y="38" type="line"/>
      <point x="193" y="38" type="line"/>
      <point x="193" y="0" type="line"/>
      <point x="76" y="0" type="line"/>
      <point x="76" y="38" type="line"/>
      <point x="35" y="38" type="line"/>
      <point x="35" y="202" type="line"/>
      <point x="76" y="202" type="line"/>
      <point x="76" y="250" type="line"/>
      <point x="121" y="250" type="line"/>
      <point x="121" y="297" type="line"/>
      <point x="162" y="297" type="line"/>
      <point x="162" y="350" type="line"/>
      <point x="203" y="350" type="line"/>
      <point x="203" y="399" type="line"/>
      <point x="162" y="399" type="line"/>
      <point x="162" y="452" type="line"/>
      <point x="121" y="452" type="line"/>
      <point x="121" y="500" type="line"/>
      <point x="76" y="500" type="line"/>
      <point x="76" y="548" type="line"/>
      <point x="35" y="548" type="line"/>
      <point x="35" y="712" type="line"/>
      <point x="76" y="712" type="line"/>
      <point x="76" y="750" type="line"/>
      <point x="193" y="750" type="line"/>
      <point x="193" y="712" type="line"/>
      <point x="239" y="712" type="line"/>
      <point x="239" y="666" type="line"/>
      <point x="275" y="666" type="line"/>
      <point x="275" y="618" type="line"/>
      <point x="315" y="618" type="line"/>
      <point x="315" y="571" type="line"/>
      <point x="361" y="571" type="line"/>
    </contour>
  </outline>
</glyph>
<glyph name="Y" format="2">
  <advance width="650"/>
  <unicode hex="0059"/>
  <outline>
    <contour>
      <point x="358" y="616" type="line"/>
      <point x="398" y="616" type="line"/>
      <point x="398" y="664" type="line"/>
      <point x="439" y="664" type="line"/>
      <point x="439" y="708" type="line"/>
      <point x="480" y="708" type="line"/>
      <point x="480" y="750" type="line"/>
      <point x="600" y="750" type="line"/>
      <point x="600" y="708" type="line"/>
      <point x="638" y="708" type="line"/>
      <point x="638" y="580" type="line"/>
      <point x="600" y="580" type="line"/>
      <point x="600" y="532" type="line"/>
      <point x="559" y="532" type="line"/>
      <point x="559" y="487" type="line"/>
      <point x="519" y="487" type="line"/>
      <point x="519" y="442" type="line"/>
      <point x="480" y="442" type="line"/>
      <point x="480" y="392" type="line"/>
      <point x="435" y="392" type="line"/>
      <point x="435" y="33" type="line"/>
      <point x="402" y="33" type="line"/>
      <point x="402" y="0" type="line"/>
      <point x="256" y="0" type="line"/>
      <point x="256" y="33" type="line"/>
      <point x="223" y="33" type="line"/>
      <point x="223" y="392" type="line"/>
      <point x="178" y="392" type="line"/>
      <point x="178" y="442" type="line"/>
      <point x="139" y="442" type="line"/>
      <point x="139" y="487" type="line"/>
      <point x="99" y="487" type="line"/>
      <point x="99" y="532" type="line"/>
      <point x="58" y="532" type="line"/>
      <point x="58" y="580" type="line"/>
      <point x="20" y="580" type="line"/>
      <point x="20" y="708" type="line"/>
      <point x="58" y="708" type="line"/>
      <point x="58" y="750" type="line"/>
      <point x="178" y="750" type="line"/>
      <point x="178" y="708" type="line"/>
      <point x="219" y="708" type="line"/>
      <point x="219" y="664" type="line"/>
      <point x="260" y="664" type="line"/>
      <point x="260" y="616" type="line"/>
      <point x="300" y="616" type="line"/>
      <point x="300" y="570" type="line"/>
      <point x="358" y="570" type="line"/>
    </contour>
  </outline>
</glyph>
<glyph name="Z" format="2">
  <advance width="610"/>
  <unicode hex="005A"/>
  <outline>
    <contour>
      <point x="539" y="517" type="line"/>
      <point x="539" y="459" type="line"/>
      <point x="493" y="459" type="line"/>
      <point x="493" y="404" type="line"/>
      <point x="449" y="404" type="line"/>
      <point x="449" y="350" type="line"/>
      <point x="403" y="350" type="line"/>
      <point x="403" y="293" type="line"/>
      <point x="359" y="293" type="line"/>
      <point x="359" y="232" type="line"/>
      <point x="309" y="232" type="line"/>
      <point x="309" y="196" type="line"/>
      <point x="542" y="196" type="line"/>
      <point x="542" y="158" type="line"/>
      <point x="580" y="158" type="line"/>
      <point x="580" y="38" type="line"/>
      <point x="542" y="38" type="line"/>
      <point x="542" y="0" type="line"/>
      <point x="68" y="0" type="line"/>
      <point x="68" y="38" type="line"/>
      <point x="30" y="38" type="line"/>
      <point x="30" y="232" type="line"/>
      <point x="74" y="232" type="line"/>
      <point x="74" y="293" type="line"/>
      <point x="115" y="293" type="line"/>
      <point x="115" y="350" type="line"/>
      <point x="159" y="350" type="line"/>
      <point x="159" y="404" type="line"/>
      <point x="204" y="404" type="line"/>
      <point x="204" y="459" type="line"/>
      <point x="253" y="459" type="line"/>
      <point x="253" y="517" type="line"/>
      <point x="302" y="517" type="line"/>
      <point x="302" y="555" type="line"/>
      <point x="68" y="555" type="line"/>
      <point x="68" y="593" type="line"/>
      <point x="30" y="593" type="line"/>
      <point x="30" y="712" type="line"/>
      <point x="68" y="712" type="line"/>
      <point x="68" y="750" type="line"/>
      <point x="542" y="750" type="line"/>
      <point x="542" y="712" type="line"/>
      <point x="580" y="712" type="line"/>
      <point x="580" y="517" type="line"/>
    </contour>
  </outline>
</glyph>
<glyph name="bracketleft" format="2">
  <advance width="400"/>
  <unicode hex="005B"/>
  <outline>
    <contour>
      <point x="332" y="136" type="line"/>
      <point x="332" y="103" type="line"/>
      <point x="365" y="103" type="line"/>
      <point x="365" y="13" type="line"/>
      <point x="332" y="13" type="line"/>
      <point x="332" y="-20" type="line"/>
      <point x="73" y="-20" type="line"/>
      <point x="73" y="13" type="line"/>
      <point x="40" y="13" type="line"/>
      <point x="40" y="737" type="line"/>
      <point x="73" y="737" type="line"/>
      <point x="73" y="770" type="line"/>
      <point x="332" y="770" type="line"/>
      <point x="332" y="737" type="line"/>
      <point x="365" y="737" type="line"/>
      <point x="365" y="647" type="line"/>
      <point x="332" y="647" type="line"/>
      <point x="332" y="614" type="line"/>
      <point x="220" y="614" type="line"/>
      <point x="220" y="136" type="line"/>
    </contour>
  </outline>
</glyph>
<glyph name="backslash" format="2">
  <advance width="530"/>
  <unicode hex="005C"/>
  <outline>
    <contour>
      <point x="192" y="692" type="line"/>
      <point x="221" y="692" type="line"/>
      <point x="221" y="636" type="line"/>
      <point x="248" y="636" type="line"/>
      <point x="248" y="576" type="line"/>
      <point x="275" y="576" type="line"/>
      <point x="275" y="518" type="line"/>
      <point x="303" y="518" type="line"/>
      <point x="303" y="460" type="line"/>
      <point x="332" y="460" type="line"/>
      <point x="332" y="404" type="line"/>
      <point x="357" y="404" type="line"/>
      <point x="357" y="344" type="line"/>
      <point x="384" y="344" type="line"/>
      <point x="384" y="286" type="line"/>
      <point x="409" y="286" type="line"/>
      <point x="409" y="230" type="line"/>
      <point x="434" y="230" type="line"/>
      <point x="434" y="170" type="line"/>
      <point x="462" y="170" type="line"/>
      <point x="462" y="111" type="line"/>
      <point x="488" y="111" type="line"/>
      <point x="488" y="56" type="line"/>
      <point x="518" y="56" type="line"/>
      <point x="518" y="0" type="line"/>
      <point x="322" y="0" type="line"/>
      <point x="322" y="56" type="line"/>
      <point x="294" y="56" type="line"/>
      <point x="294" y="111" type="line"/>
      <point x="268" y="111" type="line"/>
      <point x="268" y="170" type="line"/>
      <point x="243" y="170" type="line"/>
      <point x="243" y="230" type="line"/>
      <point x="219" y="230" type="line"/>
      <point x="219" y="286" type="line"/>
      <point x="191" y="286" type="line"/>
      <point x="191" y="344" type="line"/>
      <point x="165" y="344" type="line"/>
      <point x="165" y="404" type="line"/>
      <point x="134" y="404" type="line"/>
      <point x="134" y="460" type="line"/>
      <point x="109" y="460" type="line"/>
      <point x="109" y="518" type="line"/>
      <point x="82" y="518" type="line"/>
      <point x="82" y="576" type="line"/>
      <point x="56" y="576" type="line"/>
      <point x="56" y="636" type="line"/>
      <point x="25" y="636" type="line"/>
      <point x="25" y="692" type="line"/>
      <point x="0" y="692" type="line"/>
      <point x="0" y="750" type="line"/>
      <point x="192" y="750" type="line"/>
    </contour>
  </outline>
</glyph>
<glyph name="bracketright" format="2">
  <advance width="400"/>
  <unicode hex="005D"/>
  <outline>
    <contour>
      <point x="73" y="13" type="line"/>
      <point x="40" y="13" type="line"/>
      <point x="40" y="103" type="line"/>
      <point x="73" y="103" type="line"/>
      <point x="73" y="136" type="line"/>
      <point x="185" y="136" type="line"/>
      <point x="185" y="614" type="line"/>
      <point x="73" y="614" type="line"/>
      <point x="73" y="647" type="line"/>
      <point x="40" y="647" type="line"/>
      <point x="40" y="737" type="line"/>
      <point x="73" y="737" type="line"/>
      <point x="73" y="770" type="line"/>
      <point x="332" y="770" type="line"/>
      <point x="332" y="737" type="line"/>
      <point x="365" y="737" type="line"/>
      <point x="365" y="13" type="line"/>
      <point x="332" y="13" type="line"/>
      <point x="332" y="-20" type="line"/>
      <point x="73" y="-20" type="line"/>
    </contour>
  </outline>
</glyph>
<glyph name="asciicircum" format="2">
  <advance width="480"/>
  <unicode hex="005E"/>
  <outline>
    <contour>
      <point x="415" y="424" type="line"/>
      <point x="321" y="424" type="line"/>
      <point x="321" y="455" type="line"/>
      <point x="290" y="455" type="line"/>
      <point x="290" y="505" type="line"/>
      <point x="259" y="505" type="line"/>
      <point x="259" y="545" type="line"/>
      <point x="214" y="545" type="line"/>
      <point x="214" y="505" type="line"/>
      <point x="183" y="505" type="line"/>
      <point x="183" y="455" type="line"/>
      <point x="151" y="455" type="line"/>
      <point x="151" y="424" type="line"/>
      <point x="57" y="424" type="line"/>
      <point x="57" y="455" type="line"/>
      <point x="30" y="455" type="line"/>
      <point x="30" y="555" type="line"/>
      <point x="58" y="555" type="line"/>
      <point x="58" y="595" type="line"/>
      <point x="84" y="595" type="line"/>
      <point x="84" y="636" type="line"/>
      <point x="111" y="636" type="line"/>
      <point x="111" y="677" type="line"/>
      <point x="142" y="677" type="line"/>
      <point x="142" y="714" type="line"/>
      <point x="173" y="714" type="line"/>
      <point x="173" y="750" type="line"/>
      <point x="300" y="750" type="line"/>
      <point x="300" y="714" type="line"/>
      <point x="331" y="714" type="line"/>
      <point x="331" y="677" type="line"/>
      <point x="362" y="677" type="line"/>
      <point x="362" y="636" type="line"/>
      <point x="389" y="636" type="line"/>
      <point x="389" y="595" type="line"/>
      <point x="415" y="595" type="line"/>
      <point x="415" y="555" type="line"/>
      <point x="443" y="555" type="line"/>
      <point x="443" y="455" type="line"/>
      <point x="415" y="455" type="line"/>
    </contour>
  </outline>
</glyph>
<glyph name="underscore" format="2">
  <advance width="490"/>
  <unicode hex="005F"/>
  <outline>
    <contour>
      <point x="30" y="145" type="line"/>
      <point x="63" y="145" type="line"/>
      <point x="63" y="178" type="line"/>
      <point x="427" y="178" type="line"/>
      <point x="427" y="145" type="line"/>
      <point x="460" y="145" type="line"/>
      <point x="460" y="33" type="line"/>
      <point x="427" y="33" type="line"/>
      <point x="427" y="0" type="line"/>
      <point x="63" y="0" type="line"/>
      <point x="63" y="33" type="line"/>
      <point x="30" y="33" type="line"/>
    </contour>
  </outline>
</glyph>
<glyph name="grave" format="2">
  <advance width="230"/>
  <unicode hex="0060"/>
  <outline>
    <contour>
      <point x="48" y="601" type="line"/>
      <point x="48" y="651" type="line"/>
      <point x="22" y="651" type="line"/>
      <point x="22" y="740" type="line"/>
      <point x="48" y="740" type="line"/>
      <point x="48" y="771" type="line"/>
      <point x="140" y="771" type="line"/>
      <point x="140" y="740" type="line"/>
      <point x="170" y="740" type="line"/>
      <point x="170" y="700" type="line"/>
      <point x="198" y="700" type="line"/>
      <point x="198" y="661" type="line"/>
      <point x="223" y="661" type="line"/>
      <point x="223" y="601" type="line"/>
      <point x="198" y="601" type="line"/>
      <point x="198" y="570" type="line"/>
      <point x="75" y="570" type="line"/>
      <point x="75" y="601" type="line"/>
    </contour>
  </outline>
</glyph>
<glyph name="a" format="2">
  <advance width="580"/>
  <unicode hex="0061"/>
  <outline>
    <contour>
      <point x="366" y="237" type="line"/>
      <point x="236" y="237" type="line"/>
      <point x="236" y="209" type="line"/>
      <point x="206" y="209" type="line"/>
      <point x="206" y="177" type="line"/>
      <point x="236" y="177" type="line"/>
      <point x="236" y="149" type="line"/>
      <point x="366" y="149" type="line"/>
    </contour>
    <contour>
      <point x="550" y="518" type="line"/>
      <point x="550" y="36" type="line"/>
      <point x="518" y="36" type="line"/>
      <point x="518" y="0" type="line"/>
      <point x="129" y="0" type="line"/>
      <point x="129" y="46" type="line"/>
      <point x="92" y="46" type="line"/>
      <point x="92" y="87" type="line"/>
      <point x="57" y="87" type="line"/>
      <point x="57" y="123" type="line"/>
      <point x="25" y="123" type="line"/>
      <point x="25" y="269" type="line"/>
      <point x="57" y="269" type="line"/>
      <point x="57" y="305" type="line"/>
      <point x="92" y="305" type="line"/>
      <point x="92" y="346" type="line"/>
      <point x="129" y="346" type="line"/>
      <point x="129" y="384" type="line"/>
      <point x="366" y="384" type="line"/>
      <point x="366" y="432" type="line"/>
      <point x="89" y="432" type="line"/>
      <point x="89" y="468" type="line"/>
      <point x="55" y="468" type="line"/>
      <point x="55" y="564" type="line"/>
      <point x="89" y="564" type="line"/>
      <point x="89" y="599" type="line"/>
      <point x="484" y="599" type="line"/>
      <point x="484" y="564" type="line"/>
      <point x="518" y="564" type="line"/>
      <point x="518" y="518" type="line"/>
    </contour>
  </outline>
</glyph>
<glyph name="b" format="2">
  <advance width="580"/>
  <unicode hex="0062"/>
  <outline>
    <contour>
      <point x="321" y="167" type="line"/>
      <point x="321" y="201" type="line"/>
      <point x="352" y="201" type="line"/>
      <point x="352" y="340" type="line"/>
      <point x="321" y="340" type="line"/>
      <point x="321" y="374" type="line"/>
      <point x="221" y="374" type="line"/>
      <point x="221" y="167" type="line"/>
    </contour>
    <contour>
      <point x="63" y="33" type="line"/>
      <point x="30" y="33" type="line"/>
      <point x="30" y="717" type="line"/>
      <point x="63" y="717" type="line"/>
      <point x="63" y="750" type="line"/>
      <point x="188" y="750" type="line"/>
      <point x="188" y="717" type="line"/>
      <point x="221" y="717" type="line"/>
      <point x="221" y="543" type="line"/>
      <point x="437" y="543" type="line"/>
      <point x="437" y="503" type="line"/>
      <point x="475" y="503" type="line"/>
      <point x="475" y="451" type="line"/>
      <point x="511" y="451" type="line"/>
      <point x="511" y="403" type="line"/>
      <point x="544" y="403" type="line"/>
      <point x="544" y="136" type="line"/>
      <point x="511" y="136" type="line"/>
      <point x="511" y="89" type="line"/>
      <point x="475" y="89" type="line"/>
      <point x="475" y="36" type="line"/>
      <point x="437" y="36" type="line"/>
      <point x="437" y="0" type="line"/>
      <point x="63" y="0" type="line"/>
    </contour>
  </outline>
</glyph>
<glyph name="c" format="2">
  <advance width="550"/>
  <unicode hex="0063"/>
  <outline>
    <contour>
      <point x="525" y="566" type="line"/>
      <point x="525" y="450" type="line"/>
      <point x="489" y="450" type="line"/>
      <point x="489" y="420" type="line"/>
      <point x="268" y="420" type="line"/>
      <point x="268" y="386" type="line"/>
      <point x="228" y="386" type="line"/>
      <point x="228" y="211" type="line"/>
      <point x="268" y="211" type="line"/>
      <point x="268" y="177" type="line"/>
      <point x="489" y="177" type="line"/>
      <point x="489" y="143" type="line"/>
      <point x="525" y="143" type="line"/>
      <point x="525" y="32" type="line"/>
      <point x="489" y="32" type="line"/>
      <point x="489" y="0" type="line"/>
      <point x="138" y="0" type="line"/>
      <point x="138" y="37" type="line"/>
      <point x="100" y="37" type="line"/>
      <point x="100" y="79" type="line"/>
      <point x="63" y="79" type="line"/>
      <point x="63" y="127" type="line"/>
      <point x="30" y="127" type="line"/>
      <point x="30" y="470" type="line"/>
      <point x="63" y="470" type="line"/>
      <point x="63" y="517" type="line"/>
      <point x="100" y="517" type="line"/>
      <point x="100" y="559" type="line"/>
      <point x="138" y="559" type="line"/>
      <point x="138" y="599" type="line"/>
      <point x="489" y="599" type="line"/>
      <point x="489" y="566" type="line"/>
    </contour>
  </outline>
</glyph>
<glyph name="d" format="2">
  <advance width="580"/>
  <unicode hex="0064"/>
  <outline>
    <contour>
      <point x="353" y="374" type="line"/>
      <point x="253" y="374" type="line"/>
      <point x="253" y="340" type="line"/>
      <point x="222" y="340" type="line"/>
      <point x="222" y="201" type="line"/>
      <point x="253" y="201" type="line"/>
      <point x="253" y="167" type="line"/>
      <point x="353" y="167" type="line"/>
    </contour>
    <contour>
      <point x="137" y="0" type="line"/>
      <point x="137" y="36" type="line"/>
      <point x="99" y="36" type="line"/>
      <point x="99" y="89" type="line"/>
      <point x="63" y="89" type="line"/>
      <point x="63" y="136" type="line"/>
      <point x="30" y="136" type="line"/>
      <point x="30" y="403" type="line"/>
      <point x="63" y="403" type="line"/>
      <point x="63" y="451" type="line"/>
      <point x="99" y="451" type="line"/>
      <point x="99" y="503" type="line"/>
      <point x="137" y="503" type="line"/>
      <point x="137" y="543" type="line"/>
      <point x="353" y="543" type="line"/>
      <point x="353" y="717" type="line"/>
      <point x="386" y="717" type="line"/>
      <point x="386" y="750" type="line"/>
      <point x="511" y="750" type="line"/>
      <point x="511" y="717" type="line"/>
      <point x="544" y="717" type="line"/>
      <point x="544" y="33" type="line"/>
      <point x="511" y="33" type="line"/>
      <point x="511" y="0" type="line"/>
    </contour>
  </outline>
</glyph>
<glyph name="e" format="2">
  <advance width="570"/>
  <unicode hex="0065"/>
  <outline>
    <contour>
      <point x="371" y="377" type="line"/>
      <point x="371" y="421" type="line"/>
      <point x="336" y="421" type="line"/>
      <point x="336" y="450" type="line"/>
      <point x="238" y="450" type="line"/>
      <point x="238" y="421" type="line"/>
      <point x="203" y="421" type="line"/>
      <point x="203" y="377" type="line"/>
    </contour>
    <contour>
      <point x="544" y="483" type="line"/>
      <point x="544" y="260" type="line"/>
      <point x="511" y="260" type="line"/>
      <point x="511" y="227" type="line"/>
      <point x="203" y="227" type="line"/>
      <point x="203" y="196" type="line"/>
      <point x="243" y="196" type="line"/>
      <point x="243" y="162" type="line"/>
      <point x="504" y="162" type="line"/>
      <point x="504" y="128" type="line"/>
      <point x="540" y="128" type="line"/>
      <point x="540" y="32" type="line"/>
      <point x="504" y="32" type="line"/>
      <point x="504" y="0" type="line"/>
      <point x="138" y="0" type="line"/>
      <point x="138" y="32" type="line"/>
      <point x="100" y="32" type="line"/>
      <point x="100" y="71" type="line"/>
      <point x="63" y="71" type="line"/>
      <point x="63" y="111" type="line"/>
      <point x="30" y="111" type="line"/>
      <point x="30" y="483" type="line"/>
      <point x="63" y="483" type="line"/>
      <point x="63" y="526" type="line"/>
      <point x="99" y="526" type="line"/>
      <point x="99" y="567" type="line"/>
      <point x="135" y="567" type="line"/>
      <point x="135" y="599" type="line"/>
      <point x="439" y="599" type="line"/>
      <point x="439" y="567" type="line"/>
      <point x="475" y="567" type="line"/>
      <point x="475" y="526" type="line"/>
      <point x="511" y="526" type="line"/>
      <point x="511" y="483" type="line"/>
    </contour>
  </outline>
</glyph>
<glyph name="f" format="2">
  <advance width="500"/>
  <unicode hex="0066"/>
  <outline>
    <contour>
      <point x="143" y="651" type="line"/>
      <point x="176" y="651" type="line"/>
      <point x="176" y="688" type="line"/>
      <point x="213" y="688" type="line"/>
      <point x="213" y="720" type="line"/>
      <point x="251" y="720" type="line"/>
      <point x="251" y="750" type="line"/>
      <point x="432" y="750" type="line"/>
      <point x="432" y="717" type="line"/>
      <point x="463" y="717" type="line"/>
      <point x="463" y="631" type="line"/>
      <point x="432" y="631" type="line"/>
      <point x="432" y="599" type="line"/>
      <point x="396" y="599" type="line"/>
      <point x="396" y="567" type="line"/>
      <point x="336" y="567" type="line"/>
      <point x="336" y="504" type="line"/>
      <point x="437" y="504" type="line"/>
      <point x="437" y="471" type="line"/>
      <point x="470" y="471" type="line"/>
      <point x="470" y="351" type="line"/>
      <point x="437" y="351" type="line"/>
      <point x="437" y="318" type="line"/>
      <point x="336" y="318" type="line"/>
      <point x="336" y="32" type="line"/>
      <point x="305" y="32" type="line"/>
      <point x="305" y="-1" type="line"/>
      <point x="175" y="-1" type="line"/>
      <point x="175" y="32" type="line"/>
      <point x="143" y="32" type="line"/>
      <point x="143" y="318" type="line"/>
      <point x="53" y="318" type="line"/>
      <point x="53" y="351" type="line"/>
      <point x="20" y="351" type="line"/>
      <point x="20" y="471" type="line"/>
      <point x="53" y="471" type="line"/>
      <point x="53" y="504" type="line"/>
      <point x="143" y="504" type="line"/>
    </contour>
  </outline>
</glyph>
<glyph name="g" format="2">
  <advance width="550"/>
  <unicode hex="0067"/>
  <outline>
    <contour>
      <point x="243" y="443" type="line"/>
      <point x="243" y="413" type="line"/>
      <point x="213" y="413" type="line"/>
      <point x="213" y="308" type="line"/>
      <point x="243" y="308" type="line"/>
      <point x="243" y="278" type="line"/>
      <point x="336" y="278" type="line"/>
      <point x="336" y="443" type="line"/>
    </contour>
    <contour>
      <point x="489" y="-21" type="line"/>
      <point x="489" y="-61" type="line"/>
      <point x="452" y="-61" type="line"/>
      <point x="452" y="-100" type="line"/>
      <point x="414" y="-100" type="line"/>
      <point x="414" y="-132" type="line"/>
      <point x="86" y="-132" type="line"/>
      <point x="86" y="-100" type="line"/>
      <point x="50" y="-100" type="line"/>
      <point x="50" y="1" type="line"/>
      <point x="86" y="1" type="line"/>
      <point x="86" y="35" type="line"/>
      <point x="299" y="35" type="line"/>
      <point x="299" y="69" type="line"/>
      <point x="339" y="69" type="line"/>
      <point x="339" y="124" type="line"/>
      <point x="138" y="124" type="line"/>
      <point x="138" y="157" type="line"/>
      <point x="100" y="157" type="line"/>
      <point x="100" y="193" type="line"/>
      <point x="63" y="193" type="line"/>
      <point x="63" y="236" type="line"/>
      <point x="30" y="236" type="line"/>
      <point x="30" y="485" type="line"/>
      <point x="63" y="485" type="line"/>
      <point x="63" y="527" type="line"/>
      <point x="100" y="527" type="line"/>
      <point x="100" y="564" type="line"/>
      <point x="138" y="564" type="line"/>
      <point x="138" y="599" type="line"/>
      <point x="489" y="599" type="line"/>
      <point x="489" y="566" type="line"/>
      <point x="522" y="566" type="line"/>
      <point x="522" y="-21" type="line"/>
    </contour>
  </outline>
</glyph>
<glyph name="h" format="2">
  <advance width="570"/>
  <unicode hex="0068"/>
  <outline>
    <contour>
      <point x="507" y="33" type="line"/>
      <point x="507" y="0" type="line"/>
      <point x="385" y="0" type="line"/>
      <point x="385" y="33" type="line"/>
      <point x="352" y="33" type="line"/>
      <point x="352" y="333" type="line"/>
      <point x="318" y="333" type="line"/>
      <point x="318" y="369" type="line"/>
      <point x="250" y="369" type="line"/>
      <point x="250" y="333" type="line"/>
      <point x="216" y="333" type="line"/>
      <point x="216" y="33" type="line"/>
      <point x="183" y="33" type="line"/>
      <point x="183" y="0" type="line"/>
      <point x="63" y="0" type="line"/>
      <point x="63" y="33" type="line"/>
      <point x="30" y="33" type="line"/>
      <point x="30" y="717" type="line"/>
      <point x="63" y="717" type="line"/>
      <point x="63" y="750" type="line"/>
      <point x="183" y="750" type="line"/>
      <point x="183" y="717" type="line"/>
      <point x="216" y="717" type="line"/>
      <point x="216" y="561" type="line"/>
      <point x="418" y="561" type="line"/>
      <point x="418" y="523" type="line"/>
      <point x="460" y="523" type="line"/>
      <point x="460" y="481" type="line"/>
      <point x="503" y="481" type="line"/>
      <point x="503" y="439" type="line"/>
      <point x="540" y="439" type="line"/>
      <point x="540" y="33" type="line"/>
    </contour>
  </outline>
</glyph>
<glyph name="i" format="2">
  <advance width="270"/>
  <unicode hex="0069"/>
  <outline>
    <contour>
      <point x="75" y="0" type="line"/>
      <point x="75" y="33" type="line"/>
      <point x="42" y="33" type="line"/>
      <point x="42" y="487" type="line"/>
      <point x="75" y="487" type="line"/>
      <point x="75" y="520" type="line"/>
      <point x="195" y="520" type="line"/>
      <point x="195" y="487" type="line"/>
      <point x="228" y="487" type="line"/>
      <point x="228" y="33" type="line"/>
      <point x="195" y="33" type="line"/>
      <point x="195" y="0" type="line"/>
    </contour>
    <contour>
      <point x="198" y="718" type="line"/>
      <point x="230" y="718" type="line"/>
      <point x="230" y="599" type="line"/>
      <point x="198" y="599" type="line"/>
      <point x="198" y="567" type="line"/>
      <point x="72" y="567" type="line"/>
      <point x="72" y="599" type="line"/>
      <point x="40" y="599" type="line"/>
      <point x="40" y="718" type="line"/>
      <point x="72" y="718" type="line"/>
      <point x="72" y="750" type="line"/>
      <point x="198" y="750" type="line"/>
    </contour>
  </outline>
</glyph>
<glyph name="j" format="2">
  <advance width="350"/>
  <unicode hex="006A"/>
  <outline>
    <contour>
      <point x="285" y="-21" type="line"/>
      <point x="285" y="-61" type="line"/>
      <point x="248" y="-61" type="line"/>
      <point x="248" y="-100" type="line"/>
      <point x="210" y="-100" type="line"/>
      <point x="210" y="-132" type="line"/>
      <point x="52" y="-132" type="line"/>
      <point x="52" y="-100" type="line"/>
      <point x="16" y="-100" type="line"/>
      <point x="16" y="1" type="line"/>
      <point x="52" y="1" type="line"/>
      <point x="52" y="40" type="line"/>
      <point x="90" y="40" type="line"/>
      <point x="90" y="74" type="line"/>
      <point x="132" y="74" type="line"/>
      <point x="132" y="487" type="line"/>
      <point x="165" y="487" type="line"/>
      <point x="165" y="520" type="line"/>
      <point x="285" y="520" type="line"/>
      <point x="285" y="487" type="line"/>
      <point x="318" y="487" type="line"/>
      <point x="318" y="-21" type="line"/>
    </contour>
    <contour>
      <point x="288" y="718" type="line"/>
      <point x="320" y="718" type="line"/>
      <point x="320" y="599" type="line"/>
      <point x="288" y="599" type="line"/>
      <point x="288" y="567" type="line"/>
      <point x="162" y="567" type="line"/>
      <point x="162" y="599" type="line"/>
      <point x="130" y="599" type="line"/>
      <point x="130" y="718" type="line"/>
      <point x="162" y="718" type="line"/>
      <point x="162" y="750" type="line"/>
      <point x="288" y="750" type="line"/>
    </contour>
  </outline>
</glyph>
<glyph name="k" format="2">
  <advance width="540"/>
  <unicode hex="006B"/>
  <outline>
    <contour>
      <point x="216" y="33" type="line"/>
      <point x="183" y="33" type="line"/>
      <point x="183" y="0" type="line"/>
      <point x="63" y="0" type="line"/>
      <point x="63" y="33" type="line"/>
      <point x="30" y="33" type="line"/>
      <point x="30" y="717" type="line"/>
      <point x="63" y="717" type="line"/>
      <point x="63" y="750" type="line"/>
      <point x="183" y="750" type="line"/>
      <point x="183" y="717" type="line"/>
      <point x="216" y="717" type="line"/>
      <point x="216" y="459" type="line"/>
      <point x="246" y="459" type="line"/>
      <point x="246" y="495" type="line"/>
      <point x="279" y="495" type="line"/>
      <point x="279" y="531" type="line"/>
      <point x="311" y="531" type="line"/>
      <point x="311" y="566" type="line"/>
      <point x="344" y="566" type="line"/>
      <point x="344" y="599" type="line"/>
      <point x="464" y="599" type="line"/>
      <point x="464" y="566" type="line"/>
      <point x="497" y="566" type="line"/>
      <point x="497" y="436" type="line"/>
      <point x="464" y="436" type="line"/>
      <point x="464" y="398" type="line"/>
      <point x="432" y="398" type="line"/>
      <point x="432" y="360" type="line"/>
      <point x="399" y="360" type="line"/>
      <point x="399" y="322" type="line"/>
      <point x="367" y="322" type="line"/>
      <point x="367" y="274" type="line"/>
      <point x="399" y="274" type="line"/>
      <point x="399" y="236" type="line"/>
      <point x="432" y="236" type="line"/>
      <point x="432" y="198" type="line"/>
      <point x="464" y="198" type="line"/>
      <point x="464" y="162" type="line"/>
      <point x="497" y="162" type="line"/>
      <point x="497" y="33" type="line"/>
      <point x="464" y="33" type="line"/>
      <point x="464" y="0" type="line"/>
      <point x="344" y="0" type="line"/>
      <point x="344" y="33" type="line"/>
      <point x="311" y="33" type="line"/>
      <point x="311" y="68" type="line"/>
      <point x="279" y="68" type="line"/>
      <point x="279" y="104" type="line"/>
      <point x="246" y="104" type="line"/>
      <point x="246" y="142" type="line"/>
      <point x="216" y="142" type="line"/>
    </contour>
  </outline>
</glyph>
<glyph name="l" format="2">
  <advance width="280"/>
  <unicode hex="006C"/>
  <outline>
    <contour>
      <point x="73" y="0" type="line"/>
      <point x="73" y="33" type="line"/>
      <point x="40" y="33" type="line"/>
      <point x="40" y="717" type="line"/>
      <point x="73" y="717" type="line"/>
      <point x="73" y="750" type="line"/>
      <point x="203" y="750" type="line"/>
      <point x="203" y="717" type="line"/>
      <point x="236" y="717" type="line"/>
      <point x="236" y="33" type="line"/>
      <point x="203" y="33" type="line"/>
      <point x="203" y="0" type="line"/>
    </contour>
  </outline>
</glyph>
<glyph name="m" format="2">
  <advance width="860"/>
  <unicode hex="006D"/>
  <outline>
    <contour>
      <point x="460" y="562" type="line"/>
      <point x="508" y="562" type="line"/>
      <point x="508" y="600" type="line"/>
      <point x="714" y="600" type="line"/>
      <point x="714" y="562" type="line"/>
      <point x="757" y="562" type="line"/>
      <point x="757" y="515" type="line"/>
      <point x="799" y="515" type="line"/>
      <point x="799" y="467" type="line"/>
      <point x="836" y="467" type="line"/>
      <point x="836" y="33" type="line"/>
      <point x="803" y="33" type="line"/>
      <point x="803" y="0" type="line"/>
      <point x="688" y="0" type="line"/>
      <point x="688" y="33" type="line"/>
      <point x="655" y="33" type="line"/>
      <point x="655" y="367" type="line"/>
      <point x="617" y="367" type="line"/>
      <point x="617" y="407" type="line"/>
      <point x="564" y="407" type="line"/>
      <point x="564" y="367" type="line"/>
      <point x="527" y="367" type="line"/>
      <point x="527" y="33" type="line"/>
      <point x="494" y="33" type="line"/>
      <point x="494" y="0" type="line"/>
      <point x="373" y="0" type="line"/>
      <point x="373" y="33" type="line"/>
      <point x="340" y="33" type="line"/>
      <point x="340" y="367" type="line"/>
      <point x="302" y="367" type="line"/>
      <point x="302" y="407" type="line"/>
      <point x="249" y="407" type="line"/>
      <point x="249" y="367" type="line"/>
      <point x="210" y="367" type="line"/>
      <point x="210" y="33" type="line"/>
      <point x="177" y="33" type="line"/>
      <point x="177" y="0" type="line"/>
      <point x="63" y="0" type="line"/>
      <point x="63" y="33" type="line"/>
      <point x="30" y="33" type="line"/>
      <point x="30" y="562" type="line"/>
      <point x="63" y="562" type="line"/>
      <point x="63" y="600" type="line"/>
      <point x="168" y="600" type="line"/>
      <point x="168" y="562" type="line"/>
      <point x="216" y="562" type="line"/>
      <point x="216" y="600" type="line"/>
      <point x="460" y="600" type="line"/>
    </contour>
  </outline>
</glyph>
<glyph name="n" format="2">
  <advance width="610"/>
  <unicode hex="006E"/>
  <outline>
    <contour>
      <point x="183" y="33" type="line"/>
      <point x="183" y="0" type="line"/>
      <point x="63" y="0" type="line"/>
      <point x="63" y="33" type="line"/>
      <point x="30" y="33" type="line"/>
      <point x="30" y="562" type="line"/>
      <point x="63" y="562" type="line"/>
      <point x="63" y="600" type="line"/>
      <point x="178" y="600" type="line"/>
      <point x="178" y="562" type="line"/>
      <point x="221" y="562" type="line"/>
      <point x="221" y="600" type="line"/>
      <point x="448" y="600" type="line"/>
      <point x="448" y="562" type="line"/>
      <point x="491" y="562" type="line"/>
      <point x="491" y="515" type="line"/>
      <point x="533" y="515" type="line"/>
      <point x="533" y="467" type="line"/>
      <point x="570" y="467" type="line"/>
      <point x="570" y="33" type="line"/>
      <point x="537" y="33" type="line"/>
      <point x="537" y="0" type="line"/>
      <point x="415" y="0" type="line"/>
      <point x="415" y="33" type="line"/>
      <point x="382" y="33" type="line"/>
      <point x="382" y="367" type="line"/>
      <point x="344" y="367" type="line"/>
      <point x="344" y="407" type="line"/>
      <point x="255" y="407" type="line"/>
      <point x="255" y="367" type="line"/>
      <point x="216" y="367" type="line"/>
      <point x="216" y="33" type="line"/>
    </contour>
  </outline>
</glyph>
<glyph name="o" format="2">
  <advance width="580"/>
  <unicode hex="006F"/>
  <outline>
    <contour>
      <point x="253" y="431" type="line"/>
      <point x="253" y="397" type="line"/>
      <point x="213" y="397" type="line"/>
      <point x="213" y="202" type="line"/>
      <point x="253" y="202" type="line"/>
      <point x="253" y="168" type="line"/>
      <point x="321" y="168" type="line"/>
      <point x="321" y="202" type="line"/>
      <point x="361" y="202" type="line"/>
      <point x="361" y="397" type="line"/>
      <point x="321" y="397" type="line"/>
      <point x="321" y="431" type="line"/>
    </contour>
    <contour>
      <point x="436" y="560" type="line"/>
      <point x="474" y="560" type="line"/>
      <point x="474" y="518" type="line"/>
      <point x="511" y="518" type="line"/>
      <point x="511" y="471" type="line"/>
      <point x="544" y="471" type="line"/>
      <point x="544" y="127" type="line"/>
      <point x="511" y="127" type="line"/>
      <point x="511" y="79" type="line"/>
      <point x="474" y="79" type="line"/>
      <point x="474" y="37" type="line"/>
      <point x="436" y="37" type="line"/>
      <point x="436" y="0" type="line"/>
      <point x="138" y="0" type="line"/>
      <point x="138" y="37" type="line"/>
      <point x="100" y="37" type="line"/>
      <point x="100" y="79" type="line"/>
      <point x="63" y="79" type="line"/>
      <point x="63" y="127" type="line"/>
      <point x="30" y="127" type="line"/>
      <point x="30" y="471" type="line"/>
      <point x="63" y="471" type="line"/>
      <point x="63" y="518" type="line"/>
      <point x="100" y="518" type="line"/>
      <point x="100" y="560" type="line"/>
      <point x="138" y="560" type="line"/>
      <point x="138" y="599" type="line"/>
      <point x="436" y="599" type="line"/>
    </contour>
  </outline>
</glyph>
<glyph name="p" format="2">
  <advance width="560"/>
  <unicode hex="0070"/>
  <outline>
    <contour>
      <point x="216" y="260" type="line"/>
      <point x="316" y="260" type="line"/>
      <point x="316" y="294" type="line"/>
      <point x="347" y="294" type="line"/>
      <point x="347" y="398" type="line"/>
      <point x="316" y="398" type="line"/>
      <point x="316" y="432" type="line"/>
      <point x="216" y="432" type="line"/>
    </contour>
    <contour>
      <point x="427" y="562" type="line"/>
      <point x="465" y="562" type="line"/>
      <point x="465" y="510" type="line"/>
      <point x="501" y="510" type="line"/>
      <point x="501" y="462" type="line"/>
      <point x="534" y="462" type="line"/>
      <point x="534" y="230" type="line"/>
      <point x="501" y="230" type="line"/>
      <point x="501" y="183" type="line"/>
      <point x="465" y="183" type="line"/>
      <point x="465" y="131" type="line"/>
      <point x="427" y="131" type="line"/>
      <point x="427" y="91" type="line"/>
      <point x="216" y="91" type="line"/>
      <point x="216" y="-98" type="line"/>
      <point x="183" y="-98" type="line"/>
      <point x="183" y="-131" type="line"/>
      <point x="63" y="-131" type="line"/>
      <point x="63" y="-98" type="line"/>
      <point x="30" y="-98" type="line"/>
      <point x="30" y="566" type="line"/>
      <point x="63" y="566" type="line"/>
      <point x="63" y="599" type="line"/>
      <point x="427" y="599" type="line"/>
    </contour>
  </outline>
</glyph>
<glyph name="q" format="2">
  <advance width="560"/>
  <unicode hex="0071"/>
  <outline>
    <contour>
      <point x="238" y="432" type="line"/>
      <point x="238" y="398" type="line"/>
      <point x="208" y="398" type="line"/>
      <point x="208" y="294" type="line"/>
      <point x="238" y="294" type="line"/>
      <point x="238" y="260" type="line"/>
      <point x="339" y="260" type="line"/>
      <point x="339" y="432" type="line"/>
    </contour>
    <contour>
      <point x="491" y="566" type="line"/>
      <point x="524" y="566" type="line"/>
      <point x="524" y="-98" type="line"/>
      <point x="491" y="-98" type="line"/>
      <point x="491" y="-131" type="line"/>
      <point x="372" y="-131" type="line"/>
      <point x="372" y="-98" type="line"/>
      <point x="339" y="-98" type="line"/>
      <point x="339" y="91" type="line"/>
      <point x="128" y="91" type="line"/>
      <point x="128" y="131" type="line"/>
      <point x="90" y="131" type="line"/>
      <point x="90" y="183" type="line"/>
      <point x="53" y="183" type="line"/>
      <point x="53" y="230" type="line"/>
      <point x="20" y="230" type="line"/>
      <point x="20" y="462" type="line"/>
      <point x="53" y="462" type="line"/>
      <point x="53" y="510" type="line"/>
      <point x="90" y="510" type="line"/>
      <point x="90" y="562" type="line"/>
      <point x="128" y="562" type="line"/>
      <point x="128" y="599" type="line"/>
      <point x="491" y="599" type="line"/>
    </contour>
  </outline>
</glyph>
<glyph name="r" format="2">
  <advance width="470"/>
  <unicode hex="0072"/>
  <outline>
    <contour>
      <point x="288" y="305" type="line"/>
      <point x="236" y="305" type="line"/>
      <point x="236" y="33" type="line"/>
      <point x="203" y="33" type="line"/>
      <point x="203" y="0" type="line"/>
      <point x="73" y="0" type="line"/>
      <point x="73" y="33" type="line"/>
      <point x="40" y="33" type="line"/>
      <point x="40" y="589" type="line"/>
      <point x="73" y="589" type="line"/>
      <point x="73" y="622" type="line"/>
      <point x="203" y="622" type="line"/>
      <point x="203" y="589" type="line"/>
      <point x="236" y="589" type="line"/>
      <point x="236" y="547" type="line"/>
      <point x="284" y="547" type="line"/>
      <point x="284" y="577" type="line"/>
      <point x="432" y="577" type="line"/>
      <point x="432" y="544" type="line"/>
      <point x="464" y="544" type="line"/>
      <point x="464" y="443" type="line"/>
      <point x="432" y="443" type="line"/>
      <point x="432" y="408" type="line"/>
      <point x="389" y="408" type="line"/>
      <point x="389" y="374" type="line"/>
      <point x="338" y="374" type="line"/>
      <point x="338" y="340" type="line"/>
      <point x="288" y="340" type="line"/>
    </contour>
  </outline>
</glyph>
<glyph name="s" format="2">
  <advance width="550"/>
  <unicode hex="0073"/>
  <outline>
    <contour>
      <point x="243" y="413" type="line"/>
      <point x="243" y="395" type="line"/>
      <point x="273" y="395" type="line"/>
      <point x="273" y="372" type="line"/>
      <point x="412" y="372" type="line"/>
      <point x="412" y="340" type="line"/>
      <point x="450" y="340" type="line"/>
      <point x="450" y="305" type="line"/>
      <point x="487" y="305" type="line"/>
      <point x="487" y="266" type="line"/>
      <point x="525" y="266" type="line"/>
      <point x="525" y="109" type="line"/>
      <point x="487" y="109" type="line"/>
      <point x="487" y="69" type="line"/>
      <point x="450" y="69" type="line"/>
      <point x="450" y="30" type="line"/>
      <point x="412" y="30" type="line"/>
      <point x="412" y="0" type="line"/>
      <point x="76" y="0" type="line"/>
      <point x="76" y="30" type="line"/>
      <point x="40" y="30" type="line"/>
      <point x="40" y="130" type="line"/>
      <point x="76" y="130" type="line"/>
      <point x="76" y="162" type="line"/>
      <point x="292" y="162" type="line"/>
      <point x="292" y="186" type="line"/>
      <point x="322" y="186" type="line"/>
      <point x="322" y="204" type="line"/>
      <point x="292" y="204" type="line"/>
      <point x="292" y="227" type="line"/>
      <point x="152" y="227" type="line"/>
      <point x="152" y="259" type="line"/>
      <point x="114" y="259" type="line"/>
      <point x="114" y="294" type="line"/>
      <point x="77" y="294" type="line"/>
      <point x="77" y="333" type="line"/>
      <point x="40" y="333" type="line"/>
      <point x="40" y="490" type="line"/>
      <point x="77" y="490" type="line"/>
      <point x="77" y="530" type="line"/>
      <point x="114" y="530" type="line"/>
      <point x="114" y="569" type="line"/>
      <point x="152" y="569" type="line"/>
      <point x="152" y="599" type="line"/>
      <point x="489" y="599" type="line"/>
      <point x="489" y="569" type="line"/>
      <point x="525" y="569" type="line"/>
      <point x="525" y="469" type="line"/>
      <point x="489" y="469" type="line"/>
      <point x="489" y="437" type="line"/>
      <point x="273" y="437" type="line"/>
      <point x="273" y="413" type="line"/>
    </contour>
  </outline>
</glyph>
<glyph name="t" format="2">
  <advance width="480"/>
  <unicode hex="0074"/>
  <outline>
    <contour>
      <point x="326" y="182" type="line"/>
      <point x="371" y="182" type="line"/>
      <point x="371" y="148" type="line"/>
      <point x="417" y="148" type="line"/>
      <point x="417" y="118" type="line"/>
      <point x="453" y="118" type="line"/>
      <point x="453" y="32" type="line"/>
      <point x="417" y="32" type="line"/>
      <point x="417" y="-1" type="line"/>
      <point x="241" y="-1" type="line"/>
      <point x="241" y="29" type="line"/>
      <point x="203" y="29" type="line"/>
      <point x="203" y="61" type="line"/>
      <point x="166" y="61" type="line"/>
      <point x="166" y="98" type="line"/>
      <point x="133" y="98" type="line"/>
      <point x="133" y="414" type="line"/>
      <point x="53" y="414" type="line"/>
      <point x="53" y="447" type="line"/>
      <point x="20" y="447" type="line"/>
      <point x="20" y="567" type="line"/>
      <point x="53" y="567" type="line"/>
      <point x="53" y="600" type="line"/>
      <point x="133" y="600" type="line"/>
      <point x="133" y="717" type="line"/>
      <point x="165" y="717" type="line"/>
      <point x="165" y="750" type="line"/>
      <point x="295" y="750" type="line"/>
      <point x="295" y="717" type="line"/>
      <point x="326" y="717" type="line"/>
      <point x="326" y="600" type="line"/>
      <point x="417" y="600" type="line"/>
      <point x="417" y="567" type="line"/>
      <point x="450" y="567" type="line"/>
      <point x="450" y="447" type="line"/>
      <point x="417" y="447" type="line"/>
      <point x="417" y="414" type="line"/>
      <point x="326" y="414" type="line"/>
    </contour>
  </outline>
</glyph>
<glyph name="u" format="2">
  <advance width="600"/>
  <unicode hex="0075"/>
  <outline>
    <contour>
      <point x="417" y="567" type="line"/>
      <point x="417" y="600" type="line"/>
      <point x="537" y="600" type="line"/>
      <point x="537" y="567" type="line"/>
      <point x="570" y="567" type="line"/>
      <point x="570" y="38" type="line"/>
      <point x="537" y="38" type="line"/>
      <point x="537" y="0" type="line"/>
      <point x="422" y="0" type="line"/>
      <point x="422" y="38" type="line"/>
      <point x="379" y="38" type="line"/>
      <point x="379" y="0" type="line"/>
      <point x="152" y="0" type="line"/>
      <point x="152" y="38" type="line"/>
      <point x="109" y="38" type="line"/>
      <point x="109" y="85" type="line"/>
      <point x="67" y="85" type="line"/>
      <point x="67" y="133" type="line"/>
      <point x="30" y="133" type="line"/>
      <point x="30" y="567" type="line"/>
      <point x="63" y="567" type="line"/>
      <point x="63" y="600" type="line"/>
      <point x="185" y="600" type="line"/>
      <point x="185" y="567" type="line"/>
      <point x="218" y="567" type="line"/>
      <point x="218" y="233" type="line"/>
      <point x="256" y="233" type="line"/>
      <point x="256" y="193" type="line"/>
      <point x="345" y="193" type="line"/>
      <point x="345" y="233" type="line"/>
      <point x="384" y="233" type="line"/>
      <point x="384" y="567" type="line"/>
    </contour>
  </outline>
</glyph>
<glyph name="v" format="2">
  <advance width="610"/>
  <unicode hex="0076"/>
  <outline>
    <contour>
      <point x="65" y="567" type="line"/>
      <point x="65" y="600" type="line"/>
      <point x="185" y="600" type="line"/>
      <point x="185" y="567" type="line"/>
      <point x="218" y="567" type="line"/>
      <point x="218" y="293" type="line"/>
      <point x="250" y="293" type="line"/>
      <point x="250" y="252" type="line"/>
      <point x="283" y="252" type="line"/>
      <point x="283" y="211" type="line"/>
      <point x="326" y="211" type="line"/>
      <point x="326" y="252" type="line"/>
      <point x="359" y="252" type="line"/>
      <point x="359" y="293" type="line"/>
      <point x="392" y="293" type="line"/>
      <point x="392" y="567" type="line"/>
      <point x="426" y="567" type="line"/>
      <point x="426" y="600" type="line"/>
      <point x="546" y="600" type="line"/>
      <point x="546" y="567" type="line"/>
      <point x="580" y="567" type="line"/>
      <point x="580" y="207" type="line"/>
      <point x="545" y="207" type="line"/>
      <point x="545" y="164" type="line"/>
      <point x="512" y="164" type="line"/>
      <point x="512" y="123" type="line"/>
      <point x="479" y="123" type="line"/>
      <point x="479" y="82" type="line"/>
      <point x="447" y="82" type="line"/>
      <point x="447" y="41" type="line"/>
      <point x="415" y="41" type="line"/>
      <point x="415" y="0" type="line"/>
      <point x="194" y="0" type="line"/>
      <point x="194" y="41" type="line"/>
      <point x="162" y="41" type="line"/>
      <point x="162" y="82" type="line"/>
      <point x="130" y="82" type="line"/>
      <point x="130" y="123" type="line"/>
      <point x="97" y="123" type="line"/>
      <point x="97" y="164" type="line"/>
      <point x="65" y="164" type="line"/>
      <point x="65" y="207" type="line"/>
      <point x="30" y="207" type="line"/>
      <point x="30" y="567" type="line"/>
    </contour>
  </outline>
</glyph>
<glyph name="w" format="2">
  <advance width="860"/>
  <unicode hex="0077"/>
  <outline>
    <contour>
      <point x="613" y="237" type="line"/>
      <point x="613" y="270" type="line"/>
      <point x="640" y="270" type="line"/>
      <point x="640" y="567" type="line"/>
      <point x="673" y="567" type="line"/>
      <point x="673" y="600" type="line"/>
      <point x="791" y="600" type="line"/>
      <point x="791" y="567" type="line"/>
      <point x="826" y="567" type="line"/>
      <point x="826" y="174" type="line"/>
      <point x="791" y="174" type="line"/>
      <point x="791" y="132" type="line"/>
      <point x="758" y="132" type="line"/>
      <point x="758" y="99" type="line"/>
      <point x="726" y="99" type="line"/>
      <point x="726" y="66" type="line"/>
      <point x="693" y="66" type="line"/>
      <point x="693" y="33" type="line"/>
      <point x="661" y="33" type="line"/>
      <point x="661" y="0" type="line"/>
      <point x="506" y="0" type="line"/>
      <point x="506" y="33" type="line"/>
      <point x="473" y="33" type="line"/>
      <point x="473" y="66" type="line"/>
      <point x="441" y="66" type="line"/>
      <point x="441" y="99" type="line"/>
      <point x="413" y="99" type="line"/>
      <point x="413" y="66" type="line"/>
      <point x="381" y="66" type="line"/>
      <point x="381" y="33" type="line"/>
      <point x="348" y="33" type="line"/>
      <point x="348" y="0" type="line"/>
      <point x="194" y="0" type="line"/>
      <point x="194" y="33" type="line"/>
      <point x="162" y="33" type="line"/>
      <point x="162" y="66" type="line"/>
      <point x="129" y="66" type="line"/>
      <point x="129" y="99" type="line"/>
      <point x="97" y="99" type="line"/>
      <point x="97" y="132" type="line"/>
      <point x="65" y="132" type="line"/>
      <point x="65" y="174" type="line"/>
      <point x="30" y="174" type="line"/>
      <point x="30" y="567" type="line"/>
      <point x="65" y="567" type="line"/>
      <point x="65" y="600" type="line"/>
      <point x="182" y="600" type="line"/>
      <point x="182" y="567" type="line"/>
      <point x="215" y="567" type="line"/>
      <point x="215" y="270" type="line"/>
      <point x="242" y="270" type="line"/>
      <point x="242" y="237" type="line"/>
      <point x="262" y="237" type="line"/>
      <point x="262" y="208" type="line"/>
      <point x="290" y="208" type="line"/>
      <point x="290" y="237" type="line"/>
      <point x="309" y="237" type="line"/>
      <point x="309" y="270" type="line"/>
      <point x="336" y="270" type="line"/>
      <point x="336" y="567" type="line"/>
      <point x="370" y="567" type="line"/>
      <point x="370" y="600" type="line"/>
      <point x="486" y="600" type="line"/>
      <point x="486" y="567" type="line"/>
      <point x="519" y="567" type="line"/>
      <point x="518" y="270" type="line"/>
      <point x="546" y="270" type="line"/>
      <point x="546" y="237" type="line"/>
      <point x="565" y="237" type="line"/>
      <point x="565" y="208" type="line"/>
      <point x="593" y="208" type="line"/>
      <point x="593" y="237" type="line"/>
    </contour>
  </outline>
</glyph>
<glyph name="x" format="2">
  <advance width="580"/>
  <unicode hex="0078"/>
  <outline>
    <contour>
      <point x="309" y="494" type="line"/>
      <point x="343" y="494" type="line"/>
      <point x="343" y="533" type="line"/>
      <point x="376" y="533" type="line"/>
      <point x="376" y="570" type="line"/>
      <point x="410" y="570" type="line"/>
      <point x="410" y="600" type="line"/>
      <point x="517" y="600" type="line"/>
      <point x="517" y="570" type="line"/>
      <point x="550" y="570" type="line"/>
      <point x="550" y="433" type="line"/>
      <point x="517" y="433" type="line"/>
      <point x="517" y="395" type="line"/>
      <point x="479" y="395" type="line"/>
      <point x="479" y="357" type="line"/>
      <point x="445" y="357" type="line"/>
      <point x="445" y="319" type="line"/>
      <point x="412" y="319" type="line"/>
      <point x="412" y="280" type="line"/>
      <point x="445" y="280" type="line"/>
      <point x="445" y="243" type="line"/>
      <point x="479" y="243" type="line"/>
      <point x="479" y="205" type="line"/>
      <point x="517" y="205" type="line"/>
      <point x="517" y="167" type="line"/>
      <point x="550" y="167" type="line"/>
      <point x="550" y="30" type="line"/>
      <point x="517" y="30" type="line"/>
      <point x="517" y="0" type="line"/>
      <point x="410" y="0" type="line"/>
      <point x="410" y="30" type="line"/>
      <point x="376" y="30" type="line"/>
      <point x="376" y="68" type="line"/>
      <point x="343" y="68" type="line"/>
      <point x="343" y="106" type="line"/>
      <point x="309" y="106" type="line"/>
      <point x="309" y="138" type="line"/>
      <point x="271" y="138" type="line"/>
      <point x="271" y="106" type="line"/>
      <point x="238" y="106" type="line"/>
      <point x="238" y="68" type="line"/>
      <point x="204" y="68" type="line"/>
      <point x="204" y="30" type="line"/>
      <point x="170" y="30" type="line"/>
      <point x="170" y="0" type="line"/>
      <point x="64" y="0" type="line"/>
      <point x="64" y="30" type="line"/>
      <point x="30" y="30" type="line"/>
      <point x="30" y="167" type="line"/>
      <point x="64" y="167" type="line"/>
      <point x="64" y="205" type="line"/>
      <point x="101" y="205" type="line"/>
      <point x="101" y="243" type="line"/>
      <point x="135" y="243" type="line"/>
      <point x="135" y="280" type="line"/>
      <point x="168" y="280" type="line"/>
      <point x="168" y="319" type="line"/>
      <point x="135" y="319" type="line"/>
      <point x="135" y="357" type="line"/>
      <point x="101" y="357" type="line"/>
      <point x="101" y="395" type="line"/>
      <point x="64" y="395" type="line"/>
      <point x="64" y="433" type="line"/>
      <point x="30" y="433" type="line"/>
      <point x="30" y="570" type="line"/>
      <point x="64" y="570" type="line"/>
      <point x="64" y="600" type="line"/>
      <point x="170" y="600" type="line"/>
      <point x="170" y="570" type="line"/>
      <point x="208" y="570" type="line"/>
      <point x="208" y="533" type="line"/>
      <point x="238" y="533" type="line"/>
      <point x="238" y="494" type="line"/>
      <point x="271" y="494" type="line"/>
      <point x="271" y="462" type="line"/>
      <point x="309" y="462" type="line"/>
    </contour>
  </outline>
</glyph>
<glyph name="y" format="2">
  <advance width="550"/>
  <unicode hex="0079"/>
  <outline>
    <contour>
      <point x="138" y="157" type="line"/>
      <point x="100" y="157" type="line"/>
      <point x="100" y="193" type="line"/>
      <point x="63" y="193" type="line"/>
      <point x="63" y="236" type="line"/>
      <point x="30" y="236" type="line"/>
      <point x="30" y="568" type="line"/>
      <point x="64" y="568" type="line"/>
      <point x="64" y="599" type="line"/>
      <point x="176" y="599" type="line"/>
      <point x="176" y="568" type="line"/>
      <point x="209" y="568" type="line"/>
      <point x="209" y="327" type="line"/>
      <point x="241" y="327" type="line"/>
      <point x="241" y="286" type="line"/>
      <point x="315" y="286" type="line"/>
      <point x="315" y="327" type="line"/>
      <point x="347" y="327" type="line"/>
      <point x="347" y="566" type="line"/>
      <point x="380" y="566" type="line"/>
      <point x="380" y="599" type="line"/>
      <point x="490" y="599" type="line"/>
      <point x="490" y="566" type="line"/>
      <point x="523" y="566" type="line"/>
      <point x="523" y="-21" type="line"/>
      <point x="490" y="-21" type="line"/>
      <point x="490" y="-61" type="line"/>
      <point x="453" y="-61" type="line"/>
      <point x="453" y="-100" type="line"/>
      <point x="415" y="-100" type="line"/>
      <point x="415" y="-132" type="line"/>
      <point x="86" y="-132" type="line"/>
      <point x="86" y="-100" type="line"/>
      <point x="50" y="-100" type="line"/>
      <point x="50" y="1" type="line"/>
      <point x="86" y="1" type="line"/>
      <point x="86" y="35" type="line"/>
      <point x="299" y="35" type="line"/>
      <point x="299" y="69" type="line"/>
      <point x="339" y="69" type="line"/>
      <point x="339" y="124" type="line"/>
      <point x="138" y="124" type="line"/>
    </contour>
  </outline>
</glyph>
<glyph name="z" format="2">
  <advance width="560"/>
  <unicode hex="007A"/>
  <outline>
    <contour>
      <point x="522" y="565" type="line"/>
      <point x="522" y="428" type="line"/>
      <point x="488" y="428" type="line"/>
      <point x="488" y="378" type="line"/>
      <point x="444" y="378" type="line"/>
      <point x="444" y="327" type="line"/>
      <point x="398" y="327" type="line"/>
      <point x="398" y="271" type="line"/>
      <point x="353" y="271" type="line"/>
      <point x="353" y="211" type="line"/>
      <point x="306" y="211" type="line"/>
      <point x="306" y="172" type="line"/>
      <point x="488" y="172" type="line"/>
      <point x="488" y="137" type="line"/>
      <point x="521" y="137" type="line"/>
      <point x="521" y="36" type="line"/>
      <point x="488" y="36" type="line"/>
      <point x="488" y="0" type="line"/>
      <point x="64" y="0" type="line"/>
      <point x="64" y="36" type="line"/>
      <point x="30" y="36" type="line"/>
      <point x="30" y="172" type="line"/>
      <point x="64" y="172" type="line"/>
      <point x="64" y="224" type="line"/>
      <point x="107" y="224" type="line"/>
      <point x="107" y="279" type="line"/>
      <point x="152" y="279" type="line"/>
      <point x="152" y="335" type="line"/>
      <point x="199" y="335" type="line"/>
      <point x="199" y="391" type="line"/>
      <point x="244" y="391" type="line"/>
      <point x="244" y="428" type="line"/>
      <point x="64" y="428" type="line"/>
      <point x="64" y="464" type="line"/>
      <point x="30" y="464" type="line"/>
      <point x="30" y="565" type="line"/>
      <point x="64" y="565" type="line"/>
      <point x="64" y="600" type="line"/>
      <point x="488" y="600" type="line"/>
      <point x="488" y="565" type="line"/>
    </contour>
  </outline>
</glyph>
<glyph name="braceleft" format="2">
  <advance width="400"/>
  <unicode hex="007B"/>
  <outline>
    <contour>
      <point x="43" y="282" type="line"/>
      <point x="43" y="315" type="line"/>
      <point x="10" y="315" type="line"/>
      <point x="10" y="434" type="line"/>
      <point x="43" y="434" type="line"/>
      <point x="43" y="467" type="line"/>
      <point x="90" y="467" type="line"/>
      <point x="90" y="656" type="line"/>
      <point x="122" y="656" type="line"/>
      <point x="122" y="706" type="line"/>
      <point x="158" y="706" type="line"/>
      <point x="158" y="748" type="line"/>
      <point x="195" y="748" type="line"/>
      <point x="195" y="780" type="line"/>
      <point x="343" y="780" type="line"/>
      <point x="343" y="748" type="line"/>
      <point x="378" y="748" type="line"/>
      <point x="378" y="656" type="line"/>
      <point x="343" y="656" type="line"/>
      <point x="343" y="621" type="line"/>
      <point x="307" y="621" type="line"/>
      <point x="307" y="584" type="line"/>
      <point x="268" y="584" type="line"/>
      <point x="268" y="164" type="line"/>
      <point x="307" y="164" type="line"/>
      <point x="307" y="126" type="line"/>
      <point x="343" y="126" type="line"/>
      <point x="343" y="89" type="line"/>
      <point x="378" y="89" type="line"/>
      <point x="378" y="0" type="line"/>
      <point x="343" y="0" type="line"/>
      <point x="343" y="-31" type="line"/>
      <point x="195" y="-31" type="line"/>
      <point x="195" y="0" type="line"/>
      <point x="158" y="0" type="line"/>
      <point x="158" y="41" type="line"/>
      <point x="122" y="41" type="line"/>
      <point x="122" y="89" type="line"/>
      <point x="90" y="89" type="line"/>
      <point x="90" y="282" type="line"/>
    </contour>
  </outline>
</glyph>
<glyph name="bar" format="2">
  <advance width="300"/>
  <unicode hex="007C"/>
  <outline>
    <contour>
      <point x="209" y="737" type="line"/>
      <point x="242" y="737" type="line"/>
      <point x="242" y="13" type="line"/>
      <point x="209" y="13" type="line"/>
      <point x="209" y="-20" type="line"/>
      <point x="95" y="-20" type="line"/>
      <point x="95" y="13" type="line"/>
      <point x="62" y="13" type="line"/>
      <point x="62" y="737" type="line"/>
      <point x="95" y="737" type="line"/>
      <point x="95" y="770" type="line"/>
      <point x="209" y="770" type="line"/>
    </contour>
  </outline>
</glyph>
<glyph name="braceright" format="2">
  <advance width="400"/>
  <unicode hex="007D"/>
  <outline>
    <contour>
      <point x="345" y="467" type="line"/>
      <point x="345" y="434" type="line"/>
      <point x="378" y="434" type="line"/>
      <point x="378" y="315" type="line"/>
      <point x="345" y="315" type="line"/>
      <point x="345" y="282" type="line"/>
      <point x="298" y="282" type="line"/>
      <point x="298" y="94" type="line"/>
      <point x="266" y="94" type="line"/>
      <point x="266" y="44" type="line"/>
      <point x="230" y="44" type="line"/>
      <point x="230" y="1" type="line"/>
      <point x="193" y="1" type="line"/>
      <point x="193" y="-31" type="line"/>
      <point x="45" y="-31" type="line"/>
      <point x="45" y="1" type="line"/>
      <point x="10" y="1" type="line"/>
      <point x="10" y="94" type="line"/>
      <point x="45" y="94" type="line"/>
      <point x="45" y="128" type="line"/>
      <point x="81" y="128" type="line"/>
      <point x="81" y="166" type="line"/>
      <point x="120" y="166" type="line"/>
      <point x="120" y="585" type="line"/>
      <point x="81" y="585" type="line"/>
      <point x="81" y="623" type="line"/>
      <point x="45" y="623" type="line"/>
      <point x="45" y="660" type="line"/>
      <point x="10" y="660" type="line"/>
      <point x="10" y="749" type="line"/>
      <point x="45" y="749" type="line"/>
      <point x="45" y="780" type="line"/>
      <point x="193" y="780" type="line"/>
      <point x="193" y="749" type="line"/>
      <point x="230" y="749" type="line"/>
      <point x="230" y="708" type="line"/>
      <point x="266" y="708" type="line"/>
      <point x="266" y="660" type="line"/>
      <point x="298" y="660" type="line"/>
      <point x="298" y="467" type="line"/>
    </contour>
  </outline>
</glyph>
<glyph name="asciitilde" format="2">
  <advance width="730"/>
  <unicode hex="007E"/>
  <outline>
    <contour>
      <point x="166" y="265" type="line"/>
      <point x="166" y="232" type="line"/>
      <point x="65" y="232" type="line"/>
      <point x="65" y="265" type="line"/>
      <point x="30" y="265" type="line"/>
      <point x="30" y="433" type="line"/>
      <point x="65" y="433" type="line"/>
      <point x="65" y="468" type="line"/>
      <point x="98" y="468" type="line"/>
      <point x="98" y="502" type="line"/>
      <point x="133" y="502" type="line"/>
      <point x="133" y="537" type="line"/>
      <point x="340" y="537" type="line"/>
      <point x="340" y="502" type="line"/>
      <point x="375" y="502" type="line"/>
      <point x="375" y="468" type="line"/>
      <point x="409" y="468" type="line"/>
      <point x="409" y="433" type="line"/>
      <point x="443" y="433" type="line"/>
      <point x="443" y="407" type="line"/>
      <point x="489" y="407" type="line"/>
      <point x="489" y="433" type="line"/>
      <point x="519" y="433" type="line"/>
      <point x="519" y="482" type="line"/>
      <point x="554" y="482" type="line"/>
      <point x="554" y="516" type="line"/>
      <point x="655" y="516" type="line"/>
      <point x="655" y="482" type="line"/>
      <point x="690" y="482" type="line"/>
      <point x="690" y="314" type="line"/>
      <point x="655" y="314" type="line"/>
      <point x="655" y="279" type="line"/>
      <point x="622" y="279" type="line"/>
      <point x="622" y="245" type="line"/>
      <point x="587" y="245" type="line"/>
      <point x="587" y="210" type="line"/>
      <point x="380" y="210" type="line"/>
      <point x="380" y="245" type="line"/>
      <point x="345" y="245" type="line"/>
      <point x="345" y="279" type="line"/>
      <point x="311" y="279" type="line"/>
      <point x="311" y="314" type="line"/>
      <point x="277" y="314" type="line"/>
      <point x="277" y="340" type="line"/>
      <point x="231" y="340" type="line"/>
      <point x="231" y="315" type="line"/>
      <point x="201" y="315" type="line"/>
      <point x="201" y="265" type="line"/>
    </contour>
  </outline>
</glyph>
<glyph name="copyright" format="2">
  <advance width="730"/>
  <unicode hex="00A9"/>
  <outline>
    <contour>
      <point x="271" y="187" type="line"/>
      <point x="271" y="207" type="line"/>
      <point x="250" y="207" type="line"/>
      <point x="250" y="230" type="line"/>
      <point x="230" y="230" type="line"/>
      <point x="230" y="257" type="line"/>
      <point x="212" y="257" type="line"/>
      <point x="212" y="425" type="line"/>
      <point x="230" y="425" type="line"/>
      <point x="230" y="451" type="line"/>
      <point x="250" y="451" type="line"/>
      <point x="250" y="474" type="line"/>
      <point x="271" y="474" type="line"/>
      <point x="271" y="496" type="line"/>
      <point x="453" y="496" type="line"/>
      <point x="453" y="478" type="line"/>
      <point x="473" y="478" type="line"/>
      <point x="473" y="414" type="line"/>
      <point x="453" y="414" type="line"/>
      <point x="453" y="398" type="line"/>
      <point x="351" y="398" type="line"/>
      <point x="351" y="379" type="line"/>
      <point x="329" y="379" type="line"/>
      <point x="329" y="303" type="line"/>
      <point x="351" y="303" type="line"/>
      <point x="351" y="284" type="line"/>
      <point x="453" y="284" type="line"/>
      <point x="453" y="265" type="line"/>
      <point x="473" y="265" type="line"/>
      <point x="473" y="204" type="line"/>
      <point x="453" y="204" type="line"/>
      <point x="453" y="187" type="line"/>
    </contour>
    <contour>
      <point x="488" y="512" type="line"/>
      <point x="488" y="542" type="line"/>
      <point x="223" y="542" type="line"/>
      <point x="223" y="512" type="line"/>
      <point x="185" y="512" type="line"/>
      <point x="185" y="476" type="line"/>
      <point x="156" y="476" type="line"/>
      <point x="156" y="207" type="line"/>
      <point x="185" y="207" type="line"/>
      <point x="185" y="171" type="line"/>
      <point x="223" y="171" type="line"/>
      <point x="223" y="141" type="line"/>
      <point x="488" y="141" type="line"/>
      <point x="488" y="171" type="line"/>
      <point x="526" y="171" type="line"/>
      <point x="526" y="207" type="line"/>
      <point x="555" y="207" type="line"/>
      <point x="555" y="476" type="line"/>
      <point x="526" y="476" type="line"/>
      <point x="526" y="512" type="line"/>
    </contour>
    <contour>
      <point x="180" y="56" type="line"/>
      <point x="143" y="56" type="line"/>
      <point x="143" y="93" type="line"/>
      <point x="105" y="93" type="line"/>
      <point x="105" y="129" type="line"/>
      <point x="68" y="129" type="line"/>
      <point x="68" y="165" type="line"/>
      <point x="30" y="165" type="line"/>
      <point x="30" y="518" type="line"/>
      <point x="68" y="518" type="line"/>
      <point x="68" y="554" type="line"/>
      <point x="105" y="554" type="line"/>
      <point x="105" y="590" type="line"/>
      <point x="143" y="590" type="line"/>
      <point x="143" y="627" type="line"/>
      <point x="180" y="627" type="line"/>
      <point x="180" y="663" type="line"/>
      <point x="531" y="663" type="line"/>
      <point x="531" y="627" type="line"/>
      <point x="568" y="627" type="line"/>
      <point x="568" y="590" type="line"/>
      <point x="606" y="590" type="line"/>
      <point x="606" y="554" type="line"/>
      <point x="643" y="554" type="line"/>
      <point x="643" y="518" type="line"/>
      <point x="681" y="518" type="line"/>
      <point x="681" y="165" type="line"/>
      <point x="643" y="165" type="line"/>
      <point x="643" y="129" type="line"/>
      <point x="606" y="129" type="line"/>
      <point x="606" y="93" type="line"/>
      <point x="568" y="93" type="line"/>
      <point x="568" y="56" type="line"/>
      <point x="531" y="56" type="line"/>
      <point x="531" y="20" type="line"/>
      <point x="180" y="20" type="line"/>
    </contour>
  </outline>
</glyph>
<glyph name="registered" format="2">
  <advance width="730"/>
  <unicode hex="00AE"/>
  <outline>
    <contour>
      <point x="377" y="362" type="line"/>
      <point x="377" y="381" type="line"/>
      <point x="392" y="381" type="line"/>
      <point x="392" y="393" type="line"/>
      <point x="377" y="393" type="line"/>
      <point x="377" y="412" type="line"/>
      <point x="317" y="412" type="line"/>
      <point x="317" y="362" type="line"/>
    </contour>
    <contour>
      <point x="472" y="294" type="line"/>
      <point x="472" y="272" type="line"/>
      <point x="493" y="272" type="line"/>
      <point x="493" y="196" type="line"/>
      <point x="477" y="196" type="line"/>
      <point x="477" y="178" type="line"/>
      <point x="420" y="178" type="line"/>
      <point x="420" y="196" type="line"/>
      <point x="404" y="196" type="line"/>
      <point x="404" y="219" type="line"/>
      <point x="386" y="219" type="line"/>
      <point x="386" y="246" type="line"/>
      <point x="368" y="246" type="line"/>
      <point x="368" y="272" type="line"/>
      <point x="347" y="272" type="line"/>
      <point x="347" y="294" type="line"/>
      <point x="317" y="294" type="line"/>
      <point x="317" y="196" type="line"/>
      <point x="299" y="196" type="line"/>
      <point x="299" y="178" type="line"/>
      <point x="243" y="178" type="line"/>
      <point x="243" y="196" type="line"/>
      <point x="225" y="196" type="line"/>
      <point x="225" y="481" type="line"/>
      <point x="243" y="481" type="line"/>
      <point x="243" y="499" type="line"/>
      <point x="434" y="499" type="line"/>
      <point x="434" y="481" type="line"/>
      <point x="452" y="481" type="line"/>
      <point x="452" y="458" type="line"/>
      <point x="469" y="458" type="line"/>
      <point x="469" y="435" type="line"/>
      <point x="484" y="435" type="line"/>
      <point x="484" y="341" type="line"/>
      <point x="469" y="341" type="line"/>
      <point x="469" y="319" type="line"/>
      <point x="452" y="319" type="line"/>
      <point x="452" y="294" type="line"/>
    </contour>
    <contour>
      <point x="488" y="512" type="line"/>
      <point x="488" y="542" type="line"/>
      <point x="223" y="542" type="line"/>
      <point x="223" y="512" type="line"/>
      <point x="185" y="512" type="line"/>
      <point x="185" y="476" type="line"/>
      <point x="156" y="476" type="line"/>
      <point x="156" y="207" type="line"/>
      <point x="185" y="207" type="line"/>
      <point x="185" y="171" type="line"/>
      <point x="223" y="171" type="line"/>
      <point x="223" y="141" type="line"/>
      <point x="488" y="141" type="line"/>
      <point x="488" y="171" type="line"/>
      <point x="526" y="171" type="line"/>
      <point x="526" y="207" type="line"/>
      <point x="555" y="207" type="line"/>
      <point x="555" y="476" type="line"/>
      <point x="526" y="476" type="line"/>
      <point x="526" y="512" type="line"/>
    </contour>
    <contour>
      <point x="180" y="56" type="line"/>
      <point x="143" y="56" type="line"/>
      <point x="143" y="93" type="line"/>
      <point x="105" y="93" type="line"/>
      <point x="105" y="129" type="line"/>
      <point x="68" y="129" type="line"/>
      <point x="68" y="165" type="line"/>
      <point x="30" y="165" type="line"/>
      <point x="30" y="518" type="line"/>
      <point x="68" y="518" type="line"/>
      <point x="68" y="554" type="line"/>
      <point x="105" y="554" type="line"/>
      <point x="105" y="590" type="line"/>
      <point x="143" y="590" type="line"/>
      <point x="143" y="627" type="line"/>
      <point x="180" y="627" type="line"/>
      <point x="180" y="663" type="line"/>
      <point x="531" y="663" type="line"/>
      <point x="531" y="627" type="line"/>
      <point x="568" y="627" type="line"/>
      <point x="568" y="590" type="line"/>
      <point x="606" y="590" type="line"/>
      <point x="606" y="554" type="line"/>
      <point x="643" y="554" type="line"/>
      <point x="643" y="518" type="line"/>
      <point x="681" y="518" type="line"/>
      <point x="681" y="165" type="line"/>
      <point x="643" y="165" type="line"/>
      <point x="643" y="129" type="line"/>
      <point x="606" y="129" type="line"/>
      <point x="606" y="93" type="line"/>
      <point x="568" y="93" type="line"/>
      <point x="568" y="56" type="line"/>
      <point x="531" y="56" type="line"/>
      <point x="531" y="20" type="line"/>
      <point x="180" y="20" type="line"/>
    </contour>
  </outline>
</glyph>
<glyph name="periodcentered" format="2">
  <advance width="280"/>
  <unicode hex="00B7"/>
  <unicode hex="30FB"/>
  <outline>
    <contour>
      <point x="188" y="441" type="line"/>
      <point x="220" y="441" type="line"/>
      <point x="220" y="322" type="line"/>
      <point x="188" y="322" type="line"/>
      <point x="188" y="290" type="line"/>
      <point x="72" y="290" type="line"/>
      <point x="72" y="322" type="line"/>
      <point x="40" y="322" type="line"/>
      <point x="40" y="441" type="line"/>
      <point x="72" y="441" type="line"/>
      <point x="72" y="473" type="line"/>
      <point x="188" y="473" type="line"/>
    </contour>
  </outline>
</glyph>
<glyph name="multiply" format="2">
  <advance width="580"/>
  <unicode hex="00D7"/>
  <outline>
    <contour>
      <point x="455" y="338" type="line"/>
      <point x="455" y="296" type="line"/>
      <point x="493" y="296" type="line"/>
      <point x="493" y="258" type="line"/>
      <point x="529" y="258" type="line"/>
      <point x="529" y="188" type="line"/>
      <point x="497" y="188" type="line"/>
      <point x="497" y="150" type="line"/>
      <point x="457" y="150" type="line"/>
      <point x="457" y="116" type="line"/>
      <point x="392" y="116" type="line"/>
      <point x="392" y="152" type="line"/>
      <point x="354" y="152" type="line"/>
      <point x="354" y="190" type="line"/>
      <point x="316" y="190" type="line"/>
      <point x="316" y="222" type="line"/>
      <point x="269" y="222" type="line"/>
      <point x="269" y="190" type="line"/>
      <point x="231" y="190" type="line"/>
      <point x="231" y="152" type="line"/>
      <point x="194" y="152" type="line"/>
      <point x="194" y="116" type="line"/>
      <point x="128" y="116" type="line"/>
      <point x="128" y="150" type="line"/>
      <point x="87" y="150" type="line"/>
      <point x="87" y="188" type="line"/>
      <point x="55" y="188" type="line"/>
      <point x="55" y="258" type="line"/>
      <point x="91" y="258" type="line"/>
      <point x="91" y="296" type="line"/>
      <point x="124" y="296" type="line"/>
      <point x="124" y="338" type="line"/>
      <point x="156" y="338" type="line"/>
      <point x="156" y="373" type="line"/>
      <point x="124" y="373" type="line"/>
      <point x="124" y="415" type="line"/>
      <point x="91" y="415" type="line"/>
      <point x="91" y="453" type="line"/>
      <point x="55" y="453" type="line"/>
      <point x="55" y="524" type="line"/>
      <point x="87" y="524" type="line"/>
      <point x="87" y="561" type="line"/>
      <point x="128" y="561" type="line"/>
      <point x="128" y="595" type="line"/>
      <point x="194" y="595" type="line"/>
      <point x="194" y="559" type="line"/>
      <point x="231" y="559" type="line"/>
      <point x="231" y="521" type="line"/>
      <point x="269" y="521" type="line"/>
      <point x="269" y="489" type="line"/>
      <point x="316" y="489" type="line"/>
      <point x="316" y="521" type="line"/>
      <point x="354" y="521" type="line"/>
      <point x="354" y="559" type="line"/>
      <point x="392" y="559" type="line"/>
      <point x="392" y="595" type="line"/>
      <point x="457" y="595" type="line"/>
      <point x="457" y="561" type="line"/>
      <point x="497" y="561" type="line"/>
      <point x="497" y="524" type="line"/>
      <point x="529" y="524" type="line"/>
      <point x="529" y="453" type="line"/>
      <point x="493" y="453" type="line"/>
      <point x="493" y="415" type="line"/>
      <point x="455" y="415" type="line"/>
      <point x="455" y="373" type="line"/>
      <point x="422" y="373" type="line"/>
      <point x="422" y="338" type="line"/>
    </contour>
  </outline>
</glyph>
<glyph name="divide" format="2">
  <advance width="560"/>
  <unicode hex="00F7"/>
  <outline>
    <contour>
      <point x="331" y="624" type="line"/>
      <point x="363" y="624" type="line"/>
      <point x="363" y="515" type="line"/>
      <point x="331" y="515" type="line"/>
      <point x="331" y="483" type="line"/>
      <point x="215" y="483" type="line"/>
      <point x="215" y="515" type="line"/>
      <point x="183" y="515" type="line"/>
      <point x="183" y="624" type="line"/>
      <point x="215" y="624" type="line"/>
      <point x="215" y="656" type="line"/>
      <point x="331" y="656" type="line"/>
    </contour>
    <contour>
      <point x="28" y="410" type="line"/>
      <point x="61" y="410" type="line"/>
      <point x="61" y="443" type="line"/>
      <point x="485" y="443" type="line"/>
      <point x="485" y="410" type="line"/>
      <point x="518" y="410" type="line"/>
      <point x="518" y="318" type="line"/>
      <point x="485" y="318" type="line"/>
      <point x="485" y="285" type="line"/>
      <point x="61" y="285" type="line"/>
      <point x="61" y="318" type="line"/>
      <point x="28" y="318" type="line"/>
    </contour>
    <contour>
      <point x="331" y="214" type="line"/>
      <point x="363" y="214" type="line"/>
      <point x="363" y="105" type="line"/>
      <point x="331" y="105" type="line"/>
      <point x="331" y="73" type="line"/>
      <point x="215" y="73" type="line"/>
      <point x="215" y="105" type="line"/>
      <point x="183" y="105" type="line"/>
      <point x="183" y="214" type="line"/>
      <point x="215" y="214" type="line"/>
      <point x="215" y="246" type="line"/>
      <point x="331" y="246" type="line"/>
    </contour>
  </outline>
</glyph>
<glyph name="quoteleft" format="2">
  <advance width="230"/>
  <unicode hex="2018"/>
  <outline>
    <contour>
      <point x="22" y="609" type="line"/>
      <point x="22" y="713" type="line"/>
      <point x="54" y="713" type="line"/>
      <point x="54" y="760" type="line"/>
      <point x="90" y="760" type="line"/>
      <point x="90" y="810" type="line"/>
      <point x="202" y="810" type="line"/>
      <point x="202" y="760" type="line"/>
      <point x="170" y="760" type="line"/>
      <point x="170" y="713" type="line"/>
      <point x="202" y="713" type="line"/>
      <point x="202" y="609" type="line"/>
      <point x="170" y="609" type="line"/>
      <point x="170" y="577" type="line"/>
      <point x="54" y="577" type="line"/>
      <point x="54" y="609" type="line"/>
    </contour>
  </outline>
</glyph>
<glyph name="quoteright" format="2">
  <advance width="230"/>
  <unicode hex="2019"/>
  <outline>
    <contour>
      <point x="202" y="778" type="line"/>
      <point x="202" y="674" type="line"/>
      <point x="170" y="674" type="line"/>
      <point x="170" y="627" type="line"/>
      <point x="134" y="627" type="line"/>
      <point x="134" y="577" type="line"/>
      <point x="22" y="577" type="line"/>
      <point x="22" y="627" type="line"/>
      <point x="54" y="627" type="line"/>
      <point x="54" y="674" type="line"/>
      <point x="22" y="674" type="line"/>
      <point x="22" y="778" type="line"/>
      <point x="54" y="778" type="line"/>
      <point x="54" y="810" type="line"/>
      <point x="170" y="810" type="line"/>
      <point x="170" y="778" type="line"/>
    </contour>
  </outline>
</glyph>
<glyph name="quotedblleft" format="2">
  <advance width="420"/>
  <unicode hex="201C"/>
  <outline>
    <contour>
      <point x="22" y="609" type="line"/>
      <point x="22" y="713" type="line"/>
      <point x="54" y="713" type="line"/>
      <point x="54" y="760" type="line"/>
      <point x="90" y="760" type="line"/>
      <point x="90" y="810" type="line"/>
      <point x="192" y="810" type="line"/>
      <point x="192" y="760" type="line"/>
      <point x="160" y="760" type="line"/>
      <point x="160" y="713" type="line"/>
      <point x="192" y="713" type="line"/>
      <point x="192" y="609" type="line"/>
      <point x="160" y="609" type="line"/>
      <point x="160" y="577" type="line"/>
      <point x="54" y="577" type="line"/>
      <point x="54" y="609" type="line"/>
    </contour>
    <contour>
      <point x="221" y="609" type="line"/>
      <point x="221" y="713" type="line"/>
      <point x="253" y="713" type="line"/>
      <point x="253" y="760" type="line"/>
      <point x="289" y="760" type="line"/>
      <point x="289" y="810" type="line"/>
      <point x="391" y="810" type="line"/>
      <point x="391" y="760" type="line"/>
      <point x="359" y="760" type="line"/>
      <point x="359" y="713" type="line"/>
      <point x="391" y="713" type="line"/>
      <point x="391" y="609" type="line"/>
      <point x="359" y="609" type="line"/>
      <point x="359" y="577" type="line"/>
      <point x="253" y="577" type="line"/>
      <point x="253" y="609" type="line"/>
    </contour>
  </outline>
</glyph>
<glyph name="quotedblright" format="2">
  <advance width="420"/>
  <unicode hex="201D"/>
  <outline>
    <contour>
      <point x="391" y="778" type="line"/>
      <point x="391" y="674" type="line"/>
      <point x="359" y="674" type="line"/>
      <point x="359" y="627" type="line"/>
      <point x="323" y="627" type="line"/>
      <point x="323" y="577" type="line"/>
      <point x="221" y="577" type="line"/>
      <point x="221" y="627" type="line"/>
      <point x="253" y="627" type="line"/>
      <point x="253" y="674" type="line"/>
      <point x="221" y="674" type="line"/>
      <point x="221" y="778" type="line"/>
      <point x="253" y="778" type="line"/>
      <point x="253" y="810" type="line"/>
      <point x="359" y="810" type="line"/>
      <point x="359" y="778" type="line"/>
    </contour>
    <contour>
      <point x="192" y="778" type="line"/>
      <point x="192" y="674" type="line"/>
      <point x="160" y="674" type="line"/>
      <point x="160" y="627" type="line"/>
      <point x="124" y="627" type="line"/>
      <point x="124" y="577" type="line"/>
      <point x="22" y="577" type="line"/>
      <point x="22" y="627" type="line"/>
      <point x="54" y="627" type="line"/>
      <point x="54" y="674" type="line"/>
      <point x="22" y="674" type="line"/>
      <point x="22" y="778" type="line"/>
      <point x="54" y="778" type="line"/>
      <point x="54" y="810" type="line"/>
      <point x="160" y="810" type="line"/>
      <point x="160" y="778" type="line"/>
    </contour>
  </outline>
</glyph>
<glyph name="ellipsis" format="2">
  <advance width="800"/>
  <unicode hex="2026"/>
  <unicode hex="22EF"/>
  <outline>
    <contour>
      <point x="698" y="441" type="line"/>
      <point x="730" y="441" type="line"/>
      <point x="730" y="322" type="line"/>
      <point x="698" y="322" type="line"/>
      <point x="698" y="290" type="line"/>
      <point x="582" y="290" type="line"/>
      <point x="582" y="322" type="line"/>
      <point x="550" y="322" type="line"/>
      <point x="550" y="441" type="line"/>
      <point x="582" y="441" type="line"/>
      <point x="582" y="473" type="line"/>
      <point x="698" y="473" type="line"/>
    </contour>
    <contour>
      <point x="218" y="441" type="line"/>
      <point x="250" y="441" type="line"/>
      <point x="250" y="322" type="line"/>
      <point x="218" y="322" type="line"/>
      <point x="218" y="290" type="line"/>
      <point x="102" y="290" type="line"/>
      <point x="102" y="322" type="line"/>
      <point x="70" y="322" type="line"/>
      <point x="70" y="441" type="line"/>
      <point x="102" y="441" type="line"/>
      <point x="102" y="473" type="line"/>
      <point x="218" y="473" type="line"/>
    </contour>
    <contour>
      <point x="458" y="441" type="line"/>
      <point x="490" y="441" type="line"/>
      <point x="490" y="322" type="line"/>
      <point x="458" y="322" type="line"/>
      <point x="458" y="290" type="line"/>
      <point x="342" y="290" type="line"/>
      <point x="342" y="322" type="line"/>
      <point x="310" y="322" type="line"/>
      <point x="310" y="441" type="line"/>
      <point x="342" y="441" type="line"/>
      <point x="342" y="473" type="line"/>
      <point x="458" y="473" type="line"/>
    </contour>
  </outline>
</glyph>
<glyph name="referencemark" format="2">
  <advance width="900"/>
  <unicode hex="203B"/>
  <outline>
    <contour>
      <point x="399" y="95" type="line"/>
      <point x="399" y="122" type="line"/>
      <point x="499" y="122" type="line"/>
      <point x="499" y="95" type="line"/>
      <point x="526" y="95" type="line"/>
      <point x="526" y="-3" type="line"/>
      <point x="499" y="-3" type="line"/>
      <point x="499" y="-30" type="line"/>
      <point x="399" y="-30" type="line"/>
      <point x="399" y="-3" type="line"/>
      <point x="372" y="-3" type="line"/>
      <point x="372" y="95" type="line"/>
    </contour>
    <contour>
      <point x="399" y="733" type="line"/>
      <point x="399" y="760" type="line"/>
      <point x="499" y="760" type="line"/>
      <point x="499" y="733" type="line"/>
      <point x="526" y="733" type="line"/>
      <point x="526" y="635" type="line"/>
      <point x="499" y="635" type="line"/>
      <point x="499" y="608" type="line"/>
      <point x="399" y="608" type="line"/>
      <point x="399" y="635" type="line"/>
      <point x="372" y="635" type="line"/>
      <point x="372" y="733" type="line"/>
    </contour>
    <contour>
      <point x="557" y="384" type="line"/>
      <point x="557" y="346" type="line"/>
      <point x="601" y="346" type="line"/>
      <point x="601" y="288" type="line"/>
      <point x="654" y="288" type="line"/>
      <point x="654" y="231" type="line"/>
      <point x="707" y="231" type="line"/>
      <point x="707" y="173" type="line"/>
      <point x="761" y="173" type="line"/>
      <point x="761" y="115" type="line"/>
      <point x="814" y="115" type="line"/>
      <point x="814" y="58" type="line"/>
      <point x="868" y="58" type="line"/>
      <point x="868" y="0" type="line"/>
      <point x="632" y="0" type="line"/>
      <point x="632" y="58" type="line"/>
      <point x="578" y="58" type="line"/>
      <point x="578" y="135" type="line"/>
      <point x="525" y="135" type="line"/>
      <point x="525" y="183" type="line"/>
      <point x="471" y="183" type="line"/>
      <point x="471" y="231" type="line"/>
      <point x="426" y="231" type="line"/>
      <point x="426" y="183" type="line"/>
      <point x="373" y="183" type="line"/>
      <point x="373" y="135" type="line"/>
      <point x="319" y="135" type="line"/>
      <point x="319" y="58" type="line"/>
      <point x="266" y="58" type="line"/>
      <point x="266" y="0" type="line"/>
      <point x="30" y="0" type="line"/>
      <point x="30" y="58" type="line"/>
      <point x="83" y="58" type="line"/>
      <point x="83" y="115" type="line"/>
      <point x="137" y="115" type="line"/>
      <point x="137" y="173" type="line"/>
      <point x="190" y="173" type="line"/>
      <point x="190" y="231" type="line"/>
      <point x="244" y="231" type="line"/>
      <point x="244" y="288" type="line"/>
      <point x="307" y="288" type="line"/>
      <point x="307" y="346" type="line"/>
      <point x="341" y="346" type="line"/>
      <point x="341" y="384" type="line"/>
      <point x="307" y="384" type="line"/>
      <point x="307" y="442" type="line"/>
      <point x="244" y="442" type="line"/>
      <point x="244" y="499" type="line"/>
      <point x="190" y="499" type="line"/>
      <point x="190" y="557" type="line"/>
      <point x="137" y="557" type="line"/>
      <point x="137" y="615" type="line"/>
      <point x="83" y="615" type="line"/>
      <point x="83" y="672" type="line"/>
      <point x="30" y="672" type="line"/>
      <point x="30" y="730" type="line"/>
      <point x="266" y="730" type="line"/>
      <point x="266" y="672" type="line"/>
      <point x="319" y="672" type="line"/>
      <point x="319" y="605" type="line"/>
      <point x="373" y="605" type="line"/>
      <point x="373" y="547" type="line"/>
      <point x="426" y="547" type="line"/>
      <point x="426" y="499" type="line"/>
      <point x="471" y="499" type="line"/>
      <point x="471" y="547" type="line"/>
      <point x="525" y="547" type="line"/>
      <point x="525" y="605" type="line"/>
      <point x="578" y="605" type="line"/>
      <point x="578" y="672" type="line"/>
      <point x="632" y="672" type="line"/>
      <point x="632" y="730" type="line"/>
      <point x="868" y="730" type="line"/>
      <point x="868" y="672" type="line"/>
      <point x="814" y="672" type="line"/>
      <point x="814" y="615" type="line"/>
      <point x="761" y="615" type="line"/>
      <point x="761" y="557" type="line"/>
      <point x="707" y="557" type="line"/>
      <point x="707" y="499" type="line"/>
      <point x="654" y="499" type="line"/>
      <point x="654" y="442" type="line"/>
      <point x="601" y="442" type="line"/>
      <point x="601" y="384" type="line"/>
    </contour>
    <contour>
      <point x="215" y="415" type="line"/>
      <point x="242" y="415" type="line"/>
      <point x="242" y="315" type="line"/>
      <point x="215" y="315" type="line"/>
      <point x="215" y="288" type="line"/>
      <point x="117" y="288" type="line"/>
      <point x="117" y="315" type="line"/>
      <point x="90" y="315" type="line"/>
      <point x="90" y="415" type="line"/>
      <point x="117" y="415" type="line"/>
      <point x="117" y="442" type="line"/>
      <point x="215" y="442" type="line"/>
    </contour>
    <contour>
      <point x="781" y="415" type="line"/>
      <point x="808" y="415" type="line"/>
      <point x="808" y="315" type="line"/>
      <point x="781" y="315" type="line"/>
      <point x="781" y="288" type="line"/>
      <point x="683" y="288" type="line"/>
      <point x="683" y="315" type="line"/>
      <point x="657" y="315" type="line"/>
      <point x="657" y="415" type="line"/>
      <point x="683" y="415" type="line"/>
      <point x="683" y="442" type="line"/>
      <point x="781" y="442" type="line"/>
    </contour>
  </outline>
</glyph>
<glyph name="wonsign" format="2">
  <advance width="1100"/>
  <unicode hex="20A9"/>
  <outline>
    <contour>
      <point x="650" y="388" type="line"/>
      <point x="650" y="293" type="line"/>
      <point x="684" y="293" type="line"/>
      <point x="684" y="244" type="line"/>
      <point x="721" y="244" type="line"/>
      <point x="721" y="293" type="line"/>
      <point x="756" y="293" type="line"/>
      <point x="756" y="342" type="line"/>
      <point x="790" y="342" type="line"/>
      <point x="790" y="388" type="line"/>
    </contour>
    <contour>
      <point x="322" y="388" type="line"/>
      <point x="322" y="342" type="line"/>
      <point x="356" y="342" type="line"/>
      <point x="356" y="293" type="line"/>
      <point x="390" y="293" type="line"/>
      <point x="390" y="244" type="line"/>
      <point x="428" y="244" type="line"/>
      <point x="428" y="293" type="line"/>
      <point x="462" y="293" type="line"/>
      <point x="462" y="388" type="line"/>
    </contour>
    <contour>
      <point x="1052" y="559" type="line"/>
      <point x="1052" y="526" type="line"/>
      <point x="1093" y="526" type="line"/>
      <point x="1093" y="421" type="line"/>
      <point x="1052" y="421" type="line"/>
      <point x="1052" y="388" type="line"/>
      <point x="972" y="388" type="line"/>
      <point x="972" y="257" type="line"/>
      <point x="935" y="257" type="line"/>
      <point x="935" y="195" type="line"/>
      <point x="900" y="195" type="line"/>
      <point x="900" y="146" type="line"/>
      <point x="865" y="146" type="line"/>
      <point x="865" y="97" type="line"/>
      <point x="831" y="97" type="line"/>
      <point x="831" y="48" type="line"/>
      <point x="797" y="48" type="line"/>
      <point x="797" y="0" type="line"/>
      <point x="613" y="0" type="line"/>
      <point x="613" y="48" type="line"/>
      <point x="579" y="48" type="line"/>
      <point x="579" y="97" type="line"/>
      <point x="533" y="97" type="line"/>
      <point x="533" y="48" type="line"/>
      <point x="499" y="48" type="line"/>
      <point x="499" y="0" type="line"/>
      <point x="315" y="0" type="line"/>
      <point x="315" y="48" type="line"/>
      <point x="281" y="48" type="line"/>
      <point x="281" y="97" type="line"/>
      <point x="247" y="97" type="line"/>
      <point x="247" y="146" type="line"/>
      <point x="212" y="146" type="line"/>
      <point x="212" y="195" type="line"/>
      <point x="177" y="195" type="line"/>
      <point x="177" y="257" type="line"/>
      <point x="141" y="257" type="line"/>
      <point x="141" y="388" type="line"/>
      <point x="61" y="388" type="line"/>
      <point x="61" y="421" type="line"/>
      <point x="20" y="421" type="line"/>
      <point x="20" y="526" type="line"/>
      <point x="61" y="526" type="line"/>
      <point x="61" y="559" type="line"/>
      <point x="141" y="559" type="line"/>
      <point x="141" y="709" type="line"/>
      <point x="177" y="709" type="line"/>
      <point x="177" y="750" type="line"/>
      <point x="287" y="750" type="line"/>
      <point x="287" y="709" type="line"/>
      <point x="322" y="709" type="line"/>
      <point x="322" y="559" type="line"/>
      <point x="462" y="559" type="line"/>
      <point x="462" y="709" type="line"/>
      <point x="498" y="709" type="line"/>
      <point x="498" y="750" type="line"/>
      <point x="615" y="750" type="line"/>
      <point x="615" y="709" type="line"/>
      <point x="650" y="709" type="line"/>
      <point x="650" y="559" type="line"/>
      <point x="790" y="559" type="line"/>
      <point x="790" y="709" type="line"/>
      <point x="828" y="709" type="line"/>
      <point x="828" y="750" type="line"/>
      <point x="936" y="750" type="line"/>
      <point x="936" y="709" type="line"/>
      <point x="972" y="709" type="line"/>
      <point x="972" y="559" type="line"/>
    </contour>
  </outline>
</glyph>
